WantedSans.glyphspackage
{
glyphname = numbersign;
kernLeft = numbersign;
kernRight = numbersign;
layers = (
{
associatedMasterId = m01;
background = {
shapes = (
{
attr = {
lineCapEnd = "4";
lineCapStart = "3";
strokeHeight = 148;
strokeWidth = 160;
};
closed = 0;
nodes = (
(380,958,l),
(126,958,l)
);
},
{
attr = {
lineCapEnd = "3";
lineCapStart = "4";
strokeHeight = 148;
strokeWidth = 160;
};
closed = 0;
nodes = (
(1236,958,l),
(980,958,l)
);
},
{
attr = {
lineCapEnd = "4";
lineCapStart = "3";
strokeHeight = 148;
strokeWidth = 160;
};
closed = 0;
nodes = (
(274,490,l),
(18,490,l)
);
},
{
attr = {
lineCapEnd = "3";
lineCapStart = "4";
strokeHeight = 148;
strokeWidth = 160;
};
closed = 0;
nodes = (
(1128,490,l),
(872,490,l)
);
},
{
attr = {
lineCapEnd = "3";
lineCapStart = "3";
strokeHeight = 148;
strokeWidth = 160;
};
closed = 0;
nodes = (
(852,958,l),
(510,958,l)
);
},
{
attr = {
lineCapEnd = "3";
lineCapStart = "3";
strokeHeight = 148;
strokeWidth = 160;
};
closed = 0;
nodes = (
(744,490,l),
(402,490,l)
);
},
{
attr = {
lineCapEnd = "4";
lineCapStart = "4";
strokeHeight = 148;
strokeWidth = 160;
};
closed = 0;
nodes = (
(558,1448,l),
(224,0,l)
);
},
{
attr = {
lineCapEnd = "4";
lineCapStart = "4";
strokeHeight = 148;
strokeWidth = 160;
};
closed = 0;
nodes = (
(1030,1448,l),
(696,0,l)
);
}
);
};
layerId = "F6D87726-5774-4C86-991F-9353EA076A75";
metricLeft = "=0";
metricRight = "=|";
name = "Apr 23, 23 13:01";
shapes = (
{
closed = 1;
nodes = (
(306,0,l),
(402,416,l),
(710,416,l),
(614,0,l),
(778,0,l),
(874,416,l),
(1112,416,l),
(1146,564,l),
(908,564,l),
(982,884,l),
(1220,884,l),
(1254,1032,l),
(1016,1032,l),
(1112,1448,l),
(948,1448,l),
(852,1032,l),
(544,1032,l),
(640,1448,l),
(476,1448,l),
(380,1032,l),
(142,1032,l),
(108,884,l),
(346,884,l),
(272,564,l),
(34,564,l),
(0,416,l),
(238,416,l),
(142,0,l)
);
},
{
closed = 1;
nodes = (
(504,892,l),
(828,892,l),
(750,556,l),
(426,556,l)
);
}
);
width = 1254;
},
{
background = {
shapes = (
{
attr = {
lineCapEnd = "4";
lineCapStart = "3";
strokeHeight = 148;
strokeWidth = 160;
};
closed = 0;
nodes = (
(362,958,l),
(108,958,l)
);
},
{
attr = {
lineCapEnd = "3";
lineCapStart = "4";
strokeHeight = 148;
strokeWidth = 160;
};
closed = 0;
nodes = (
(1218,958,l),
(962,958,l)
);
},
{
attr = {
lineCapEnd = "4";
lineCapStart = "3";
strokeHeight = 148;
strokeWidth = 160;
};
closed = 0;
nodes = (
(256,490,l),
(0,490,l)
);
},
{
attr = {
lineCapEnd = "3";
lineCapStart = "4";
strokeHeight = 148;
strokeWidth = 160;
};
closed = 0;
nodes = (
(1110,490,l),
(854,490,l)
);
},
{
attr = {
lineCapEnd = "3";
lineCapStart = "3";
strokeHeight = 148;
strokeWidth = 160;
};
closed = 0;
nodes = (
(834,958,l),
(492,958,l)
);
},
{
attr = {
lineCapEnd = "3";
lineCapStart = "3";
strokeHeight = 148;
strokeWidth = 160;
};
closed = 0;
nodes = (
(726,490,l),
(384,490,l)
);
},
{
attr = {
lineCapEnd = "4";
lineCapStart = "4";
strokeHeight = 148;
strokeWidth = 160;
};
closed = 0;
nodes = (
(540,1448,l),
(206,0,l)
);
},
{
attr = {
lineCapEnd = "4";
lineCapStart = "4";
strokeHeight = 148;
strokeWidth = 160;
};
closed = 0;
nodes = (
(1012,1448,l),
(678,0,l)
);
}
);
};
layerId = m01;
metricLeft = "=0";
metricRight = "=|";
name = Regular;
shapes = (
{
closed = 1;
nodes = (
(288,0,l),
(384,416,l),
(692,416,l),
(596,0,l),
(760,0,l),
(856,416,l),
(1110,416,l),
(1110,564,l),
(890,564,l),
(964,884,l),
(1218,884,l),
(1218,1032,l),
(998,1032,l),
(1094,1448,l),
(930,1448,l),
(834,1032,l),
(526,1032,l),
(622,1448,l),
(458,1448,l),
(362,1032,l),
(108,1032,l),
(108,884,l),
(328,884,l),
(254,564,l),
(0,564,l),
(0,416,l),
(220,416,l),
(124,0,l)
);
},
{
closed = 1;
nodes = (
(486,892,l),
(810,892,l),
(732,556,l),
(408,556,l)
);
}
);
width = 1218;
},
{
associatedMasterId = "94F54C43-8AEE-4ED6-B3C2-2A9D33534E61";
background = {
shapes = (
{
attr = {
lineCapStart = "3";
strokeHeight = 304;
strokeWidth = 320;
};
closed = 0;
nodes = (
(390,958,l),
(142,958,l)
);
},
{
attr = {
lineCapEnd = "3";
strokeHeight = 304;
strokeWidth = 320;
};
closed = 0;
nodes = (
(1390,958,l),
(1150,958,l)
);
},
{
attr = {
lineCapStart = "3";
strokeHeight = 304;
strokeWidth = 320;
};
closed = 0;
nodes = (
(282,490,l),
(34,490,l)
);
},
{
attr = {
lineCapEnd = "3";
strokeHeight = 304;
strokeWidth = 320;
};
closed = 0;
nodes = (
(1282,490,l),
(1042,490,l)
);
},
{
attr = {
lineCapEnd = "3";
lineCapStart = "3";
strokeHeight = 304;
strokeWidth = 320;
};
closed = 0;
nodes = (
(894,958,l),
(646,958,l)
);
},
{
attr = {
lineCapEnd = "3";
lineCapStart = "3";
strokeHeight = 304;
strokeWidth = 320;
};
closed = 0;
nodes = (
(786,490,l),
(538,490,l)
);
},
{
attr = {
lineCapEnd = "4";
lineCapStart = "4";
strokeHeight = 304;
strokeWidth = 320;
};
closed = 0;
nodes = (
(630,1448,l),
(296,0,l)
);
},
{
attr = {
lineCapEnd = "4";
lineCapStart = "4";
strokeHeight = 304;
strokeWidth = 320;
};
closed = 0;
nodes = (
(1136,1448,l),
(802,0,l)
);
}
);
};
layerId = "85793EED-ACF1-4603-9BC1-23AEF7F43F9C";
metricLeft = "=0";
metricRight = "=|";
name = "Apr 23, 23 13:01";
shapes = (
{
closed = 1;
nodes = (
(460,0,l),
(538,338,l),
(716,338,l),
(638,0,l),
(966,0,l),
(1044,338,l),
(1248,338,l),
(1318,642,l),
(1114,642,l),
(1152,806,l),
(1356,806,l),
(1426,1110,l),
(1222,1110,l),
(1300,1448,l),
(972,1448,l),
(894,1110,l),
(716,1110,l),
(794,1448,l),
(466,1448,l),
(388,1110,l),
(178,1110,l),
(108,806,l),
(318,806,l),
(280,642,l),
(70,642,l),
(0,338,l),
(210,338,l),
(132,0,l)
);
},
{
closed = 1;
nodes = (
(626,830,l),
(854,830,l),
(806,618,l),
(578,618,l)
);
}
);
width = 1426;
},
{
background = {
shapes = (
{
attr = {
lineCapStart = "3";
strokeHeight = 304;
strokeWidth = 320;
};
closed = 0;
nodes = (
(356,958,l),
(108,958,l)
);
},
{
attr = {
lineCapEnd = "3";
strokeHeight = 304;
strokeWidth = 320;
};
closed = 0;
nodes = (
(1356,958,l),
(1116,958,l)
);
},
{
attr = {
lineCapStart = "3";
strokeHeight = 304;
strokeWidth = 320;
};
closed = 0;
nodes = (
(248,490,l),
(0,490,l)
);
},
{
attr = {
lineCapEnd = "3";
strokeHeight = 304;
strokeWidth = 320;
};
closed = 0;
nodes = (
(1248,490,l),
(1008,490,l)
);
},
{
attr = {
lineCapEnd = "3";
lineCapStart = "3";
strokeHeight = 304;
strokeWidth = 320;
};
closed = 0;
nodes = (
(860,958,l),
(612,958,l)
);
},
{
attr = {
lineCapEnd = "3";
lineCapStart = "3";
strokeHeight = 304;
strokeWidth = 320;
};
closed = 0;
nodes = (
(752,490,l),
(504,490,l)
);
},
{
attr = {
lineCapEnd = "4";
lineCapStart = "4";
strokeHeight = 304;
strokeWidth = 320;
};
closed = 0;
nodes = (
(596,1448,l),
(262,0,l)
);
},
{
attr = {
lineCapEnd = "4";
lineCapStart = "4";
strokeHeight = 304;
strokeWidth = 320;
};
closed = 0;
nodes = (
(1102,1448,l),
(768,0,l)
);
}
);
};
layerId = "94F54C43-8AEE-4ED6-B3C2-2A9D33534E61";
metricLeft = "=0";
metricRight = "=|";
name = Black;
shapes = (
{
closed = 1;
nodes = (
(426,0,l),
(504,338,l),
(682,338,l),
(604,0,l),
(932,0,l),
(1010,338,l),
(1248,338,l),
(1248,642,l),
(1080,642,l),
(1118,806,l),
(1356,806,l),
(1356,1110,l),
(1188,1110,l),
(1266,1448,l),
(938,1448,l),
(860,1110,l),
(682,1110,l),
(760,1448,l),
(432,1448,l),
(354,1110,l),
(108,1110,l),
(108,806,l),
(284,806,l),
(246,642,l),
(0,642,l),
(0,338,l),
(176,338,l),
(98,0,l)
);
},
{
closed = 1;
nodes = (
(592,830,l),
(820,830,l),
(772,618,l),
(544,618,l)
);
}
);
width = 1356;
}
);
unicode = 35;
}
{
glyphname = ampersand;
kernLeft = ampersand;
kernRight = ampersand;
layers = (
{
background = {
shapes = (
{
attr = {
lineCapEnd = "4";
lineCapStart = "4";
strokeHeight = 164;
strokeWidth = 176;
};
closed = 0;
nodes = (
(1254,0,l),
(444,912,ls),
(378,986,o),
(340,1066,o),
(340,1146,cs),
(340,1284,o),
(456,1394,o),
(604,1394,cs),
(752,1394,o),
(868,1284,o),
(868,1144,cs),
(868,1040,o),
(804,958,o),
(584,816,cs),
(390,690,o),
(180,584,o),
(180,366,cs),
(180,184,o),
(328,60,o),
(548,54,cs),
(906,44,o),
(1192,356,o),
(1192,760,c)
);
}
);
};
layerId = m01;
metricRight = "=O-32";
shapes = (
{
closed = 1;
nodes = (
(952,-28,o),
(1280,326,o),
(1280,760,c),
(1104,760,l),
(1104,408,o),
(860,134,o),
(550,136,cs),
(376,138,o),
(268,226,o),
(268,366,cs),
(268,536,o),
(428,628,o),
(600,736,cs),
(856,898,o),
(956,982,o),
(956,1144,cs),
(956,1338,o),
(810,1476,o),
(604,1476,cs),
(398,1476,o),
(252,1340,o),
(252,1146,cs),
(252,1050,o),
(288,964,o),
(382,858,cs),
(1144,0,l),
(1368,0,l),
(510,968,ls),
(456,1028,o),
(428,1086,o),
(428,1146,cs),
(428,1244,o),
(502,1312,o),
(604,1312,cs),
(706,1312,o),
(780,1244,o),
(780,1144,cs),
(780,1066,o),
(736,1004,o),
(496,856,cs),
(336,758,o),
(92,628,o),
(92,366,cs),
(92,138,o),
(278,-28,o),
(550,-28,cs)
);
}
);
width = 1428;
},
{
associatedMasterId = m01;
layerId = "4E7CBB97-9999-4405-8480-C07608DECC84";
name = Circular;
shapes = (
{
closed = 1;
nodes = (
(672,-24,o),
(800,58,o),
(916,192,cs),
(1240,566,l),
(1240,830,l),
(782,320,ls),
(702,232,o),
(622,160,o),
(512,160,cs),
(380,160,o),
(298,264,o),
(298,362,cs),
(298,462,o),
(350,528,o),
(420,580,cs),
(720,806,ls),
(824,884,o),
(924,982,o),
(924,1126,cs),
(924,1342,o),
(760,1478,o),
(540,1478,cs),
(360,1478,o),
(166,1352,o),
(166,1118,cs),
(166,976,o),
(270,864,o),
(340,794,cs),
(1100,0,l),
(1372,0,l),
(476,928,ls),
(428,976,o),
(366,1048,o),
(366,1130,cs),
(366,1244,o),
(460,1308,o),
(542,1308,cs),
(648,1308,o),
(726,1228,o),
(726,1132,cs),
(726,1070,o),
(704,1016,o),
(618,952,cs),
(346,750,ls),
(192,638,o),
(92,534,o),
(92,346,cs),
(92,160,o),
(236,-24,o),
(510,-24,cs)
);
}
);
width = 1464;
},
{
associatedMasterId = m01;
layerId = "8CD0F623-40FC-4D78-B838-5C726AE13B81";
name = "San Francisco";
shapes = (
{
closed = 1;
nodes = (
(1400,0,l),
(1400,6,l),
(608,854,ls),
(534,932,o),
(424,1038,o),
(424,1144,cs),
(424,1260,o),
(508,1334,o),
(620,1334,cs),
(736,1334,o),
(816,1258,o),
(816,1146,cs),
(816,998,o),
(646,912,o),
(522,852,c),
(622,752,l),
(890,888,o),
(986,1000,o),
(986,1152,cs),
(986,1344,o),
(832,1476,o),
(620,1476,cs),
(420,1476,o),
(254,1350,o),
(254,1152,cs),
(256,1012,o),
(364,890,o),
(448,800,cs),
(1178,0,l)
);
},
{
closed = 1;
nodes = (
(1040,-24,o),
(1270,318,o),
(1270,778,cs),
(1270,822,l),
(1104,822,l),
(1104,778,ls),
(1104,416,o),
(958,126,o),
(596,126,cs),
(402,126,o),
(272,238,o),
(272,400,cs),
(272,510,o),
(332,596,o),
(484,684,cs),
(596,746,l),
(496,852,l),
(378,790,ls),
(190,688,o),
(92,560,o),
(92,388,cs),
(92,66,o),
(400,-24,o),
(580,-24,cs)
);
}
);
width = 1492;
},
{
associatedMasterId = m01;
layerId = "71096B3E-2B68-4084-88A6-68D57E2BA2EC";
name = Eight;
shapes = (
{
ref = eight;
}
);
width = 1240;
},
{
associatedMasterId = m01;
layerId = "DCF03947-FAEB-477C-8A5E-93B6D393AB98";
name = "Jun 14, 23 14:26";
shapes = (
{
attr = {
lineCapEnd = 4;
lineCapStart = 4;
strokeHeight = 168;
strokeWidth = 180;
};
closed = 0;
nodes = (
(1194,0,l),
(96,1204,l)
);
},
{
attr = {
strokeHeight = 168;
strokeWidth = 180;
};
closed = 1;
nodes = (
(692,846,o),
(814,970,o),
(814,1118,cs),
(814,1268,o),
(692,1390,o),
(542,1390,cs),
(394,1390,o),
(270,1268,o),
(270,1118,cs),
(270,970,o),
(394,846,o),
(542,846,cs)
);
},
{
attr = {
strokeHeight = 164;
strokeWidth = 176;
};
closed = 1;
nodes = (
(780,54,o),
(956,200,o),
(956,408,cs),
(956,614,o),
(780,760,o),
(528,760,cs),
(276,760,o),
(100,614,o),
(100,408,cs),
(100,200,o),
(276,54,o),
(528,54,cs)
);
}
);
width = 1328;
},
{
associatedMasterId = m01;
layerId = "322602F4-C248-44A3-A558-D782FB1892BF";
name = "Jun 14, 23 15:11";
shapes = (
{
attr = {
lineCapEnd = 4;
lineCapStart = 4;
strokeHeight = 168;
strokeWidth = 180;
};
closed = 0;
nodes = (
(1194,0,l),
(96,1204,l)
);
},
{
attr = {
strokeHeight = 168;
strokeWidth = 180;
};
closed = 1;
nodes = (
(692,846,o),
(814,970,o),
(814,1118,cs),
(814,1268,o),
(692,1390,o),
(542,1390,cs),
(394,1390,o),
(270,1268,o),
(270,1118,cs),
(270,970,o),
(394,846,o),
(542,846,cs)
);
},
{
attr = {
strokeHeight = 168;
strokeWidth = 180;
};
closed = 1;
nodes = (
(604,56,o),
(744,198,o),
(744,370,cs),
(744,544,o),
(604,684,o),
(430,684,cs),
(258,684,o),
(116,544,o),
(116,370,cs),
(116,198,o),
(258,56,o),
(430,56,cs)
);
},
{
attr = {
lineCapEnd = "4";
lineCapStart = "4";
strokeHeight = 168;
strokeWidth = 180;
};
closed = 0;
nodes = (
(988,1204,l),
(-110,0,l)
);
}
);
width = 1328;
},
{
associatedMasterId = m01;
layerId = "25FFD933-D8FC-4A4F-99D9-E67CE0B877E2";
name = "Jun 14, 23 15:28";
shapes = (
{
attr = {
lineCapEnd = "4";
lineCapStart = "4";
strokeHeight = 164;
strokeWidth = 176;
};
closed = 0;
nodes = (
(1202,0,l),
(402,890,ls),
(312,990,o),
(280,1062,o),
(280,1142,cs),
(280,1282,o),
(386,1394,o),
(550,1394,cs),
(714,1394,o),
(820,1282,o),
(820,1142,cs),
(820,1060,o),
(788,984,o),
(680,890,cs),
(310,562,ls),
(212,476,o),
(182,392,o),
(182,318,cs),
(182,172,o),
(300,56,o),
(458,54,cs),
(564,52,o),
(666,102,o),
(746,188,cs),
(1218,700,l)
);
}
);
width = 1430;
},
{
associatedMasterId = m01;
layerId = "E2B47D08-9204-4DDE-80B7-7E3E6AC1C61F";
name = "Jun 14, 23 15:32";
shapes = (
{
attr = {
lineCapEnd = "4";
lineCapStart = "4";
strokeHeight = 164;
strokeWidth = 176;
};
closed = 0;
nodes = (
(1256,0,l),
(466,922,ls),
(384,1018,o),
(352,1084,o),
(352,1158,cs),
(352,1290,o),
(452,1394,o),
(604,1394,cs),
(756,1394,o),
(856,1290,o),
(856,1158,cs),
(856,1068,o),
(808,984,o),
(726,922,cs),
(374,654,ls),
(246,556,o),
(182,460,o),
(182,348,cs),
(182,186,o),
(312,56,o),
(484,54,cs),
(600,52,o),
(716,104,o),
(820,224,cs),
(1256,734,l)
);
}
);
width = 1464;
},
{
associatedMasterId = "94F54C43-8AEE-4ED6-B3C2-2A9D33534E61";
layerId = "5C9C0A3A-53E6-4105-8DAA-7407B775244B";
name = Avenir;
shapes = (
{
closed = 1;
nodes = (
(820,-28,o),
(956,32,o),
(1042,110,c),
(1296,358,l),
(1650,790,l),
(1146,790,l),
(1024,616,l),
(778,380,l),
(762,352,o),
(708,330,o),
(650,330,cs),
(584,330,o),
(516,364,o),
(516,442,cs),
(516,514,o),
(566,548,o),
(606,556,c),
(918,716,ls),
(1076,798,o),
(1212,902,o),
(1212,1086,cs),
(1212,1368,o),
(952,1476,o),
(716,1476,cs),
(482,1476,o),
(200,1374,o),
(200,1092,cs),
(200,938,o),
(296,822,o),
(398,752,c),
(1132,0,l),
(1694,0,l),
(922,736,l),
(718,938,l),
(662,978,o),
(626,1022,o),
(626,1072,cs),
(626,1122,o),
(658,1166,o),
(720,1166,cs),
(778,1166,o),
(808,1126,o),
(808,1072,cs),
(808,1012,o),
(756,968,o),
(684,944,c),
(354,804,l),
(194,742,o),
(60,608,o),
(60,416,cs),
(60,98,o),
(348,-28,o),
(626,-28,cs)
);
}
);
width = 1754;
},
{
background = {
annotations = (
{
pos = (1076,1038);
text = "Regular*.95";
type = Text;
}
);
shapes = (
{
attr = {
lineCapEnd = "4";
lineCapStart = "4";
strokeHeight = 344;
strokeWidth = 404;
};
closed = 0;
nodes = (
(1292,0,l),
(516,884,ls),
(456,952,o),
(416,1016,o),
(416,1088,cs),
(416,1208,o),
(528,1304,o),
(668,1304,cs),
(808,1304,o),
(920,1208,o),
(920,1086,cs),
(920,994,o),
(858,926,o),
(648,806,cs),
(470,704,o),
(262,606,o),
(262,416,cs),
(262,258,o),
(406,150,o),
(614,144,cs),
(954,136,o),
(1224,408,o),
(1224,760,c)
);
},
{
closed = 0;
nodes = (
(464,440,ls),
(464,524,o),
(496,552,o),
(708,664,cs)
);
}
);
};
layerId = "94F54C43-8AEE-4ED6-B3C2-2A9D33534E61";
metricRight = "=O-32";
name = Black;
shapes = (
{
closed = 1;
nodes = (
(1064,-28,o),
(1420,320,o),
(1420,760,c),
(1068,760,l),
(1068,512,o),
(876,316,o),
(632,316,cs),
(522,316,o),
(464,356,o),
(464,432,cs),
(464,526,o),
(552,568,o),
(708,648,cs),
(1044,820,o),
(1122,960,o),
(1122,1100,cs),
(1122,1316,o),
(934,1476,o),
(668,1476,cs),
(402,1476,o),
(214,1316,o),
(214,1088,cs),
(214,980,o),
(256,900,o),
(362,782,cs),
(1072,0,l),
(1540,0,l),
(640,992,ls),
(598,1038,o),
(584,1060,o),
(584,1088,cs),
(584,1132,o),
(620,1164,o),
(668,1164,cs),
(716,1164,o),
(752,1132,o),
(752,1084,cs),
(752,1032,o),
(710,990,o),
(512,888,cs),
(228,742,o),
(60,640,o),
(60,416,cs),
(60,156,o),
(290,-28,o),
(616,-28,cs)
);
}
);
width = 1568;
},
{
associatedMasterId = "94F54C43-8AEE-4ED6-B3C2-2A9D33534E61";
background = {
annotations = (
{
pos = (1076,1038);
text = "Regular*.95";
type = Text;
}
);
shapes = (
{
attr = {
lineCapEnd = "4";
lineCapStart = "4";
strokeHeight = 344;
strokeWidth = 404;
};
closed = 0;
nodes = (
(1292,0,l),
(516,884,ls),
(456,952,o),
(416,1016,o),
(416,1088,cs),
(416,1208,o),
(528,1304,o),
(668,1304,cs),
(808,1304,o),
(920,1208,o),
(920,1086,cs),
(920,994,o),
(858,926,o),
(648,806,cs),
(470,704,o),
(262,606,o),
(262,416,cs),
(262,258,o),
(406,150,o),
(614,144,cs),
(954,136,o),
(1224,408,o),
(1224,760,c)
);
},
{
closed = 0;
nodes = (
(464,440,ls),
(464,524,o),
(496,552,o),
(708,664,cs)
);
}
);
};
layerId = "9710D6C7-F16B-4AE0-BDB9-9BDE4A7C0E91";
name = "Jun 14, 23 17:25";
shapes = (
{
closed = 1;
nodes = (
(1066,-28,o),
(1420,318,o),
(1420,760,c),
(1068,760,l),
(1068,512,o),
(876,316,o),
(632,316,cs),
(522,316,o),
(464,356,o),
(464,432,cs),
(464,526,o),
(552,568,o),
(708,648,cs),
(1044,820,o),
(1122,960,o),
(1122,1100,cs),
(1122,1316,o),
(934,1476,o),
(668,1476,cs),
(402,1476,o),
(214,1316,o),
(214,1088,cs),
(214,982,o),
(256,900,o),
(362,782,cs),
(1072,0,l),
(1540,0,l),
(640,992,ls),
(604,1032,o),
(584,1054,o),
(584,1088,cs),
(584,1132,o),
(620,1164,o),
(668,1164,cs),
(716,1164,o),
(752,1132,o),
(752,1084,cs),
(752,1030,o),
(706,998,o),
(496,888,cs),
(312,792,o),
(60,688,o),
(60,416,cs),
(60,156,o),
(290,-28,o),
(616,-28,cs)
);
}
);
width = 1600;
}
);
metricLeft = O;
metricRight = O;
unicode = 38;
}
{
color = 11;
glyphname = parenleft;
kernRight = parenleft;
layers = (
{
background = {
shapes = (
{
attr = {
lineCapEnd = "4";
lineCapStart = "4";
strokeHeight = 172;
strokeWidth = 184;
};
closed = 0;
nodes = (
(488,1448,l),
(320,1174,o),
(224,852,o),
(224,508,cs),
(224,164,o),
(320,-158,o),
(488,-432,c)
);
}
);
};
layerId = m01;
metricWidth = "=640";
shapes = (
{
closed = 1;
nodes = (
(596,-432,l),
(426,-164,o),
(324,160,o),
(324,508,cs),
(324,856,o),
(426,1180,o),
(596,1448,c),
(392,1448,l),
(230,1170,o),
(140,850,o),
(140,508,cs),
(140,168,o),
(230,-152,o),
(392,-432,c)
);
}
);
width = 640;
},
{
background = {
shapes = (
{
attr = {
lineCapEnd = "4";
lineCapStart = "4";
strokeHeight = 384;
strokeWidth = 404;
};
closed = 0;
nodes = (
(604,1448,l),
(436,1174,o),
(340,852,o),
(340,508,cs),
(340,164,o),
(436,-158,o),
(604,-432,c)
);
}
);
};
layerId = "94F54C43-8AEE-4ED6-B3C2-2A9D33534E61";
metricWidth = "=880";
shapes = (
{
closed = 1;
nodes = (
(844,-432,l),
(676,-184,o),
(566,144,o),
(566,508,cs),
(566,874,o),
(676,1200,o),
(844,1448,c),
(398,1448,l),
(246,1166,o),
(162,846,o),
(162,508,cs),
(162,170,o),
(246,-148,o),
(398,-432,c)
);
}
);
width = 880;
},
{
associatedMasterId = m01;
background = {
shapes = (
{
attr = {
strokeHeight = 172;
strokeWidth = 184;
};
closed = 1;
nodes = (
(3018,-1292,o),
(3824,-486,o),
(3824,508,cs),
(3824,1502,o),
(3018,2308,o),
(2024,2308,cs),
(1030,2308,o),
(224,1502,o),
(224,508,cs),
(224,-486,o),
(1030,-1292,o),
(2024,-1292,cs)
);
},
{
closed = 1;
nodes = (
(166,1448,l),
(914,1448,l),
(914,1654,l),
(166,1654,l)
);
},
{
closed = 1;
nodes = (
(166,-638,l),
(914,-638,l),
(914,-432,l),
(166,-432,l)
);
}
);
};
layerId = "C92D59F2-20A3-4497-94E5-CB9B75286DA3";
name = Base;
shapes = (
{
attr = {
lineCapEnd = 4;
lineCapStart = 4;
strokeHeight = 172;
strokeWidth = 184;
};
closed = 0;
nodes = (
(488,1448,l),
(320,1174,o),
(224,852,o),
(224,508,cs),
(224,164,o),
(320,-158,o),
(488,-432,c)
);
}
);
width = 640;
},
{
associatedMasterId = m01;
background = {
shapes = (
{
attr = {
lineCapEnd = "4";
lineCapStart = "4";
strokeHeight = 172;
strokeWidth = 184;
};
closed = 0;
nodes = (
(488,1448,l),
(320,1174,o),
(224,852,o),
(224,508,cs),
(224,164,o),
(320,-158,o),
(488,-432,c)
);
}
);
};
layerId = "024230AD-4FD2-4E1B-B467-9AAA07D8EDD4";
metricWidth = "=640";
name = "May 8, 23 11:38";
shapes = (
{
closed = 1;
nodes = (
(596,-432,l),
(420,-164,o),
(316,160,o),
(316,508,cs),
(316,856,o),
(420,1180,o),
(596,1448,c),
(384,1448,l),
(222,1170,o),
(132,850,o),
(132,508,cs),
(132,168,o),
(222,-152,o),
(384,-432,c)
);
}
);
width = 640;
},
{
associatedMasterId = "94F54C43-8AEE-4ED6-B3C2-2A9D33534E61";
background = {
shapes = (
{
attr = {
lineCapEnd = "4";
lineCapStart = "4";
strokeHeight = 384;
strokeWidth = 404;
};
closed = 0;
nodes = (
(604,1448,l),
(436,1174,o),
(340,852,o),
(340,508,cs),
(340,164,o),
(436,-158,o),
(604,-432,c)
);
}
);
};
layerId = "C795FE6E-5B70-492A-8BF7-077E75598FB0";
metricWidth = "=880";
name = "May 8, 23 11:39";
shapes = (
{
closed = 1;
nodes = (
(844,-432,l),
(662,-184,o),
(542,144,o),
(542,508,cs),
(542,874,o),
(662,1200,o),
(844,1448,c),
(374,1448,l),
(222,1166,o),
(138,846,o),
(138,508,cs),
(138,170,o),
(222,-148,o),
(374,-432,c)
);
}
);
width = 880;
}
);
metricRight = A;
unicode = 40;
}
{
glyphname = asterisk;
kernLeft = asciicircum;
kernRight = asciicircum;
layers = (
{
background = {
shapes = (
{
attr = {
strokeHeight = 132;
strokeWidth = 140;
};
closed = 0;
nodes = (
(690,1238,l),
(400,1144,l)
);
},
{
attr = {
strokeHeight = 132;
strokeWidth = 140;
};
closed = 0;
nodes = (
(578,898,l),
(400,1144,l)
);
},
{
attr = {
strokeHeight = 132;
strokeWidth = 140;
};
closed = 0;
nodes = (
(110,1238,l),
(400,1144,l)
);
},
{
attr = {
strokeHeight = 132;
strokeWidth = 140;
};
closed = 0;
nodes = (
(400,1448,l),
(400,1144,l)
);
},
{
attr = {
strokeHeight = 132;
strokeWidth = 140;
};
closed = 0;
nodes = (
(222,898,l),
(400,1144,l)
);
}
);
};
layerId = m01;
shapes = (
{
closed = 1;
nodes = (
(400,1028,l),
(515,855,l),
(641,941,l),
(510,1110,l),
(714,1168,l),
(666,1308,l),
(470,1236,l),
(478,1448,l),
(322,1448,l),
(330,1236,l),
(134,1308,l),
(86,1168,l),
(290,1110,l),
(159,941,l),
(285,855,l)
);
}
);
width = 800;
},
{
background = {
shapes = (
{
attr = {
strokeHeight = 240;
strokeWidth = 256;
};
closed = 0;
nodes = (
(856,1174,l),
(480,1052,l)
);
},
{
attr = {
strokeHeight = 240;
strokeWidth = 256;
};
closed = 0;
nodes = (
(712,732,l),
(480,1052,l)
);
},
{
attr = {
strokeHeight = 240;
strokeWidth = 256;
};
closed = 0;
nodes = (
(104,1174,l),
(480,1052,l)
);
},
{
attr = {
strokeHeight = 240;
strokeWidth = 256;
};
closed = 0;
nodes = (
(248,732,l),
(480,1052,l)
);
},
{
attr = {
strokeHeight = 240;
strokeWidth = 256;
};
closed = 0;
nodes = (
(480,1448,l),
(480,1052,l)
);
}
);
};
layerId = "94F54C43-8AEE-4ED6-B3C2-2A9D33534E61";
shapes = (
{
closed = 1;
nodes = (
(480,840,l),
(602,658,l),
(822,808,l),
(680,990,l),
(898,1052,l),
(814,1296,l),
(608,1220,l),
(616,1448,l),
(344,1448,l),
(352,1220,l),
(146,1296,l),
(62,1052,l),
(280,990,l),
(138,808,l),
(358,658,l)
);
}
);
width = 960;
}
);
metricWidth = degree;
unicode = 42;
}
{
glyphname = comma;
layers = (
{
background = {
shapes = (
{
ref = period;
}
);
};
layerId = m01;
shapes = (
{
alignment = -1;
angle = 180;
pos = (428,1160);
ref = quoteleft;
}
);
width = 512;
},
{
background = {
shapes = (
{
ref = period;
},
{
closed = 1;
nodes = (
(188,208,l),
(56,-288,l),
(218,-288,l),
(368,208,l)
);
}
);
};
layerId = "94F54C43-8AEE-4ED6-B3C2-2A9D33534E61";
shapes = (
{
alignment = -1;
angle = 180;
pos = (612,1160);
ref = quoteleft;
}
);
width = 660;
}
);
metricWidth = period;
unicode = 44;
}
{
glyphname = hyphen;
layers = (
{
layerId = m01;
shapes = (
{
piece = {
Case = 0;
Tight = 0;
Width = 640;
};
ref = _smart.horizontalbar;
}
);
width = 880;
},
{
background = {
shapes = (
{
attr = {
strokeWidth = 352;
};
closed = 0;
nodes = (
(136,540,l),
(792,540,l)
);
}
);
};
layerId = "94F54C43-8AEE-4ED6-B3C2-2A9D33534E61";
shapes = (
{
piece = {
Width = 656;
};
ref = _smart.horizontalbar;
}
);
width = 928;
}
);
unicode = 45;
}
{
glyphname = period;
kernLeft = period;
kernRight = period;
layers = (
{
layerId = m01;
metricWidth = "=space";
shapes = (
{
closed = 1;
nodes = (
(330,-14,o),
(382,38,o),
(382,112,cs),
(382,186,o),
(330,238,o),
(256,238,cs),
(182,238,o),
(130,186,o),
(130,112,cs),
(130,38,o),
(182,-14,o),
(256,-14,cs)
);
}
);
width = 512;
},
{
layerId = "94F54C43-8AEE-4ED6-B3C2-2A9D33534E61";
metricWidth = "=space*1.375";
shapes = (
{
closed = 1;
nodes = (
(466,-28,o),
(568,70,o),
(568,202,cs),
(568,334,o),
(466,432,o),
(330,432,cs),
(192,432,o),
(92,334,o),
(92,202,cs),
(92,70,o),
(192,-28,o),
(330,-28,cs)
);
}
);
width = 660;
},
{
associatedMasterId = m01;
background = {
shapes = (
{
pos = (-10,-1374);
ref = dotaccentcomb;
scale = (1.1,1.1);
}
);
};
layerId = "FF7488F5-BAE8-4F45-9E5E-8BB68F215C2A";
metricRight = "=|period";
name = "dotaccent 110%";
shapes = (
{
closed = 1;
nodes = (
(304,0,o),
(356,52,o),
(356,126,cs),
(356,200,o),
(304,252,o),
(230,252,cs),
(156,252,o),
(104,200,o),
(104,126,cs),
(104,52,o),
(156,0,o),
(230,0,cs)
);
}
);
width = 460;
},
{
associatedMasterId = "94F54C43-8AEE-4ED6-B3C2-2A9D33534E61";
background = {
shapes = (
{
pos = (-4,-1194);
ref = dotaccentcomb;
scale = (1.05,1.05);
}
);
};
layerId = "23CB8E4F-10C4-4B1D-8492-3982A6A0AB04";
metricRight = "=|period";
name = "dotaccent 105%";
shapes = (
{
closed = 1;
nodes = (
(448,-2,o),
(550,96,o),
(550,228,cs),
(550,360,o),
(448,458,o),
(312,458,cs),
(174,458,o),
(74,360,o),
(74,228,cs),
(74,96,o),
(174,-2,o),
(312,-2,cs)
);
}
);
width = 624;
}
);
unicode = 46;
}
{
glyphname = slash;
kernLeft = slash;
kernRight = slash;
layers = (
{
background = {
shapes = (
{
attr = {
lineCapEnd = "4";
lineCapStart = "4";
strokeWidth = 164;
};
closed = 0;
nodes = (
(518,1448,l),
(84,-432,l)
);
}
);
};
layerId = m01;
metricLeft = "=0";
metricRight = "=|";
shapes = (
{
closed = 1;
nodes = (
(600,1448,l),
(432,1448,l),
(0,-432,l),
(168,-432,l)
);
}
);
width = 600;
},
{
background = {
shapes = (
{
attr = {
lineCapEnd = "4";
lineCapStart = "4";
strokeWidth = 352;
};
closed = 0;
nodes = (
(570,1448,l),
(180,-432,l)
);
}
);
};
layerId = "94F54C43-8AEE-4ED6-B3C2-2A9D33534E61";
metricLeft = "=0";
metricRight = "=|";
shapes = (
{
closed = 1;
nodes = (
(360,-432,l),
(750,1448,l),
(390,1448,l),
(0,-432,l)
);
}
);
width = 750;
}
);
unicode = 47;
}
{
color = 11;
glyphname = zero;
kernLeft = O;
kernRight = O;
layers = (
{
background = {
shapes = (
{
attr = {
strokeHeight = 168;
strokeWidth = 180;
};
closed = 1;
nodes = (
(914,56,o),
(1086,314,o),
(1086,724,cs),
(1086,1134,o),
(914,1392,o),
(640,1392,cs),
(366,1392,o),
(194,1134,o),
(194,724,cs),
(194,314,o),
(366,56,o),
(640,56,cs)
);
}
);
};
layerId = m01;
metricLeft = "=O*1.13";
metricRight = "=|";
name = Regular;
shapes = (
{
closed = 1;
nodes = (
(970,-28,o),
(1176,262,o),
(1176,724,cs),
(1176,1186,o),
(970,1476,o),
(640,1476,cs),
(310,1476,o),
(104,1186,o),
(104,724,cs),
(104,262,o),
(310,-28,o),
(640,-28,cs)
);
},
{
closed = 1;
nodes = (
(422,140,o),
(284,366,o),
(284,724,cs),
(284,1082,o),
(422,1308,o),
(640,1308,cs),
(858,1308,o),
(996,1082,o),
(996,724,cs),
(996,366,o),
(858,140,o),
(640,140,cs)
);
}
);
width = 1280;
},
{
associatedMasterId = m01;
layerId = "02C49471-4085-4A0F-9CDA-008DE671DF57";
name = "100%";
shapes = (
{
attr = {
strokeHeight = 168;
strokeWidth = 180;
};
closed = 1;
nodes = (
(1224,56,o),
(1506,342,o),
(1506,724,cs),
(1506,1106,o),
(1224,1392,o),
(844,1392,cs),
(464,1392,o),
(182,1106,o),
(182,724,cs),
(182,342,o),
(464,56,o),
(844,56,cs)
);
}
);
width = 1688;
},
{
associatedMasterId = m01;
layerId = "F0127859-3043-4123-8F5E-E1CE79482361";
metricLeft = "=O*1.13";
metricRight = "=|zero";
name = "67.5%";
shapes = (
{
attr = {
strokeHeight = 168;
strokeWidth = 180;
};
closed = 1;
nodes = (
(914,56,o),
(1086,314,o),
(1086,724,cs),
(1086,1134,o),
(914,1392,o),
(640,1392,cs),
(366,1392,o),
(194,1134,o),
(194,724,cs),
(194,314,o),
(366,56,o),
(640,56,cs)
);
}
);
width = 1280;
},
{
associatedMasterId = m01;
layerId = "9A261A80-C389-4746-8B74-9E1715A651C9";
metricLeft = "=O*1.13";
metricRight = "=|zero";
name = "San Francisco";
shapes = (
{
closed = 1;
nodes = (
(1014,-24,o),
(1164,336,o),
(1164,722,cs),
(1164,724,ls),
(1164,1108,o),
(1014,1468,o),
(632,1468,cs),
(248,1468,o),
(104,1104,o),
(104,724,cs),
(104,722,ls),
(104,338,o),
(252,-24,o),
(632,-24,cs)
);
},
{
closed = 1;
nodes = (
(364,134,o),
(284,448,o),
(284,722,cs),
(284,724,ls),
(284,1004,o),
(370,1310,o),
(632,1310,cs),
(902,1310,o),
(982,994,o),
(982,724,cs),
(982,722,ls),
(982,438,o),
(896,134,o),
(632,134,cs)
);
}
);
width = 1268;
},
{
background = {
shapes = (
{
attr = {
strokeHeight = 384;
strokeWidth = 404;
};
closed = 1;
nodes = (
(994,164,o),
(1166,380,o),
(1166,724,cs),
(1166,1068,o),
(994,1284,o),
(720,1284,cs),
(446,1284,o),
(274,1068,o),
(274,724,cs),
(274,380,o),
(446,164,o),
(720,164,cs)
);
}
);
};
layerId = "94F54C43-8AEE-4ED6-B3C2-2A9D33534E61";
metricLeft = "=O*1.2";
metricRight = "=|";
shapes = (
{
closed = 1;
nodes = (
(1118,-28,o),
(1368,262,o),
(1368,724,cs),
(1368,1186,o),
(1118,1476,o),
(720,1476,cs),
(322,1476,o),
(72,1186,o),
(72,724,cs),
(72,262,o),
(322,-28,o),
(720,-28,cs)
);
},
{
closed = 1;
nodes = (
(564,356,o),
(476,488,o),
(476,724,cs),
(476,960,o),
(564,1092,o),
(720,1092,cs),
(876,1092,o),
(964,960,o),
(964,724,cs),
(964,488,o),
(876,356,o),
(720,356,cs)
);
}
);
width = 1440;
},
{
associatedMasterId = "94F54C43-8AEE-4ED6-B3C2-2A9D33534E61";
layerId = "ED50F311-3F6E-44BD-B132-F8CAE1BD825A";
metricLeft = "=O*1.1";
metricRight = "=|zero";
name = "100%";
shapes = (
{
attr = {
strokeHeight = 384;
strokeWidth = 404;
};
closed = 1;
nodes = (
(1148,164,o),
(1388,404,o),
(1388,724,cs),
(1388,1044,o),
(1148,1284,o),
(828,1284,cs),
(508,1284,o),
(268,1044,o),
(268,724,cs),
(268,404,o),
(508,164,o),
(828,164,cs)
);
}
);
width = 1656;
},
{
associatedMasterId = "94F54C43-8AEE-4ED6-B3C2-2A9D33534E61";
layerId = "9DC251AE-D568-4C72-9154-23E4CCD80F4D";
metricLeft = "=O*1.1";
metricRight = "=|zero";
name = "80%";
shapes = (
{
attr = {
strokeHeight = 384;
strokeWidth = 404;
};
closed = 1;
nodes = (
(988,164,o),
(1160,380,o),
(1160,724,cs),
(1160,1068,o),
(988,1284,o),
(714,1284,cs),
(440,1284,o),
(268,1068,o),
(268,724,cs),
(268,380,o),
(440,164,o),
(714,164,cs)
);
}
);
width = 1428;
},
{
associatedMasterId = "94F54C43-8AEE-4ED6-B3C2-2A9D33534E61";
layerId = "27BF8C61-8241-434E-9BAA-CD27C7ECC228";
metricLeft = "=O*1.1";
metricRight = "=|zero";
name = "San Francisco";
shapes = (
{
closed = 1;
nodes = (
(1144,-26,o),
(1358,296,o),
(1358,722,cs),
(1358,724,ls),
(1358,1156,o),
(1138,1470,o),
(714,1470,cs),
(288,1470,o),
(66,1152,o),
(66,724,cs),
(66,722,ls),
(66,294,o),
(288,-26,o),
(714,-26,cs)
);
},
{
closed = 1;
nodes = (
(532,300,o),
(496,540,o),
(496,722,cs),
(496,724,ls),
(496,904,o),
(534,1144,o),
(714,1144,cs),
(894,1144,o),
(930,904,o),
(930,724,cs),
(930,722,ls),
(930,542,o),
(892,300,o),
(714,300,cs)
);
}
);
width = 1424;
}
);
unicode = 48;
}
{
glyphname = one;
layers = (
{
associatedMasterId = m01;
background = {
shapes = (
{
attr = {
strokeHeight = 168;
strokeWidth = 176;
};
closed = 0;
nodes = (
(616,0,l),
(616,1448,l)
);
},
{
attr = {
lineCapStart = "4";
strokeHeight = 168;
strokeWidth = 176;
};
closed = 0;
nodes = (
(528,1340,l),
(174,1068,l)
);
}
);
};
layerId = "7518C0B7-EAA1-4E2A-BC1B-02ACEFC63A4B";
metricLeft = "=|f*1.2";
metricRight = "=I*1.5";
name = "Avenir Base";
shapes = (
{
closed = 1;
nodes = (
(704,0,l),
(704,1448,l),
(528,1448,l),
(528,0,l)
);
},
{
closed = 1;
nodes = (
(528,1232,l),
(528,1448,l),
(120,1136,l),
(228,1002,l)
);
}
);
width = 914;
},
{
associatedMasterId = m01;
background = {
shapes = (
{
attr = {
strokeHeight = 168;
strokeWidth = 176;
};
closed = 0;
nodes = (
(582,0,l),
(582,1448,l)
);
},
{
attr = {
lineCapEnd = "4";
lineCapStart = "4";
strokeHeight = 168;
strokeWidth = 176;
};
closed = 0;
nodes = (
(494,1344,l),
(150,1104,l)
);
}
);
};
layerId = "948D6AB0-AE00-47CA-BA3F-21BBE3E770E5";
metricLeft = "=|f*1.5";
metricRight = "=I*1.5";
name = "San Francisco Base";
shapes = (
{
closed = 1;
nodes = (
(670,0,l),
(670,1448,l),
(494,1448,l),
(494,0,l)
);
},
{
closed = 1;
nodes = (
(494,1240,l),
(494,1448,l),
(150,1208,l),
(150,1000,l)
);
}
);
width = 880;
},
{
associatedMasterId = "94F54C43-8AEE-4ED6-B3C2-2A9D33534E61";
background = {
shapes = (
{
attr = {
strokeHeight = 384;
strokeWidth = 416;
};
closed = 0;
nodes = (
(762,0,l),
(762,1448,l)
);
},
{
attr = {
lineCapStart = "4";
strokeWidth = 384;
};
closed = 0;
nodes = (
(554,1202,l),
(210,930,l)
);
}
);
};
layerId = "7ECBA32E-0D93-4ABA-BC2E-771B8B8DC929";
metricLeft = "=|f*1.1";
metricRight = "=I*1.5";
name = "Avenir Base";
shapes = (
{
closed = 1;
nodes = (
(972,0,l),
(972,1448,l),
(556,1448,l),
(556,0,l)
);
},
{
closed = 1;
nodes = (
(556,958,l),
(556,1448,l),
(92,1082,l),
(330,780,l)
);
}
);
width = 1146;
},
{
associatedMasterId = "94F54C43-8AEE-4ED6-B3C2-2A9D33534E61";
background = {
shapes = (
{
attr = {
strokeHeight = 384;
strokeWidth = 416;
};
closed = 0;
nodes = (
(678,0,l),
(678,1448,l)
);
},
{
attr = {
lineCapEnd = "4";
lineCapStart = "4";
strokeWidth = 360;
};
closed = 0;
nodes = (
(470,1228,l),
(126,988,l)
);
}
);
};
layerId = "2A5D14AB-34FA-4792-BEFF-4BD682193A68";
metricLeft = "=|f*1.5";
metricRight = "=I*1.5";
name = "San Francisco Base";
shapes = (
{
closed = 1;
nodes = (
(886,0,l),
(886,1448,l),
(470,1448,l),
(470,0,l)
);
},
{
closed = 1;
nodes = (
(470,1009,l),
(470,1447,l),
(126,1207,l),
(126,769,l)
);
}
);
width = 1060;
},
{
associatedMasterId = m01;
background = {
shapes = (
{
attr = {
strokeHeight = 168;
strokeWidth = 176;
};
closed = 0;
nodes = (
(582,0,l),
(582,1448,l)
);
},
{
attr = {
lineCapEnd = "4";
lineCapStart = "4";
strokeHeight = 168;
strokeWidth = 176;
};
closed = 0;
nodes = (
(494,1334,l),
(380,1238,o),
(264,1158,o),
(150,1094,c)
);
}
);
};
layerId = "CFC86232-D083-4CD5-B3E9-D6ABF10DCD87";
metricLeft = "=|f*1.5";
metricRight = "=I*1.5";
name = "Univers Base";
shapes = (
{
closed = 1;
nodes = (
(670,0,l),
(670,1448,l),
(494,1448,l),
(494,0,l)
);
},
{
closed = 1;
nodes = (
(263,1057,o),
(381,1134,o),
(494,1223,c),
(494,1447,l),
(377,1343,o),
(263,1259,o),
(150,1192,c),
(150,997,l)
);
}
);
width = 880;
},
{
associatedMasterId = "94F54C43-8AEE-4ED6-B3C2-2A9D33534E61";
background = {
shapes = (
{
attr = {
strokeHeight = 384;
strokeWidth = 416;
};
closed = 0;
nodes = (
(678,0,l),
(678,1448,l)
);
},
{
attr = {
lineCapEnd = "4";
lineCapStart = "4";
strokeWidth = 360;
};
closed = 0;
nodes = (
(470,1206,l),
(356,1110,o),
(240,1030,o),
(126,966,c)
);
}
);
};
layerId = "3FC4B4A1-B5EC-4516-B413-1B7A3EF344F4";
metricLeft = "=|f*1.5";
metricRight = "=I*1.5";
name = "Univers Base";
shapes = (
{
closed = 1;
nodes = (
(886,0,l),
(886,1448,l),
(470,1448,l),
(470,0,l)
);
},
{
closed = 1;
nodes = (
(236,818,o),
(354,910,o),
(470,1008,c),
(470,1448,l),
(353,1336,o),
(240,1248,o),
(126,1176,c),
(126,762,l)
);
}
);
width = 1060;
},
{
background = {
shapes = (
{
attr = {
strokeHeight = 384;
strokeWidth = 416;
};
closed = 0;
nodes = (
(678,0,l),
(678,1448,l)
);
},
{
attr = {
lineCapEnd = "4";
lineCapStart = "4";
strokeWidth = 360;
};
closed = 0;
nodes = (
(470,1206,l),
(356,1110,o),
(240,1030,o),
(126,966,c)
);
}
);
};
layerId = "94F54C43-8AEE-4ED6-B3C2-2A9D33534E61";
metricLeft = "=|f*1.5";
metricRight = "=I*1.5";
name = Black;
shapes = (
{
closed = 1;
nodes = (
(886,0,l),
(886,1448,l),
(470,1448,l),
(470,0,l)
);
},
{
closed = 1;
nodes = (
(236,818,o),
(354,910,o),
(470,1008,c),
(470,1448,l),
(353,1336,o),
(240,1248,o),
(126,1176,c),
(126,762,l)
);
}
);
width = 1060;
},
{
background = {
shapes = (
{
attr = {
strokeHeight = 168;
strokeWidth = 176;
};
closed = 0;
nodes = (
(582,0,l),
(582,1448,l)
);
},
{
attr = {
lineCapEnd = "4";
lineCapStart = "4";
strokeHeight = 168;
strokeWidth = 176;
};
closed = 0;
nodes = (
(494,1334,l),
(380,1238,o),
(264,1158,o),
(150,1094,c)
);
}
);
};
layerId = m01;
metricLeft = "=|f*1.5";
metricRight = "=I*1.5";
name = Regular;
shapes = (
{
closed = 1;
nodes = (
(670,0,l),
(670,1448,l),
(494,1448,l),
(494,0,l)
);
},
{
closed = 1;
nodes = (
(263,1057,o),
(381,1134,o),
(494,1223,c),
(494,1447,l),
(377,1343,o),
(263,1259,o),
(150,1192,c),
(150,997,l)
);
}
);
width = 880;
}
);
unicode = 49;
}
{
glyphname = two;
kernLeft = two;
kernRight = two;
layers = (
{
background = {
shapes = (
{
attr = {
lineCapEnd = 3;
strokeHeight = 168;
strokeWidth = 180;
};
closed = 0;
nodes = (
(206,1142,l),
(288,1308,o),
(412,1392,o),
(582,1392,cs),
(798,1392,o),
(958,1258,o),
(958,1032,cs),
(958,750,o),
(708,458,o),
(220,124,c),
(220,84,l),
(990,84,l)
);
}
);
};
layerId = m01;
shapes = (
{
closed = 1;
nodes = (
(1072,0,l),
(1072,168,l),
(420,168,l),
(420,192,l),
(412,168,l),
(816,470,o),
(1050,748,o),
(1050,1032,cs),
(1050,1308,o),
(846,1476,o),
(584,1476,cs),
(372,1476,o),
(222,1368,o),
(128,1176,c),
(290,1102,l),
(360,1246,o),
(448,1308,o),
(584,1308,cs),
(754,1308,o),
(870,1210,o),
(870,1032,cs),
(870,788,o),
(638,516,o),
(128,168,c),
(128,0,l)
);
}
);
width = 1200;
},
{
associatedMasterId = m01;
background = {
shapes = (
{
attr = {
strokeHeight = 168;
strokeWidth = 180;
};
closed = 0;
nodes = (
(128,84,l),
(1072,84,l)
);
},
{
closed = 0;
nodes = (
(600,376,l),
(600,256,l)
);
},
{
attr = {
strokeHeight = 168;
strokeWidth = 180;
};
closed = 0;
nodes = (
(520,736,l),
(792,736,o),
(960,864,o),
(960,1062,cs),
(960,1260,o),
(800,1392,o),
(584,1392,cs),
(414,1392,o),
(290,1306,o),
(208,1138,c)
);
},
{
attr = {
strokeHeight = 168;
strokeWidth = 180;
};
closed = 1;
nodes = (
(806,736,o),
(960,870,o),
(960,1062,cs),
(960,1258,o),
(806,1392,o),
(584,1392,cs),
(362,1392,o),
(208,1258,o),
(208,1062,cs),
(208,870,o),
(362,736,o),
(584,736,cs)
);
}
);
};
layerId = "A965DE02-8A5E-49D4-82CF-0DB0654D1ECD";
name = Base;
width = 1200;
},
{
associatedMasterId = m01;
background = {
shapes = (
{
attr = {
strokeHeight = 168;
strokeWidth = 180;
};
closed = 0;
nodes = (
(208,1138,l),
(290,1306,o),
(410,1392,o),
(584,1392,cs),
(798,1392,o),
(960,1262,o),
(960,1062,cs),
(960,870,o),
(808,736,o),
(542,464,cs),
(218,134,l),
(218,84,l),
(1072,84,l)
);
}
);
};
layerId = "5E671D78-FC28-4821-91D2-89579710E9C4";
name = Straight;
shapes = (
{
closed = 1;
nodes = (
(1072,0,l),
(1072,168,l),
(382,168,l),
(382,192,l),
(374,168,l),
(606,406,ls),
(872,680,o),
(1050,832,o),
(1050,1062,cs),
(1050,1312,o),
(846,1476,o),
(584,1476,cs),
(372,1476,o),
(222,1368,o),
(128,1176,c),
(290,1102,l),
(360,1246,o),
(448,1308,o),
(584,1308,cs),
(750,1308,o),
(870,1216,o),
(870,1062,cs),
(870,908,o),
(744,794,o),
(478,524,cs),
(128,168,l),
(128,0,l)
);
}
);
width = 1200;
},
{
associatedMasterId = m01;
background = {
shapes = (
{
attr = {
strokeHeight = 168;
strokeWidth = 180;
};
closed = 0;
nodes = (
(208,1138,l),
(290,1306,o),
(410,1392,o),
(584,1392,cs),
(800,1392,o),
(960,1258,o),
(960,1032,cs),
(960,750,o),
(706,458,o),
(218,124,c),
(218,84,l),
(1072,84,l)
);
}
);
};
layerId = "1982D862-82F5-4C30-99C0-FF6CF74FDCCC";
name = Curve;
shapes = (
{
closed = 1;
nodes = (
(1072,0,l),
(1072,168,l),
(420,168,l),
(420,192,l),
(412,168,l),
(816,470,o),
(1050,748,o),
(1050,1032,cs),
(1050,1308,o),
(846,1476,o),
(584,1476,cs),
(372,1476,o),
(222,1368,o),
(128,1176,c),
(290,1102,l),
(360,1246,o),
(448,1308,o),
(584,1308,cs),
(754,1308,o),
(870,1210,o),
(870,1032,cs),
(870,788,o),
(638,516,o),
(128,168,c),
(128,0,l)
);
}
);
width = 1200;
},
{
associatedMasterId = m01;
background = {
shapes = (
{
closed = 1;
nodes = (
(1096,0,l),
(1096,160,l),
(332,160,l),
(386,110,l),
(386,222,l),
(332,110,l),
(730,520,ls),
(890,682,o),
(1070,860,o),
(1070,1070,cs),
(1070,1072,ls),
(1070,1318,o),
(862,1476,o),
(616,1476,cs),
(380,1476,o),
(128,1324,o),
(128,1032,c),
(304,1032,l),
(304,1038,ls),
(304,1196,o),
(438,1318,o),
(620,1318,cs),
(778,1318,o),
(890,1212,o),
(890,1064,cs),
(890,1062,ls),
(890,894,o),
(740,754,o),
(648,658,cs),
(138,124,l),
(138,0,l)
);
}
);
};
layerId = "31B16477-3A67-41D0-8487-6621B2F28851";
name = "San Francisco";
shapes = (
{
closed = 1;
nodes = (
(1096,0,l),
(1096,160,l),
(332,160,l),
(386,110,l),
(386,222,l),
(332,110,l),
(730,520,ls),
(890,682,o),
(1070,860,o),
(1070,1070,cs),
(1070,1072,ls),
(1070,1318,o),
(862,1476,o),
(616,1476,cs),
(380,1476,o),
(128,1324,o),
(128,1032,c),
(304,1032,l),
(304,1038,ls),
(304,1196,o),
(438,1318,o),
(620,1318,cs),
(778,1318,o),
(890,1212,o),
(890,1064,cs),
(890,1062,ls),
(890,894,o),
(740,754,o),
(648,658,cs),
(138,124,l),
(138,0,l)
);
}
);
width = 1240;
},
{
associatedMasterId = "94F54C43-8AEE-4ED6-B3C2-2A9D33534E61";
background = {
shapes = (
{
attr = {
strokeHeight = 384;
strokeWidth = 404;
};
closed = 0;
nodes = (
(554,652,l),
(588,652,ls),
(844,652,o),
(1002,764,o),
(1002,968,cs),
(1002,1154,o),
(868,1284,o),
(654,1284,cs),
(468,1284,o),
(332,1188,o),
(290,1032,c)
);
},
{
attr = {
strokeHeight = 384;
strokeWidth = 404;
};
closed = 1;
nodes = (
(868,652,o),
(1002,774,o),
(1002,968,cs),
(1002,1162,o),
(868,1284,o),
(654,1284,cs),
(440,1284,o),
(306,1162,o),
(306,968,cs),
(306,774,o),
(440,652,o),
(654,652,cs)
);
},
{
attr = {
strokeHeight = 360;
strokeWidth = 404;
};
closed = 0;
nodes = (
(120,180,l),
(1224,180,l)
);
}
);
};
layerId = "5D305865-6419-4D7E-9F6B-4CE3DBC6FD64";
name = Base;
width = 1320;
},
{
associatedMasterId = "94F54C43-8AEE-4ED6-B3C2-2A9D33534E61";
background = {
shapes = (
{
attr = {
lineCapEnd = "3";
strokeHeight = 360;
strokeWidth = 404;
};
closed = 0;
nodes = (
(322,180,l),
(1044,180,l)
);
},
{
attr = {
lineCapEnd = "3";
strokeHeight = 384;
strokeWidth = 404;
};
closed = 0;
nodes = (
(290,1032,l),
(332,1188,o),
(468,1284,o),
(654,1284,cs),
(868,1284,o),
(1002,1160,o),
(1002,976,cs),
(1002,854,o),
(940,750,o),
(826,656,cs),
(322,240,l),
(322,202,l)
);
}
);
};
layerId = "0C714FB8-364C-43FD-A93A-DD461F77D946";
name = Straight;
shapes = (
{
closed = 1;
nodes = (
(1224,0,l),
(1224,360,l),
(738,360,l),
(738,384,l),
(728,360,l),
(956,544,ls),
(1112,670,o),
(1204,782,o),
(1204,968,cs),
(1204,1230,o),
(1018,1476,o),
(654,1476,cs),
(362,1476,o),
(158,1318,o),
(96,1082,c),
(486,982,l),
(506,1064,o),
(566,1112,o),
(646,1112,cs),
(736,1112,o),
(800,1052,o),
(800,968,cs),
(800,910,o),
(770,864,o),
(698,804,cs),
(120,328,l),
(120,0,l)
);
}
);
width = 1320;
},
{
associatedMasterId = "94F54C43-8AEE-4ED6-B3C2-2A9D33534E61";
background = {
shapes = (
{
attr = {
lineCapEnd = "3";
strokeHeight = 384;
strokeWidth = 404;
};
closed = 0;
nodes = (
(290,1032,l),
(332,1188,o),
(468,1284,o),
(654,1284,cs),
(868,1284,o),
(1002,1160,o),
(1002,976,cs),
(1002,730,o),
(762,484,o),
(322,240,c),
(322,202,l)
);
},
{
attr = {
lineCapEnd = "3";
strokeHeight = 360;
strokeWidth = 404;
};
closed = 0;
nodes = (
(322,180,l),
(1044,180,l)
);
}
);
};
layerId = "14830F52-75DE-4E15-BAB7-EEFE88FF04BE";
name = Curve;
shapes = (
{
closed = 1;
nodes = (
(1224,0,l),
(1224,360,l),
(746,360,l),
(746,384,l),
(738,360,l),
(1076,550,o),
(1204,752,o),
(1204,968,cs),
(1204,1230,o),
(1018,1476,o),
(654,1476,cs),
(362,1476,o),
(158,1318,o),
(96,1082,c),
(486,982,l),
(506,1064,o),
(564,1112,o),
(646,1112,cs),
(740,1112,o),
(800,1048,o),
(800,952,cs),
(800,778,o),
(600,606,o),
(120,352,c),
(120,0,l)
);
}
);
width = 1320;
},
{
associatedMasterId = "94F54C43-8AEE-4ED6-B3C2-2A9D33534E61";
background = {
shapes = (
{
closed = 1;
nodes = (
(136,0,l),
(1250,0,l),
(1250,322,l),
(564,322,l),
(680,246,l),
(680,426,l),
(564,246,l),
(878,510,ls),
(1050,654,o),
(1232,828,o),
(1232,1040,cs),
(1232,1342,o),
(972,1476,o),
(682,1476,cs),
(458,1476,o),
(110,1374,o),
(110,978,c),
(484,978,l),
(484,1114,o),
(580,1164,o),
(668,1164,cs),
(742,1164,o),
(834,1136,o),
(834,1008,cs),
(834,896,o),
(636,730,o),
(564,668,cs),
(136,280,l)
);
}
);
};
layerId = "021A8C37-30D7-450B-989E-4409E3F07836";
name = "San Francisco";
shapes = (
{
closed = 1;
nodes = (
(136,0,l),
(1250,0,l),
(1250,322,l),
(564,322,l),
(680,246,l),
(680,426,l),
(564,246,l),
(878,510,ls),
(1050,654,o),
(1232,828,o),
(1232,1040,cs),
(1232,1342,o),
(972,1476,o),
(682,1476,cs),
(458,1476,o),
(110,1374,o),
(110,978,c),
(484,978,l),
(484,1114,o),
(580,1164,o),
(668,1164,cs),
(742,1164,o),
(834,1136,o),
(834,1008,cs),
(834,896,o),
(636,730,o),
(564,668,cs),
(136,280,l)
);
}
);
width = 1360;
},
{
background = {
shapes = (
{
attr = {
lineCapEnd = "3";
strokeHeight = 384;
strokeWidth = 404;
};
closed = 0;
nodes = (
(290,1032,l),
(332,1188,o),
(468,1284,o),
(654,1284,cs),
(868,1284,o),
(1002,1160,o),
(1002,976,cs),
(1002,730,o),
(762,484,o),
(322,240,c),
(322,202,l)
);
},
{
attr = {
lineCapEnd = "3";
strokeHeight = 360;
strokeWidth = 404;
};
closed = 0;
nodes = (
(322,180,l),
(1044,180,l)
);
}
);
};
layerId = "94F54C43-8AEE-4ED6-B3C2-2A9D33534E61";
name = Black;
shapes = (
{
closed = 1;
nodes = (
(1224,0,l),
(1224,360,l),
(746,360,l),
(746,384,l),
(738,360,l),
(1076,550,o),
(1204,752,o),
(1204,968,cs),
(1204,1230,o),
(1018,1476,o),
(654,1476,cs),
(362,1476,o),
(158,1318,o),
(96,1082,c),
(486,982,l),
(506,1064,o),
(564,1112,o),
(646,1112,cs),
(740,1112,o),
(800,1048,o),
(800,952,cs),
(800,778,o),
(600,606,o),
(120,352,c),
(120,0,l)
);
}
);
width = 1320;
}
);
unicode = 50;
}
{
glyphname = three;
layers = (
{
background = {
shapes = (
{
attr = {
lineCapEnd = 4;
strokeHeight = 168;
strokeWidth = 176;
};
closed = 0;
nodes = (
(164,1364,l),
(1080,1364,l)
);
},
{
attr = {
lineCapEnd = 4;
lineCapStart = 4;
strokeHeight = 168;
strokeWidth = 176;
};
closed = 0;
nodes = (
(960,1280,l),
(590,876,l)
);
},
{
attr = {
lineCapEnd = 3;
strokeHeight = 168;
strokeWidth = 180;
};
closed = 0;
nodes = (
(184,346,l),
(276,156,o),
(424,56,o),
(622,56,cs),
(870,56,o),
(1046,210,o),
(1046,432,cs),
(1046,660,o),
(858,808,o),
(558,808,c)
);
}
);
};
layerId = m01;
name = Regular;
shapes = (
{
closed = 1;
nodes = (
(918,-28,o),
(1136,158,o),
(1136,424,cs),
(1136,696,o),
(904,876,o),
(558,876,cs),
(474,876,l),
(474,724,l),
(558,724,ls),
(802,724,o),
(956,612,o),
(956,432,cs),
(956,260,o),
(818,140,o),
(622,140,cs),
(462,140,o),
(346,218,o),
(266,384,c),
(104,310,l),
(208,94,o),
(388,-28,o),
(622,-28,cs)
);
},
{
closed = 1;
nodes = (
(1080,1280,l),
(844,1280,l),
(474,876,l),
(660,844,l)
);
},
{
closed = 1;
nodes = (
(844,1280,l),
(1080,1280,l),
(1080,1448,l),
(164,1448,l),
(164,1280,l)
);
}
);
width = 1240;
},
{
associatedMasterId = m01;
background = {
shapes = (
{
closed = 1;
nodes = (
(920,-28,o),
(1132,146,o),
(1132,398,cs),
(1132,640,o),
(934,796,o),
(618,796,cs),
(302,796,o),
(104,640,o),
(104,398,cs),
(104,146,o),
(316,-28,o),
(618,-28,cs)
);
},
{
closed = 1;
nodes = (
(422,140,o),
(284,250,o),
(284,408,cs),
(284,566,o),
(422,676,o),
(618,676,cs),
(814,676,o),
(952,566,o),
(952,408,cs),
(952,250,o),
(814,140,o),
(618,140,cs)
);
},
{
closed = 1;
nodes = (
(900,732,o),
(1076,866,o),
(1076,1086,cs),
(1076,1314,o),
(886,1476,o),
(618,1476,cs),
(350,1476,o),
(160,1314,o),
(160,1086,cs),
(160,866,o),
(336,732,o),
(618,732,cs)
);
},
{
closed = 1;
nodes = (
(454,844,o),
(338,940,o),
(338,1076,cs),
(338,1212,o),
(454,1308,o),
(618,1308,cs),
(784,1308,o),
(900,1212,o),
(900,1076,cs),
(900,940,o),
(784,844,o),
(618,844,cs)
);
}
);
};
layerId = "582A4BA9-BF08-4DE9-AE34-41C83243504E";
name = "Apr 19, 23 10:47";
shapes = (
{
closed = 1;
nodes = (
(920,-28,o),
(1132,146,o),
(1132,398,cs),
(1132,640,o),
(934,796,o),
(572,796,cs),
(524,796,l),
(524,676,l),
(572,676,ls),
(814,676,o),
(952,566,o),
(952,408,cs),
(952,250,o),
(814,140,o),
(618,140,cs),
(422,140,o),
(284,250,o),
(284,408,c),
(304,408,l),
(84,408,l),
(104,408,l),
(104,146,o),
(316,-28,o),
(618,-28,cs)
);
},
{
closed = 1;
nodes = (
(572,732,ls),
(900,732,o),
(1076,866,o),
(1076,1086,cs),
(1076,1314,o),
(886,1476,o),
(618,1476,cs),
(350,1476,o),
(160,1314,o),
(160,1076,c),
(140,1076,l),
(358,1076,l),
(338,1076,l),
(338,1212,o),
(452,1308,o),
(618,1308,cs),
(784,1308,o),
(900,1212,o),
(900,1076,cs),
(900,940,o),
(784,844,o),
(572,844,cs),
(524,844,l),
(524,732,l)
);
}
);
width = 1236;
},
{
associatedMasterId = m01;
background = {
shapes = (
{
attr = {
lineCapEnd = 4;
strokeHeight = 168;
strokeWidth = 176;
};
closed = 0;
nodes = (
(164,1364,l),
(1080,1364,l)
);
},
{
attr = {
lineCapEnd = 4;
lineCapStart = 4;
strokeHeight = 168;
strokeWidth = 176;
};
closed = 0;
nodes = (
(960,1280,l),
(590,876,l)
);
},
{
attr = {
lineCapEnd = 3;
strokeHeight = 168;
strokeWidth = 180;
};
closed = 0;
nodes = (
(184,346,l),
(276,156,o),
(424,56,o),
(622,56,cs),
(870,56,o),
(1046,210,o),
(1046,432,cs),
(1046,660,o),
(858,808,o),
(558,808,c)
);
}
);
};
layerId = "346702C0-602A-4CA0-93BF-6BE8C45FCEED";
name = "Apr 19, 23 22:09";
shapes = (
{
closed = 1;
nodes = (
(918,-28,o),
(1136,158,o),
(1136,424,cs),
(1136,696,o),
(904,876,o),
(558,876,cs),
(474,876,l),
(474,724,l),
(558,724,ls),
(802,724,o),
(956,612,o),
(956,432,cs),
(956,260,o),
(818,140,o),
(622,140,cs),
(462,140,o),
(346,218,o),
(266,384,c),
(104,310,l),
(208,94,o),
(388,-28,o),
(622,-28,cs)
);
},
{
closed = 1;
nodes = (
(1080,1280,l),
(844,1280,l),
(474,876,l),
(660,844,l)
);
},
{
closed = 1;
nodes = (
(1080,1280,l),
(1080,1448,l),
(164,1448,l),
(164,1280,l)
);
}
);
width = 1240;
},
{
background = {
shapes = (
{
attr = {
lineCapEnd = "4";
strokeHeight = 360;
strokeWidth = 404;
};
closed = 0;
nodes = (
(182,1268,l),
(1232,1268,l)
);
},
{
attr = {
lineCapEnd = "4";
lineCapStart = 4;
strokeHeight = 384;
strokeWidth = 404;
};
closed = 0;
nodes = (
(1232,1340,l),
(516,754,l)
);
},
{
attr = {
strokeHeight = 384;
strokeWidth = 404;
};
closed = 0;
nodes = (
(262,408,l),
(320,236,o),
(488,164,o),
(690,164,cs),
(934,164,o),
(1086,294,o),
(1086,484,cs),
(1086,690,o),
(904,804,o),
(610,804,cs),
(516,804,l)
);
},
{
closed = 0;
nodes = (
(-28,316,l),
(482,478,l)
);
}
);
};
layerId = "94F54C43-8AEE-4ED6-B3C2-2A9D33534E61";
name = Black;
shapes = (
{
closed = 1;
nodes = (
(1082,-28,o),
(1288,192,o),
(1288,432,cs),
(1288,694,o),
(1046,892,o),
(610,892,cs),
(516,892,l),
(516,612,l),
(610,612,ls),
(786,612,o),
(884,556,o),
(884,464,cs),
(884,384,o),
(810,316,o),
(690,316,cs),
(574,316,o),
(476,380,o),
(454,470,c),
(72,348,l),
(150,114,o),
(376,-28,o),
(690,-28,cs)
);
},
{
closed = 1;
nodes = (
(1232,1072,l),
(748,1088,l),
(516,892,l),
(890,786,l)
);
},
{
closed = 1;
nodes = (
(748,1088,l),
(1232,1072,l),
(1232,1448,l),
(182,1448,l),
(182,1088,l)
);
}
);
width = 1360;
},
{
associatedMasterId = "94F54C43-8AEE-4ED6-B3C2-2A9D33534E61";
background = {
shapes = (
{
closed = 1;
nodes = (
(1036,-28,o),
(1288,142,o),
(1288,396,cs),
(1288,642,o),
(1056,804,o),
(680,804,cs),
(308,804,o),
(72,642,o),
(72,396,cs),
(72,142,o),
(324,-28,o),
(680,-28,cs)
);
},
{
closed = 1;
nodes = (
(570,276,o),
(492,348,o),
(492,448,cs),
(492,548,o),
(570,620,o),
(680,620,cs),
(790,620,o),
(868,548,o),
(868,448,cs),
(868,348,o),
(790,276,o),
(680,276,cs)
);
},
{
closed = 1;
nodes = (
(1028,708,o),
(1248,856,o),
(1248,1084,cs),
(1248,1318,o),
(1014,1476,o),
(680,1476,cs),
(346,1476,o),
(112,1318,o),
(112,1084,cs),
(112,856,o),
(332,708,o),
(680,708,cs)
);
},
{
closed = 1;
nodes = (
(590,892,o),
(526,950,o),
(526,1032,cs),
(526,1114,o),
(590,1172,o),
(680,1172,cs),
(770,1172,o),
(834,1114,o),
(834,1032,cs),
(834,950,o),
(770,892,o),
(680,892,cs)
);
}
);
};
layerId = "0C3B1D8B-89CC-4C69-82C0-218C1C9777EE";
name = "Apr 19, 23 22:20";
shapes = (
{
closed = 1;
nodes = (
(1036,-28,o),
(1288,142,o),
(1288,396,cs),
(1288,650,o),
(1034,804,o),
(624,804,cs),
(576,804,l),
(576,620,l),
(624,620,ls),
(774,620,o),
(868,556,o),
(868,448,cs),
(868,350,o),
(790,276,o),
(680,276,cs),
(570,276,o),
(492,348,o),
(492,448,c),
(72,448,l),
(72,142,o),
(324,-28,o),
(680,-28,cs)
);
},
{
closed = 1;
nodes = (
(624,708,ls),
(1006,708,o),
(1248,848,o),
(1248,1084,cs),
(1248,1318,o),
(1014,1476,o),
(680,1476,cs),
(346,1476,o),
(112,1318,o),
(112,1032,c),
(526,1032,l),
(526,1114,o),
(590,1172,o),
(680,1172,cs),
(770,1172,o),
(834,1112,o),
(834,1032,cs),
(834,944,o),
(754,892,o),
(624,892,cs),
(576,892,l),
(576,708,l)
);
}
);
width = 1360;
},
{
associatedMasterId = "94F54C43-8AEE-4ED6-B3C2-2A9D33534E61";
background = {
shapes = (
{
attr = {
lineCapEnd = "4";
strokeHeight = 360;
strokeWidth = 404;
};
closed = 0;
nodes = (
(182,1268,l),
(1232,1268,l)
);
},
{
attr = {
lineCapEnd = "4";
lineCapStart = 4;
strokeHeight = 384;
strokeWidth = 404;
};
closed = 0;
nodes = (
(1232,1322,l),
(516,724,l)
);
},
{
attr = {
strokeHeight = 384;
strokeWidth = 404;
};
closed = 0;
nodes = (
(262,408,l),
(320,236,o),
(488,164,o),
(690,164,cs),
(934,164,o),
(1086,294,o),
(1086,484,cs),
(1086,690,o),
(904,804,o),
(610,804,cs),
(516,804,l)
);
},
{
closed = 0;
nodes = (
(-28,316,l),
(482,478,l)
);
}
);
};
layerId = "3EF7575D-3B18-4F5F-ACF2-1372B2C7A897";
name = "Apr 19, 23 22:26";
shapes = (
{
closed = 1;
nodes = (
(1082,-28,o),
(1288,192,o),
(1288,432,cs),
(1288,694,o),
(1046,892,o),
(610,892,cs),
(516,892,l),
(516,612,l),
(610,612,ls),
(786,612,o),
(884,556,o),
(884,464,cs),
(884,384,o),
(810,316,o),
(690,316,cs),
(574,316,o),
(476,380,o),
(454,470,c),
(72,348,l),
(150,114,o),
(376,-28,o),
(690,-28,cs)
);
},
{
closed = 1;
nodes = (
(1232,1072,l),
(748,1088,l),
(516,892,l),
(890,786,l)
);
},
{
closed = 1;
nodes = (
(748,1088,l),
(1232,1072,l),
(1232,1448,l),
(182,1448,l),
(182,1088,l)
);
}
);
width = 1360;
}
);
metricLeft = eight;
metricRight = eight;
unicode = 51;
}
{
glyphname = six;
layers = (
{
associatedMasterId = m01;
background = {
annotations = (
{
pos = (500,1572);
text = "위아래 절반, 97.5%";
type = Text;
},
{
pos = (682,416);
text = "110%";
type = Text;
}
);
};
layerId = "BBBE73EA-DA5F-46ED-AB9B-63DE20E688E8";
name = Base;
shapes = (
{
attr = {
strokeHeight = 168;
strokeWidth = 180;
};
closed = 1;
nodes = (
(826,712,o),
(988,852,o),
(988,1052,cs),
(988,1252,o),
(826,1392,o),
(600,1392,cs),
(374,1392,o),
(216,1252,o),
(216,1052,cs),
(216,852,o),
(374,712,o),
(600,712,cs)
);
},
{
attr = {
strokeHeight = 168;
strokeWidth = 180;
};
closed = 1;
nodes = (
(840,56,o),
(1010,222,o),
(1010,456,cs),
(1010,690,o),
(840,856,o),
(602,856,cs),
(364,856,o),
(194,690,o),
(194,456,cs),
(194,222,o),
(364,56,o),
(602,56,cs)
);
}
);
width = 1204;
},
{
annotations = (
{
pos = (1034,856);
text = "91.25%";
type = Text;
}
);
associatedMasterId = m01;
background = {
annotations = (
{
pos = (500,1572);
text = "위아래 절반, 97.5%";
type = Text;
},
{
pos = (682,416);
text = "110%";
type = Text;
}
);
shapes = (
{
attr = {
strokeHeight = 168;
strokeWidth = 180;
};
closed = 1;
nodes = (
(876,56,o),
(1046,222,o),
(1046,456,cs),
(1046,690,o),
(876,856,o),
(638,856,cs),
(400,856,o),
(230,690,o),
(230,456,cs),
(230,222,o),
(398,56,o),
(638,56,cs)
);
},
{
attr = {
strokeHeight = 168;
strokeWidth = 180;
};
closed = 0;
nodes = (
(1024,1052,l),
(1024,1242,o),
(864,1392,o),
(640,1392,cs),
(354,1392,o),
(194,1140,o),
(194,690,cs),
(194,284,o),
(354,56,o),
(638,56,c)
);
}
);
};
layerId = "69C571A9-7987-4527-902C-0588EDF56084";
name = "0";
shapes = (
{
closed = 1;
nodes = (
(638,12,l),
(372,12,o),
(284,242,o),
(284,690,cs),
(284,1104,o),
(418,1308,o),
(640,1308,cs),
(816,1308,o),
(934,1196,o),
(934,1052,c),
(914,1052,l),
(1134,1052,l),
(1114,1052,l),
(1114,1290,o),
(914,1476,o),
(640,1476,cs),
(290,1476,o),
(104,1176,o),
(104,690,cs),
(104,248,o),
(294,-28,o),
(638,-28,c)
);
},
{
closed = 1;
nodes = (
(930,-28,o),
(1136,172,o),
(1136,456,cs),
(1136,742,o),
(924,940,o),
(674,940,cs),
(416,940,o),
(212,728,o),
(212,456,cs),
(212,172,o),
(398,-28,o),
(638,-28,cs)
);
},
{
closed = 1;
nodes = (
(452,140,o),
(320,270,o),
(320,456,cs),
(320,642,o),
(452,772,o),
(638,772,cs),
(824,772,o),
(956,642,o),
(956,456,cs),
(956,270,o),
(824,140,o),
(638,140,cs)
);
}
);
width = 1240;
},
{
annotations = (
{
pos = (1034,856);
text = "91.25%";
type = Text;
}
);
associatedMasterId = m01;
background = {
annotations = (
{
pos = (500,1572);
text = "위아래 절반, 97.5%";
type = Text;
},
{
pos = (682,416);
text = "110%";
type = Text;
}
);
shapes = (
{
attr = {
strokeHeight = 168;
strokeWidth = 180;
};
closed = 1;
nodes = (
(876,56,o),
(1046,222,o),
(1046,456,cs),
(1046,690,o),
(876,856,o),
(638,856,cs),
(400,856,o),
(230,690,o),
(230,456,cs),
(230,222,o),
(398,56,o),
(638,56,cs)
);
},
{
attr = {
strokeHeight = 168;
strokeWidth = 180;
};
closed = 0;
nodes = (
(1062,1106,l),
(974,1302,o),
(832,1392,o),
(654,1392,cs),
(364,1392,o),
(194,1140,o),
(194,690,cs),
(194,284,o),
(354,56,o),
(638,56,c)
);
}
);
};
layerId = "3EE3BEC5-B05D-4D15-8E32-63089D81DAC6";
metricRight = "=zero-8";
name = "1";
shapes = (
{
closed = 1;
nodes = (
(930,-28,o),
(1136,170,o),
(1136,456,cs),
(1136,740,o),
(934,940,o),
(674,940,cs),
(412,940,o),
(212,740,o),
(212,456,c),
(284,690,l),
(284,1102,o),
(420,1308,o),
(654,1308,cs),
(788,1308,o),
(906,1240,o),
(980,1072,c),
(1144,1140,l),
(1044,1366,o),
(868,1476,o),
(654,1476,cs),
(302,1476,o),
(104,1178,o),
(104,708,cs),
(104,248,o),
(294,-28,o),
(638,-28,cs)
);
},
{
closed = 1;
nodes = (
(452,140,o),
(320,270,o),
(320,456,cs),
(320,642,o),
(452,772,o),
(638,772,cs),
(824,772,o),
(956,642,o),
(956,456,cs),
(956,270,o),
(824,140,o),
(638,140,cs)
);
}
);
width = 1240;
},
{
annotations = (
{
pos = (1034,856);
text = "91.25%";
type = Text;
}
);
associatedMasterId = m01;
background = {
annotations = (
{
pos = (500,1572);
text = "위아래 절반, 97.5%";
type = Text;
},
{
pos = (682,416);
text = "110%";
type = Text;
}
);
shapes = (
{
attr = {
strokeHeight = 168;
strokeWidth = 180;
};
closed = 1;
nodes = (
(876,56,o),
(1046,222,o),
(1046,456,cs),
(1046,690,o),
(876,856,o),
(638,856,cs),
(400,856,o),
(230,690,o),
(230,456,cs),
(230,222,o),
(398,56,o),
(638,56,cs)
);
},
{
attr = {
strokeHeight = 168;
strokeWidth = 180;
};
closed = 0;
nodes = (
(1028,1218,l),
(950,1330,o),
(828,1392,o),
(688,1392,cs),
(404,1392,o),
(194,1148,o),
(194,690,cs),
(194,292,o),
(354,56,o),
(638,56,c)
);
}
);
};
layerId = "AC315E71-9122-4006-9ABF-5527E4318DFA";
name = "2";
shapes = (
{
closed = 1;
nodes = (
(930,-28,o),
(1136,170,o),
(1136,456,cs),
(1136,740,o),
(934,940,o),
(674,940,cs),
(412,940,o),
(212,740,o),
(212,456,c),
(284,690,l),
(284,1100,o),
(458,1308,o),
(688,1308,cs),
(794,1308,o),
(888,1264,o),
(954,1170,c),
(1102,1266,l),
(1010,1398,o),
(864,1476,o),
(688,1476,cs),
(350,1476,o),
(104,1190,o),
(104,690,cs),
(104,250,o),
(294,-28,o),
(638,-28,cs)
);
},
{
closed = 1;
nodes = (
(452,140,o),
(320,270,o),
(320,456,cs),
(320,642,o),
(452,772,o),
(638,772,cs),
(824,772,o),
(956,642,o),
(956,456,cs),
(956,270,o),
(824,140,o),
(638,140,cs)
);
}
);
width = 1240;
},
{
annotations = (
{
pos = (1034,856);
text = "91.25%";
type = Text;
}
);
associatedMasterId = m01;
background = {
annotations = (
{
pos = (500,1572);
text = "위아래 절반, 97.5%";
type = Text;
},
{
pos = (682,416);
text = "110%";
type = Text;
}
);
shapes = (
{
attr = {
strokeHeight = 168;
strokeWidth = 180;
};
closed = 1;
nodes = (
(876,56,o),
(1046,222,o),
(1046,456,cs),
(1046,690,o),
(876,856,o),
(638,856,cs),
(400,856,o),
(230,690,o),
(230,456,cs),
(230,222,o),
(398,56,o),
(638,56,cs)
);
},
{
attr = {
strokeHeight = 168;
strokeWidth = 180;
};
closed = 0;
nodes = (
(1026,1262,l),
(940,1342,o),
(826,1392,o),
(694,1392,cs),
(404,1392,o),
(194,1140,o),
(194,690,cs),
(194,284,o),
(354,56,o),
(638,56,c)
);
}
);
};
layerId = "F2BC5404-CE4A-49EF-A685-6016ABE457B9";
name = "3";
shapes = (
{
closed = 1;
nodes = (
(930,-28,o),
(1136,170,o),
(1136,456,cs),
(1136,740,o),
(934,940,o),
(674,940,cs),
(412,940,o),
(212,740,o),
(212,456,c),
(284,690,l),
(284,1098,o),
(460,1308,o),
(694,1308,cs),
(794,1308,o),
(890,1270,o),
(964,1200,c),
(1088,1324,l),
(988,1416,o),
(850,1476,o),
(694,1476,cs),
(348,1476,o),
(104,1188,o),
(104,690,cs),
(104,250,o),
(294,-28,o),
(638,-28,cs)
);
},
{
closed = 1;
nodes = (
(452,140,o),
(320,270,o),
(320,456,cs),
(320,642,o),
(452,772,o),
(638,772,cs),
(824,772,o),
(956,642,o),
(956,456,cs),
(956,270,o),
(824,140,o),
(638,140,cs)
);
}
);
width = 1240;
},
{
associatedMasterId = m01;
background = {
annotations = (
{
pos = (500,1572);
text = "위아래 절반, 97.5%";
type = Text;
},
{
pos = (682,416);
text = "110%";
type = Text;
}
);
};
layerId = "FBA1BCEE-AF66-4E52-9B43-657F3778972C";
name = "San Francisco";
shapes = (
{
closed = 1;
nodes = (
(926,-28,o),
(1152,170,o),
(1152,462,cs),
(1152,806,o),
(882,948,o),
(670,948,cs),
(462,948,o),
(318,836,o),
(264,714,c),
(242,714,l),
(242,468,l),
(304,468,l),
(304,656,o),
(448,790,o),
(638,790,cs),
(784,790,o),
(968,698,o),
(968,462,cs),
(968,282,o),
(826,132,o),
(636,132,cs),
(452,132,o),
(304,276,o),
(304,468,c),
(260,706,l),
(260,726,ls),
(260,984,o),
(346,1314,o),
(648,1314,cs),
(770,1314,o),
(892,1268,o),
(948,1108,c),
(1132,1108,l),
(1066,1396,o),
(832,1476,o),
(650,1476,cs),
(300,1476,o),
(84,1198,o),
(84,696,cs),
(84,306,o),
(256,-28,o),
(638,-28,cs)
);
}
);
width = 1276;
},
{
associatedMasterId = "94F54C43-8AEE-4ED6-B3C2-2A9D33534E61";
background = {
shapes = (
{
attr = {
strokeHeight = 384;
strokeWidth = 404;
};
closed = 1;
nodes = (
(976,164,o),
(1124,278,o),
(1124,462,cs),
(1124,646,o),
(976,760,o),
(738,760,cs),
(502,760,o),
(354,646,o),
(354,462,cs),
(354,278,o),
(502,164,o),
(738,164,cs)
);
},
{
attr = {
strokeHeight = 364;
strokeWidth = 404;
};
closed = 0;
nodes = (
(738,154,l),
(450,154,o),
(290,348,o),
(290,694,cs),
(290,1078,o),
(446,1294,o),
(738,1294,cs),
(906,1294,o),
(1066,1220,o),
(1118,1046,c)
);
}
);
};
layerId = "0BC270F0-2794-4E14-BE37-EDE5BE48891F";
name = "1";
shapes = (
{
closed = 1;
nodes = (
(1116,-28,o),
(1342,190,o),
(1342,478,cs),
(1342,750,o),
(1144,952,o),
(862,952,cs),
(580,952,o),
(382,750,o),
(382,462,c),
(476,694,l),
(476,974,o),
(564,1112,o),
(740,1112,cs),
(842,1112,o),
(918,1066,o),
(942,992,c),
(1326,1100,l),
(1258,1324,o),
(1038,1476,o),
(740,1476,cs),
(334,1476,o),
(72,1196,o),
(72,718,cs),
(72,262,o),
(306,-28,o),
(740,-28,cs)
);
},
{
closed = 1;
nodes = (
(624,292,o),
(542,368,o),
(542,474,cs),
(542,580,o),
(624,656,o),
(740,656,cs),
(856,656,o),
(938,580,o),
(938,474,cs),
(938,368,o),
(856,292,o),
(740,292,cs)
);
}
);
width = 1414;
},
{
associatedMasterId = "94F54C43-8AEE-4ED6-B3C2-2A9D33534E61";
background = {
shapes = (
{
attr = {
strokeHeight = 384;
strokeWidth = 404;
};
closed = 0;
nodes = (
(1108,1166,l),
(1020,1242,o),
(904,1284,o),
(774,1284,cs),
(480,1284,o),
(274,1082,o),
(274,694,cs),
(274,364,o),
(430,164,o),
(710,164,c)
);
},
{
attr = {
strokeHeight = 384;
strokeWidth = 404;
};
closed = 1;
nodes = (
(942,164,o),
(1086,282,o),
(1086,470,cs),
(1086,658,o),
(942,776,o),
(710,776,cs),
(480,776,o),
(334,658,o),
(334,470,cs),
(334,282,o),
(480,164,o),
(710,164,cs)
);
}
);
};
layerId = "BC48EE44-C39B-481A-AB1F-188BCFA8F04C";
name = "3";
shapes = (
{
closed = 1;
nodes = (
(1054,-28,o),
(1288,178,o),
(1288,486,cs),
(1288,762,o),
(1098,968,o),
(826,968,cs),
(554,968,o),
(364,762,o),
(364,470,c),
(476,694,l),
(476,950,o),
(582,1092,o),
(774,1092,cs),
(852,1092,o),
(920,1068,o),
(976,1020,c),
(1240,1312,l),
(1116,1418,o),
(960,1476,o),
(774,1476,cs),
(354,1476,o),
(72,1186,o),
(72,702,cs),
(72,262,o),
(304,-28,o),
(710,-28,cs)
);
},
{
closed = 1;
nodes = (
(618,336,o),
(552,400,o),
(552,490,cs),
(552,580,o),
(618,644,o),
(710,644,cs),
(802,644,o),
(868,580,o),
(868,490,cs),
(868,400,o),
(802,336,o),
(710,336,cs)
);
}
);
width = 1360;
},
{
background = {
shapes = (
{
attr = {
strokeHeight = 384;
strokeWidth = 404;
};
closed = 0;
nodes = (
(1108,1166,l),
(1020,1242,o),
(904,1284,o),
(774,1284,cs),
(480,1284,o),
(274,1082,o),
(274,694,cs),
(274,364,o),
(430,164,o),
(710,164,c)
);
},
{
attr = {
strokeHeight = 384;
strokeWidth = 404;
};
closed = 1;
nodes = (
(942,164,o),
(1086,282,o),
(1086,470,cs),
(1086,658,o),
(942,776,o),
(710,776,cs),
(480,776,o),
(334,658,o),
(334,470,cs),
(334,282,o),
(480,164,o),
(710,164,cs)
);
}
);
};
layerId = "94F54C43-8AEE-4ED6-B3C2-2A9D33534E61";
name = Black;
shapes = (
{
closed = 1;
nodes = (
(1054,-28,o),
(1288,178,o),
(1288,486,cs),
(1288,762,o),
(1098,968,o),
(826,968,cs),
(554,968,o),
(364,762,o),
(364,470,c),
(476,694,l),
(476,950,o),
(582,1092,o),
(774,1092,cs),
(852,1092,o),
(920,1068,o),
(976,1020,c),
(1240,1312,l),
(1116,1418,o),
(960,1476,o),
(774,1476,cs),
(354,1476,o),
(72,1186,o),
(72,702,cs),
(72,262,o),
(304,-28,o),
(710,-28,cs)
);
},
{
closed = 1;
nodes = (
(618,336,o),
(552,400,o),
(552,490,cs),
(552,580,o),
(618,644,o),
(710,644,cs),
(802,644,o),
(868,580,o),
(868,490,cs),
(868,400,o),
(802,336,o),
(710,336,cs)
);
}
);
width = 1360;
},
{
background = {
annotations = (
{
pos = (500,1572);
text = "위아래 절반, 97.5%";
type = Text;
},
{
pos = (682,416);
text = "110%";
type = Text;
}
);
shapes = (
{
attr = {
strokeHeight = 168;
strokeWidth = 180;
};
closed = 1;
nodes = (
(876,56,o),
(1046,222,o),
(1046,456,cs),
(1046,690,o),
(876,856,o),
(638,856,cs),
(400,856,o),
(230,690,o),
(230,456,cs),
(230,222,o),
(398,56,o),
(638,56,cs)
);
},
{
attr = {
strokeHeight = 168;
strokeWidth = 180;
};
closed = 0;
nodes = (
(1026,1262,l),
(940,1342,o),
(826,1392,o),
(694,1392,cs),
(404,1392,o),
(194,1140,o),
(194,690,cs),
(194,284,o),
(354,56,o),
(638,56,c)
);
}
);
};
layerId = m01;
name = Regular;
shapes = (
{
closed = 1;
nodes = (
(930,-28,o),
(1136,170,o),
(1136,456,cs),
(1136,740,o),
(934,940,o),
(674,940,cs),
(412,940,o),
(212,740,o),
(212,456,c),
(284,690,l),
(284,1098,o),
(460,1308,o),
(694,1308,cs),
(794,1308,o),
(890,1270,o),
(964,1200,c),
(1088,1324,l),
(988,1416,o),
(850,1476,o),
(694,1476,cs),
(348,1476,o),
(104,1188,o),
(104,690,cs),
(104,250,o),
(294,-28,o),
(638,-28,cs)
);
},
{
closed = 1;
nodes = (
(452,140,o),
(320,270,o),
(320,456,cs),
(320,642,o),
(452,772,o),
(638,772,cs),
(824,772,o),
(956,642,o),
(956,456,cs),
(956,270,o),
(824,140,o),
(638,140,cs)
);
}
);
width = 1240;
}
);
metricLeft = zero;
metricRight = zero;
unicode = 54;
}
{
color = 11;
glyphname = nine;
kernLeft = nine;
kernRight = O;
layers = (
{
layerId = m01;
shapes = (
{
angle = 180;
pos = (1240,1448);
ref = six;
}
);
width = 1240;
},
{
layerId = "94F54C43-8AEE-4ED6-B3C2-2A9D33534E61";
shapes = (
{
angle = 180;
pos = (1360,1448);
ref = six;
}
);
width = 1360;
},
{
associatedMasterId = "94F54C43-8AEE-4ED6-B3C2-2A9D33534E61";
background = {
shapes = (
{
angle = 180;
pos = (1360,1448);
ref = six;
}
);
};
layerId = "09F1FDCC-AEB9-4AE1-B781-8B0E81C0500E";
name = Hanbin;
shapes = (
{
closed = 1;
nodes = (
(306,1476,o),
(72,1270,o),
(72,962,cs),
(72,686,o),
(262,480,o),
(534,480,cs),
(806,480,o),
(996,686,o),
(996,978,c),
(854,738,l),
(912,492,o),
(806,348,o),
(592,348,cs),
(490,348,o),
(432,380,o),
(384,428,c),
(130,148,l),
(254,42,o),
(400,-28,o),
(642,-28,cs),
(1088,-28,o),
(1288,308,o),
(1288,762,cs),
(1288,1202,o),
(1056,1476,o),
(650,1476,cs)
);
},
{
closed = 1;
nodes = (
(756,1132,o),
(832,1060,o),
(832,958,cs),
(832,856,o),
(756,784,o),
(650,784,cs),
(544,784,o),
(468,856,o),
(468,958,cs),
(468,1060,o),
(544,1132,o),
(650,1132,cs)
);
}
);
width = 1360;
},
{
associatedMasterId = m01;
background = {
shapes = (
{
angle = 180;
pos = (1240,1448);
ref = six;
}
);
};
layerId = "123221A1-078F-4B15-A486-EF1D9DFA916F";
name = Hanbin;
shapes = (
{
closed = 1;
nodes = (
(308,1476,o),
(104,1276,o),
(104,992,cs),
(104,714,o),
(300,508,o),
(566,508,cs),
(832,508,o),
(1028,712,o),
(1028,992,c),
(942,758,l),
(974,384,o),
(832,132,o),
(556,132,cs),
(452,132,o),
(344,180,o),
(264,274,c),
(144,156,l),
(270,28,o),
(396,-28,o),
(572,-28,cs),
(922,-28,o),
(1118,248,o),
(1118,758,cs),
(1118,1222,o),
(934,1476,o),
(602,1476,cs)
);
},
{
closed = 1;
nodes = (
(790,1312,o),
(920,1180,o),
(920,992,cs),
(920,804,o),
(790,672,o),
(602,672,cs),
(414,672,o),
(280,804,o),
(280,992,cs),
(280,1180,o),
(414,1312,o),
(602,1312,cs)
);
}
);
width = 1240;
}
);
unicode = 57;
}
{
color = 0;
glyphname = less;
kernLeft = less;
kernRight = less;
layers = (
{
background = {
shapes = (
{
attr = {
lineCapEnd = "4";
lineCapStart = "4";
strokeHeight = 168;
strokeWidth = 172;
};
closed = 0;
nodes = (
(1128,114,l),
(152,538,l)
);
},
{
attr = {
lineCapEnd = "4";
lineCapStart = "4";
strokeHeight = 168;
strokeWidth = 172;
};
closed = 0;
nodes = (
(152,542,l),
(1128,966,l)
);
}
);
};
layerId = m01;
metricRight = "=|";
shapes = (
{
closed = 1;
nodes = (
(1128,874,l),
(1128,1058,l),
(152,634,l),
(152,458,l)
);
},
{
closed = 1;
nodes = (
(1128,206,l),
(152,622,l),
(152,446,l),
(1128,22,l)
);
}
);
width = 1280;
},
{
background = {
shapes = (
{
attr = {
lineCapEnd = "4";
lineCapStart = "4";
strokeHeight = 352;
strokeWidth = 368;
};
closed = 0;
nodes = (
(1248,166,l),
(192,538,l)
);
},
{
attr = {
lineCapEnd = "4";
lineCapStart = "4";
strokeHeight = 352;
strokeWidth = 368;
};
closed = 0;
nodes = (
(192,542,l),
(1248,914,l)
);
}
);
};
layerId = "94F54C43-8AEE-4ED6-B3C2-2A9D33534E61";
metricRight = "=|";
shapes = (
{
closed = 1;
nodes = (
(1248,726,l),
(1248,1102,l),
(192,730,l),
(192,390,l)
);
},
{
closed = 1;
nodes = (
(1248,354,l),
(192,690,l),
(192,350,l),
(1248,-22,l)
);
}
);
width = 1440;
}
);
metricWidth = plus;
note = $CASE;
unicode = 60;
}
{
color = 0;
glyphname = equal;
kernLeft = hyphen;
kernRight = hyphen;
layers = (
{
background = {
annotations = (
{
pos = (550,770);
text = "minus*1.75";
type = Text;
}
);
shapes = (
{
closed = 1;
nodes = (
(1160,392,l),
(1160,688,l),
(120,688,l),
(120,392,l)
);
}
);
};
layerId = m01;
shapes = (
{
pos = (0,232);
ref = minus;
},
{
pos = (0,-232);
ref = minus;
}
);
width = 1280;
},
{
background = {
annotations = (
{
pos = (676,820);
text = "minus*.75";
type = Text;
}
);
shapes = (
{
closed = 1;
nodes = (
(1296,452,l),
(1296,628,l),
(144,628,l),
(144,452,l)
);
}
);
};
layerId = "94F54C43-8AEE-4ED6-B3C2-2A9D33534E61";
shapes = (
{
pos = (0,264);
ref = minus;
},
{
pos = (0,-264);
ref = minus;
}
);
width = 1440;
}
);
metricLeft = minus;
metricRight = minus;
note = $CASE;
unicode = 61;
}
{
color = 0;
glyphname = at;
kernLeft = O;
kernRight = O;
layers = (
{
background = {
shapes = (
{
attr = {
lineCapEnd = 4;
lineCapStart = 4;
strokeHeight = 148;
strokePos = "1";
strokeWidth = 160;
};
closed = 0;
nodes = (
(1118,604,l),
(1118,408,ls),
(1118,266,o),
(1226,170,o),
(1382,170,cs),
(1604,170,o),
(1724,366,o),
(1724,636,cs),
(1724,1094,o),
(1376,1440,o),
(916,1440,cs),
(446,1440,o),
(92,1080,o),
(92,604,cs),
(92,128,o),
(442,-232,o),
(936,-232,cs),
(1024,-232,o),
(1128,-222,o),
(1222,-202,c)
);
}
);
};
layerId = m01;
shapes = (
{
attr = {
strokePos = "1";
};
closed = 1;
nodes = (
(1018,-232,o),
(1116,-224,o),
(1206,-206,c),
(1206,-54,l),
(1114,-74,o),
(1020,-84,o),
(936,-84,cs),
(532,-84,o),
(252,208,o),
(252,604,cs),
(252,1000,o),
(536,1292,o),
(916,1292,cs),
(1286,1292,o),
(1564,1014,o),
(1564,636,cs),
(1564,427,o),
(1491,318,o),
(1382,318,cs),
(1308,318,o),
(1278,368,o),
(1278,498,cs),
(1278,668,l),
(1166,668,l),
(1126,440,l),
(1126,408,ls),
(1126,266,o),
(1230,170,o),
(1382,170,cs),
(1604,170,o),
(1724,366,o),
(1724,636,cs),
(1724,1094,o),
(1376,1440,o),
(916,1440,cs),
(446,1440,o),
(92,1080,o),
(92,604,cs),
(92,128,o),
(442,-232,o),
(936,-232,cs)
);
},
{
alignment = -1;
pos = (440,214);
ref = _part.atbase;
}
);
width = 1816;
},
{
associatedMasterId = m01;
layerId = "F7B73B4F-ACDF-4F2A-875E-70E64C2E774E";
name = "San Francisco";
shapes = (
{
closed = 1;
nodes = (
(1070,-236,o),
(1182,-218,o),
(1276,-186,c),
(1276,-50,l),
(1212,-78,o),
(1074,-98,o),
(940,-98,cs),
(546,-98,o),
(244,142,o),
(244,600,cs),
(244,1014,o),
(522,1304,o),
(908,1304,cs),
(1296,1304,o),
(1574,1072,o),
(1574,672,cs),
(1574,522,o),
(1542,304,o),
(1398,304,cs),
(1318,302,o),
(1264,370,o),
(1264,508,cs),
(1264,998,l),
(1112,998,l),
(1112,876,l),
(1104,876,l),
(1066,960,o),
(968,1016,o),
(860,1016,cs),
(656,1016,o),
(512,848,o),
(512,600,cs),
(512,366,o),
(638,176,o),
(860,176,cs),
(990,176,o),
(1092,234,o),
(1140,356,c),
(1148,356,l),
(1194,216,o),
(1294,168,o),
(1396,168,cs),
(1636,168,o),
(1726,426,o),
(1726,674,cs),
(1726,1144,o),
(1390,1440,o),
(922,1440,cs),
(486,1440,o),
(94,1148,o),
(92,600,cs),
(94,58,o),
(454,-234,o),
(938,-234,cs)
);
},
{
closed = 1;
nodes = (
(756,318,o),
(674,422,o),
(674,600,cs),
(674,752,o),
(736,878,o),
(886,878,cs),
(1022,878,o),
(1110,772,o),
(1110,598,cs),
(1110,426,o),
(1022,318,o),
(884,316,cs)
);
}
);
width = 1818;
},
{
associatedMasterId = "94F54C43-8AEE-4ED6-B3C2-2A9D33534E61";
layerId = "F05A7D04-D92E-4D30-B18D-983D49EF0D4B";
name = "San Francisco";
shapes = (
{
closed = 1;
nodes = (
(1110,-248,o),
(1232,-230,o),
(1348,-192,c),
(1348,2,l),
(1238,-32,o),
(1124,-52,o),
(1008,-52,cs),
(692,-52,o),
(284,86,o),
(284,618,cs),
(284,1002,o),
(532,1280,o),
(934,1280,cs),
(1302,1280,o),
(1530,1048,o),
(1530,680,cs),
(1530,578,o),
(1510,402,o),
(1414,402,cs),
(1358,402,o),
(1326,460,o),
(1326,564,cs),
(1326,1014,l),
(1070,1014,l),
(1070,884,l),
(1062,884,l),
(1022,980,o),
(930,1038,o),
(816,1038,cs),
(600,1038,o),
(474,834,o),
(474,618,cs),
(474,374,o),
(596,172,o),
(818,172,cs),
(940,172,o),
(1038,234,o),
(1094,352,c),
(1102,352,l),
(1178,214,o),
(1270,182,o),
(1390,182,cs),
(1648,182,o),
(1756,440,o),
(1756,694,cs),
(1756,1182,o),
(1418,1472,o),
(934,1472,cs),
(404,1472,o),
(58,1114,o),
(58,620,cs),
(58,-40,o),
(580,-248,o),
(980,-248,cs)
);
},
{
closed = 1;
nodes = (
(822,398,o),
(770,480,o),
(770,608,cs),
(770,734,o),
(822,812,o),
(904,812,cs),
(982,812,o),
(1036,736,o),
(1036,612,cs),
(1036,474,o),
(984,398,o),
(904,398,cs)
);
}
);
width = 1814;
},
{
associatedMasterId = "94F54C43-8AEE-4ED6-B3C2-2A9D33534E61";
layerId = "1ADD86D6-8A42-4246-958C-EC92C88BB676";
name = Pretendard;
shapes = (
{
closed = 1;
nodes = (
(896,216,o),
(974,270,o),
(1008,348,c),
(1288,348,l),
(1288,1004,l),
(1012,1004,l),
(1012,894,l),
(1004,894,l),
(972,972,o),
(898,1032,o),
(788,1034,cs),
(638,1032,o),
(480,920,o),
(480,624,cs),
(480,342,o),
(626,216,o),
(790,216,cs)
);
},
{
closed = 1;
nodes = (
(850,472,o),
(812,526,o),
(814,624,cs),
(812,722,o),
(850,778,o),
(916,778,cs),
(980,778,o),
(1022,722,o),
(1022,624,cs),
(1022,526,o),
(980,470,o),
(916,472,cs)
);
},
{
closed = 1;
nodes = (
(1036,-228,o),
(1174,-212,o),
(1288,-176,c),
(1288,104,l),
(1184,76,o),
(1048,58,o),
(898,58,cs),
(530,58,o),
(336,256,o),
(336,624,cs),
(336,972,o),
(556,1190,o),
(896,1190,cs),
(1248,1190,o),
(1456,984,o),
(1456,672,cs),
(1456,536,o),
(1416,460,o),
(1346,460,cs),
(1308,460,o),
(1288,484,o),
(1288,540,c),
(1004,410,l),
(1004,290,o),
(1132,206,o),
(1316,204,cs),
(1582,204,o),
(1732,374,o),
(1732,680,cs),
(1732,1146,o),
(1384,1476,o),
(896,1476,cs),
(404,1476,o),
(60,1120,o),
(60,624,cs),
(60,116,o),
(354,-228,o),
(898,-228,cs)
);
}
);
width = 1792;
},
{
associatedMasterId = "94F54C43-8AEE-4ED6-B3C2-2A9D33534E61";
background = {
shapes = (
{
pos = (434,242);
ref = a;
scale = (0.65,0.7);
},
{
attr = {
strokeHeight = 264;
strokePos = "1";
strokeWidth = 288;
};
closed = 1;
nodes = (
(1340,-232,o),
(1692,128,o),
(1692,604,cs),
(1692,1080,o),
(1340,1440,o),
(876,1440,cs),
(412,1440,o),
(60,1080,o),
(60,604,cs),
(60,128,o),
(412,-232,o),
(876,-232,cs)
);
}
);
};
layerId = "A33F6050-DF7C-4ED2-9432-9D1E6AF0F7F6";
name = Base;
shapes = (
{
attr = {
strokeHeight = 264;
strokePos = "1";
strokeWidth = 288;
};
closed = 1;
nodes = (
(1340,-232,o),
(1692,128,o),
(1692,604,cs),
(1692,1080,o),
(1340,1440,o),
(876,1440,cs),
(412,1440,o),
(60,1080,o),
(60,604,cs),
(60,128,o),
(412,-232,o),
(876,-232,cs)
);
},
{
alignment = -1;
pos = (418,244);
ref = _part.atbase;
},
{
closed = 1;
nodes = (
(1138,-342,l),
(1002,-342,l),
(1002,718,l),
(1138,718,l)
);
}
);
width = 1752;
},
{
associatedMasterId = m01;
background = {
annotations = (
{
pos = (1018.548,1599.895);
text = "O*1.15";
type = Text;
}
);
shapes = (
{
pos = (440,218);
ref = a;
scale = (0.75,0.75);
},
{
attr = {
strokeHeight = 148;
strokePos = "1";
strokeWidth = 160;
};
closed = 1;
nodes = (
(1372,-232,o),
(1724,128,o),
(1724,604,cs),
(1724,1080,o),
(1372,1440,o),
(908,1440,cs),
(444,1440,o),
(92,1080,o),
(92,604,cs),
(92,128,o),
(444,-232,o),
(908,-232,cs)
);
}
);
};
layerId = "1C96BD87-C7EA-4C45-95F9-8222B6C070A7";
name = Base;
shapes = (
{
attr = {
strokeHeight = 148;
strokePos = "1";
strokeWidth = 160;
};
closed = 1;
nodes = (
(1372,-232,o),
(1724,128,o),
(1724,604,cs),
(1724,1080,o),
(1372,1440,o),
(908,1440,cs),
(444,1440,o),
(92,1080,o),
(92,604,cs),
(92,128,o),
(444,-232,o),
(908,-232,cs)
);
},
{
alignment = -1;
pos = (440,214);
ref = _part.atbase;
},
{
closed = 1;
nodes = (
(1206,-342,l),
(1126,-342,l),
(1126,908,l),
(1206,908,l)
);
}
);
width = 1816;
},
{
associatedMasterId = "94F54C43-8AEE-4ED6-B3C2-2A9D33534E61";
background = {
shapes = (
{
attr = {
lineCapEnd = "4";
lineCapStart = "4";
strokeHeight = 264;
strokePos = "1";
strokeWidth = 288;
};
closed = 0;
nodes = (
(980,604,l),
(980,446,ls),
(980,276,o),
(1104,170,o),
(1300,170,cs),
(1552,170,o),
(1692,338,o),
(1692,636,cs),
(1692,1094,o),
(1344,1440,o),
(884,1440,cs),
(414,1440,o),
(60,1080,o),
(60,604,cs),
(60,128,o),
(410,-232,o),
(904,-232,cs),
(984,-232,o),
(1078,-222,o),
(1164,-206,c)
);
}
);
};
layerId = "3DD9425B-C1EB-41C0-BF99-B590C6A4E600";
name = "Apr 23, 23 2:13";
shapes = (
{
closed = 1;
nodes = (
(976,-232,o),
(1059,-224,o),
(1138,-211,c),
(1138,59,l),
(1052,41,o),
(972,32,o),
(904,32,cs),
(565,32,o),
(348,278,o),
(348,604,cs),
(348,932,o),
(570,1176,o),
(884,1176,cs),
(1186,1176,o),
(1404,972,o),
(1404,636,cs),
(1404,520,o),
(1378,434,o),
(1322,434,cs),
(1284,434,o),
(1268,470,o),
(1268,550,cs),
(1268,660,l),
(1068,660,l),
(980,478,l),
(980,446,ls),
(980,276,o),
(1104,170,o),
(1300,170,cs),
(1552,170,o),
(1692,338,o),
(1692,636,cs),
(1692,1094,o),
(1344,1440,o),
(884,1440,cs),
(414,1440,o),
(60,1080,o),
(60,604,cs),
(60,128,o),
(410,-232,o),
(904,-232,cs)
);
},
{
alignment = -1;
pos = (418,244);
ref = _part.atbase;
}
);
width = 1752;
},
{
associatedMasterId = "94F54C43-8AEE-4ED6-B3C2-2A9D33534E61";
background = {
shapes = (
{
attr = {
lineCapEnd = "4";
lineCapStart = "4";
strokeHeight = 264;
strokePos = "1";
strokeWidth = 288;
};
closed = 0;
nodes = (
(968,604,l),
(968,446,ls),
(968,276,o),
(1094,170,o),
(1294,170,cs),
(1550,170,o),
(1692,338,o),
(1692,636,cs),
(1692,1094,o),
(1344,1440,o),
(884,1440,cs),
(414,1440,o),
(60,1080,o),
(60,604,cs),
(60,128,o),
(410,-232,o),
(904,-232,cs),
(984,-232,o),
(1078,-222,o),
(1164,-206,c)
);
},
{
closed = 1;
nodes = (
(988,590,l),
(1256,590,l),
(1256,876,l),
(988,876,l)
);
}
);
};
layerId = "03BAD3ED-5A96-4E6F-B436-5ED78451748D";
name = "Apr 23, 23 2:22";
shapes = (
{
closed = 1;
nodes = (
(978,-232,o),
(1059,-224,o),
(1138,-211,c),
(1138,59,l),
(1052,41,o),
(970,32,o),
(904,32,cs),
(562,32,o),
(348,280,o),
(348,604,cs),
(348,934,o),
(562,1176,o),
(884,1176,cs),
(1178,1176,o),
(1404,970,o),
(1404,636,cs),
(1404,518,o),
(1376,434,o),
(1314,434,cs),
(1274,434,o),
(1256,470,o),
(1256,550,cs),
(1256,660,l),
(1068,660,l),
(968,478,l),
(968,446,ls),
(968,276,o),
(1092,170,o),
(1294,170,cs),
(1548,170,o),
(1692,340,o),
(1692,636,cs),
(1692,1096,o),
(1344,1440,o),
(884,1440,cs),
(414,1440,o),
(60,1082,o),
(60,604,cs),
(60,130,o),
(412,-232,o),
(904,-232,cs)
);
},
{
alignment = -1;
pos = (418,244);
ref = _part.atbase;
}
);
width = 1752;
},
{
background = {
shapes = (
{
attr = {
lineCapEnd = "4";
lineCapStart = "4";
strokeHeight = 264;
strokePos = "1";
strokeWidth = 288;
};
closed = 0;
nodes = (
(980,604,l),
(980,430,ls),
(980,270,o),
(1114,170,o),
(1330,170,cs),
(1604,170,o),
(1756,338,o),
(1756,636,cs),
(1756,1094,o),
(1394,1440,o),
(916,1440,cs),
(428,1440,o),
(60,1080,o),
(60,604,cs),
(60,128,o),
(424,-232,o),
(938,-232,cs),
(1004,-232,o),
(1080,-226,o),
(1155,-215,c)
);
},
{
closed = 1;
nodes = (
(998,-262,l),
(1134,-262,l),
(1134,876,l),
(998,876,l)
);
}
);
};
layerId = "94F54C43-8AEE-4ED6-B3C2-2A9D33534E61";
name = Black;
shapes = (
{
closed = 1;
nodes = (
(992,-232,o),
(1066,-228,o),
(1134,-218,c),
(1134,50,l),
(1058,38,o),
(994,32,o),
(938,32,cs),
(584,32,o),
(348,262,o),
(348,604,cs),
(348,942,o),
(578,1176,o),
(916,1176,cs),
(1244,1176,o),
(1468,958,o),
(1468,636,cs),
(1468,500,o),
(1424,434,o),
(1344,434,cs),
(1284,434,o),
(1266,470,o),
(1266,550,cs),
(1266,660,l),
(1062,660,l),
(980,478,l),
(980,430,ls),
(980,270,o),
(1116,170,o),
(1330,170,cs),
(1606,170,o),
(1756,334,o),
(1756,636,cs),
(1756,1098,o),
(1404,1440,o),
(916,1440,cs),
(422,1440,o),
(60,1086,o),
(60,604,cs),
(60,118,o),
(424,-232,o),
(938,-232,cs)
);
},
{
alignment = -1;
pos = (478,244);
ref = _part.atbase;
}
);
width = 1816;
},
{
associatedMasterId = "94F54C43-8AEE-4ED6-B3C2-2A9D33534E61";
background = {
shapes = (
{
attr = {
lineCapEnd = "4";
lineCapStart = "4";
strokeHeight = 264;
strokePos = "1";
strokeWidth = 288;
};
closed = 0;
nodes = (
(946,604,l),
(946,446,ls),
(946,276,o),
(1076,170,o),
(1282,170,cs),
(1546,170,o),
(1692,338,o),
(1692,636,cs),
(1692,1094,o),
(1344,1440,o),
(884,1440,cs),
(414,1440,o),
(60,1080,o),
(60,604,cs),
(60,128,o),
(410,-232,o),
(904,-232,cs),
(984,-232,o),
(1078,-222,o),
(1164,-206,c)
);
},
{
closed = 1;
nodes = (
(966,590,l),
(1234,590,l),
(1234,876,l),
(966,876,l)
);
}
);
};
layerId = "A0E466D8-8C66-4945-BEFB-EA22D7D7F2C9";
name = "Apr 23, 23 2:40";
shapes = (
{
closed = 1;
nodes = (
(978,-232,o),
(1059,-224,o),
(1138,-211,c),
(1138,59,l),
(1052,41,o),
(970,32,o),
(904,32,cs),
(562,32,o),
(348,278,o),
(348,604,cs),
(348,932,o),
(562,1176,o),
(884,1176,cs),
(1178,1176,o),
(1404,964,o),
(1404,636,cs),
(1404,512,o),
(1370,434,o),
(1300,434,cs),
(1252,434,o),
(1234,470,o),
(1234,550,cs),
(1234,660,l),
(1024,660,l),
(946,478,l),
(946,446,ls),
(946,276,o),
(1074,170,o),
(1282,170,cs),
(1544,170,o),
(1692,338,o),
(1692,636,cs),
(1692,1094,o),
(1346,1440,o),
(884,1440,cs),
(416,1440,o),
(60,1082,o),
(60,604,cs),
(60,130,o),
(412,-232,o),
(904,-232,cs)
);
},
{
alignment = -1;
pos = (446,244);
ref = _part.atbase;
}
);
width = 1752;
}
);
metricLeft = O;
metricRight = O;
unicode = 64;
}
{
glyphname = A;
kernLeft = A;
kernRight = A;
layers = (
{
background = {
shapes = (
{
closed = 0;
nodes = (
(-218,0,l),
(1408,0,l)
);
},
{
closed = 0;
nodes = (
(-218,1448,l),
(1410,1448,l)
);
},
{
closed = 0;
nodes = (
(1408,0,l),
(794,1540,l)
);
},
{
closed = 0;
nodes = (
(-214,504,l),
(1414,504,l)
);
},
{
closed = 0;
nodes = (
(-214,1448,l),
(1414,1448,l)
);
}
);
};
layerId = m01;
metricLeft = "=44";
metricRight = "=|";
shapes = (
{
closed = 1;
nodes = (
(1392,0,l),
(830,1448,l),
(644,1448,l),
(1200,0,l)
);
},
{
closed = 1;
nodes = (
(236,0,l),
(792,1448,l),
(606,1448,l),
(44,0,l)
);
},
{
closed = 1;
nodes = (
(1116,422,l),
(1116,586,l),
(320,586,l),
(320,422,l)
);
}
);
width = 1436;
},
{
associatedMasterId = m01;
background = {
shapes = (
{
pos = (18,1032);
ref = v;
scale = (1,-1);
},
{
closed = 0;
nodes = (
(-202,0,l),
(1424,0,l),
(810,1540,l)
);
},
{
closed = 0;
nodes = (
(-202,1258,l),
(1426,1258,l)
);
},
{
closed = 0;
nodes = (
(-202,504,l),
(1426,504,l)
);
},
{
closed = 0;
nodes = (
(-202,1258,l),
(1426,1258,l)
);
}
);
};
layerId = "438F2397-875D-4222-9B54-03CF4A61BAF1";
name = "Apr 13, 23 11:44";
shapes = (
{
closed = 1;
nodes = (
(1424,0,l),
(846,1448,l),
(662,1448,l),
(1232,0,l)
);
},
{
closed = 1;
nodes = (
(236,0,l),
(806,1448,l),
(622,1448,l),
(44,0,l)
);
},
{
closed = 1;
nodes = (
(1132,426,l),
(1132,594,l),
(336,594,l),
(336,426,l)
);
}
);
width = 1468;
},
{
background = {
shapes = (
{
closed = 0;
nodes = (
(-214,0,l),
(1414,0,l)
);
},
{
closed = 0;
nodes = (
(894,1650,l),
(1578,0,l)
);
},
{
closed = 0;
nodes = (
(-214,0,l),
(1414,0,l)
);
},
{
closed = 0;
nodes = (
(-214,1448,l),
(1414,1448,l)
);
},
{
closed = 0;
nodes = (
(-214,384,l),
(1414,384,l)
);
},
{
closed = 0;
nodes = (
(-214,1448,l),
(1414,1448,l)
);
}
);
};
layerId = "94F54C43-8AEE-4ED6-B3C2-2A9D33534E61";
metricLeft = "=36";
metricRight = "=|";
shapes = (
{
closed = 1;
nodes = (
(1564,0,l),
(1002,1448,l),
(654,1448,l),
(1104,0,l)
);
},
{
closed = 1;
nodes = (
(496,0,l),
(946,1448,l),
(598,1448,l),
(36,0,l)
);
},
{
closed = 1;
nodes = (
(1108,232,l),
(1108,584,l),
(492,584,l),
(492,232,l)
);
}
);
width = 1600;
},
{
associatedMasterId = "94F54C43-8AEE-4ED6-B3C2-2A9D33534E61";
attr = {
coordinates = (
700
);
};
layerId = "7D078B31-37F9-4FFF-94AA-5E9B35C9D016";
metricLeft = "=40";
metricRight = "=|";
name = "700";
shapes = (
{
closed = 1;
nodes = (
(1496,0,l),
(934,1448,l),
(650,1448,l),
(1142,0,l)
);
},
{
closed = 1;
nodes = (
(392,0,l),
(884,1448,l),
(602,1448,l),
(40,0,l)
);
},
{
closed = 1;
nodes = (
(1112,296,l),
(1112,596,l),
(424,596,l),
(424,296,l)
);
}
);
width = 1536;
},
{
associatedMasterId = "94F54C43-8AEE-4ED6-B3C2-2A9D33534E61";
layerId = "695D58DF-94D9-4F4B-A2CE-365769D57C5A";
metricLeft = "=36";
metricRight = "=|A";
name = "Before Make 700";
shapes = (
{
closed = 1;
nodes = (
(1564,0,l),
(1002,1448,l),
(654,1448,l),
(1104,0,l)
);
},
{
closed = 1;
nodes = (
(496,0,l),
(946,1448,l),
(598,1448,l),
(36,0,l)
);
},
{
closed = 1;
nodes = (
(1108,212,l),
(1108,604,l),
(492,604,l),
(492,212,l)
);
}
);
width = 1600;
}
);
unicode = 65;
}
{
glyphname = B;
kernLeft = H;
kernRight = B;
layers = (
{
background = {
shapes = (
{
closed = 1;
nodes = (
(96,0,l),
(572,0,ls),
(860,0,o),
(1116,124,o),
(1116,412,cs),
(1116,614,o),
(980,742,o),
(796,764,c),
(796,768,l),
(948,808,o),
(1050,920,o),
(1050,1082,cs),
(1050,1358,o),
(814,1448,o),
(596,1448,cs),
(96,1448,l)
);
},
{
closed = 1;
nodes = (
(298,666,l),
(570,666,ls),
(792,666,o),
(912,594,o),
(912,422,cs),
(912,222,o),
(716,172,o),
(552,172,cs),
(298,172,l)
);
},
{
closed = 1;
nodes = (
(298,1278,l),
(530,1278,ls),
(724,1278,o),
(846,1218,o),
(846,1062,cs),
(846,904,o),
(714,836,o),
(562,836,cs),
(298,836,l)
);
}
);
};
layerId = m01;
shapes = (
{
piece = {
Condensed = 48;
};
ref = _smart.upperstem;
},
{
pos = (316,0);
ref = _part.Bbase;
}
);
width = 1204;
},
{
background = {
shapes = (
{
closed = 1;
nodes = (
(694,0,ls),
(978,0,o),
(1256,108,o),
(1256,424,cs),
(1256,608,o),
(1122,718,o),
(984,754,c),
(984,760,l),
(1112,808,o),
(1196,908,o),
(1196,1064,cs),
(1196,1394,o),
(876,1448,o),
(632,1448,cs),
(38,1448,l),
(38,0,l)
);
},
{
closed = 1;
nodes = (
(492,580,l),
(616,580,ls),
(674,580,o),
(766,558,o),
(766,484,cs),
(766,418,o),
(712,382,o),
(636,382,cs),
(492,382,l)
);
},
{
closed = 1;
nodes = (
(492,1070,l),
(612,1070,ls),
(688,1070,o),
(738,1042,o),
(738,988,cs),
(738,922,o),
(690,892,o),
(622,892,cs),
(492,892,l)
);
}
);
};
layerId = "94F54C43-8AEE-4ED6-B3C2-2A9D33534E61";
shapes = (
{
piece = {
Condensed = 48;
};
ref = _smart.upperstem;
},
{
pos = (548,0);
ref = _part.Bbase;
}
);
width = 1344;
},
{
associatedMasterId = "94F54C43-8AEE-4ED6-B3C2-2A9D33534E61";
background = {
shapes = (
{
closed = 1;
nodes = (
(674,0,ls),
(958,0,o),
(1236,108,o),
(1236,424,cs),
(1236,608,o),
(1102,718,o),
(964,754,c),
(964,760,l),
(1092,808,o),
(1176,908,o),
(1176,1064,cs),
(1176,1394,o),
(856,1448,o),
(612,1448,cs),
(18,1448,l),
(18,0,l)
);
},
{
closed = 1;
nodes = (
(472,580,l),
(596,580,ls),
(654,580,o),
(746,558,o),
(746,484,cs),
(746,418,o),
(692,382,o),
(616,382,cs),
(472,382,l)
);
},
{
closed = 1;
nodes = (
(472,1070,l),
(592,1070,ls),
(668,1070,o),
(718,1042,o),
(718,988,cs),
(718,922,o),
(670,892,o),
(602,892,cs),
(472,892,l)
);
}
);
};
layerId = "5BB4BFBF-75EE-4A8F-BB75-AC10E4C16F51";
name = Avenir;
shapes = (
{
closed = 1;
nodes = (
(772,0,ls),
(1056,0,o),
(1334,108,o),
(1334,424,cs),
(1334,608,o),
(1200,718,o),
(1062,754,c),
(1062,760,l),
(1190,808,o),
(1274,908,o),
(1274,1064,cs),
(1274,1394,o),
(954,1448,o),
(710,1448,cs),
(116,1448,l),
(116,0,l)
);
},
{
closed = 1;
nodes = (
(570,580,l),
(694,580,ls),
(752,580,o),
(844,558,o),
(844,484,cs),
(844,418,o),
(790,382,o),
(714,382,cs),
(570,382,l)
);
},
{
closed = 1;
nodes = (
(570,1070,l),
(690,1070,ls),
(766,1070,o),
(816,1042,o),
(816,988,cs),
(816,922,o),
(768,892,o),
(700,892,cs),
(570,892,l)
);
}
);
width = 1394;
}
);
metricLeft = H;
metricRight = O;
unicode = 66;
}
{
glyphname = C;
layers = (
{
background = {
shapes = (
{
closed = 0;
nodes = (
(276,724,l),
(276,1048,o),
(520,1304,o),
(832,1304,cs),
(1144,1304,o),
(1388,1048,o),
(1388,724,cs)
);
},
{
closed = 0;
nodes = (
(92,724,l),
(92,1146,o),
(418,1476,o),
(832,1476,cs),
(1246,1476,o),
(1572,1146,o),
(1572,724,cs)
);
}
);
};
layerId = m01;
metricRight = "=O/1.54";
shapes = (
{
closed = 1;
nodes = (
(1150,-28,o),
(1416,166,o),
(1522,446,c),
(1502,196,l),
(1224,404,l),
(1346,500,l),
(1264,290,o),
(1068,144,o),
(832,144,cs),
(520,144,o),
(276,400,o),
(276,724,cs),
(276,1048,o),
(520,1304,o),
(832,1304,cs),
(1068,1304,o),
(1264,1158,o),
(1346,948,c),
(1224,1044,l),
(1502,1252,l),
(1522,1002,l),
(1416,1282,o),
(1150,1476,o),
(832,1476,cs),
(418,1476,o),
(92,1146,o),
(92,724,cs),
(92,302,o),
(418,-28,o),
(832,-28,cs)
);
}
);
width = 1478;
},
{
layerId = "94F54C43-8AEE-4ED6-B3C2-2A9D33534E61";
metricRight = "=O/1.5";
shapes = (
{
closed = 1;
nodes = (
(1252,-28,o),
(1588,302,o),
(1588,724,c),
(1640,306,l),
(998,592,l),
(1156,724,l),
(1156,528,o),
(1014,380,o),
(824,380,cs),
(634,380,o),
(492,528,o),
(492,724,cs),
(492,920,o),
(634,1068,o),
(824,1068,cs),
(1014,1068,o),
(1156,920,o),
(1156,724,c),
(998,856,l),
(1640,1142,l),
(1588,724,l),
(1588,1146,o),
(1252,1476,o),
(824,1476,cs),
(396,1476,o),
(60,1146,o),
(60,724,cs),
(60,302,o),
(396,-28,o),
(824,-28,cs)
);
}
);
width = 1540;
},
{
associatedMasterId = m01;
background = {
shapes = (
{
closed = 0;
nodes = (
(276,724,ls),
(276,1064,o),
(506,1304,o),
(832,1304,cs),
(1158,1304,o),
(1388,1064,o),
(1388,724,cs)
);
},
{
closed = 0;
nodes = (
(92,724,ls),
(92,1154,o),
(408,1476,o),
(832,1476,cs),
(1256,1476,o),
(1572,1154,o),
(1572,724,cs)
);
}
);
};
layerId = "3D1BE0DA-4021-47EB-A04E-EBD6E9BCEE91";
metricRight = "=O/1.54";
name = "Apr 15, 23 2:57";
shapes = (
{
closed = 1;
nodes = (
(1160,-28,o),
(1418,146,o),
(1532,408,c),
(1502,188,l),
(1224,396,l),
(1360,464,l),
(1274,268,o),
(1084,144,o),
(844,144,cs),
(510,144,o),
(276,384,o),
(276,724,cs),
(276,1064,o),
(510,1304,o),
(844,1304,cs),
(1084,1304,o),
(1273,1180,o),
(1360,984,c),
(1224,1052,l),
(1502,1260,l),
(1532,1040,l),
(1417,1302,o),
(1160,1476,o),
(844,1476,cs),
(414,1476,o),
(92,1154,o),
(92,724,cs),
(92,294,o),
(414,-28,o),
(844,-28,cs)
);
}
);
width = 1490;
}
);
metricLeft = O;
metricRight = O;
unicode = 67;
}
{
glyphname = H;
layers = (
{
background = {
shapes = (
{
closed = 1;
nodes = (
(1278,0,l),
(120,0,l),
(120,1448,l),
(1278,1448,l)
);
}
);
};
layerId = m01;
metricRight = "=|H";
shapes = (
{
closed = 1;
nodes = (
(1290,0,l),
(1290,1448,l),
(1110,1448,l),
(1110,0,l)
);
},
{
closed = 1;
nodes = (
(312,0,l),
(312,1448,l),
(132,1448,l),
(132,0,l)
);
},
{
closed = 1;
nodes = (
(1110,688,l),
(1110,856,l),
(312,856,l),
(312,688,l)
);
}
);
width = 1422;
},
{
background = {
shapes = (
{
closed = 1;
nodes = (
(1432,0,l),
(96,0,l),
(96,1448,l),
(1432,1448,l)
);
}
);
};
layerId = "94F54C43-8AEE-4ED6-B3C2-2A9D33534E61";
metricRight = "=|H";
shapes = (
{
closed = 1;
nodes = (
(1444,0,l),
(1444,1448,l),
(1044,1448,l),
(1044,0,l)
);
},
{
closed = 1;
nodes = (
(508,0,l),
(508,1448,l),
(108,1448,l),
(108,0,l)
);
},
{
closed = 1;
nodes = (
(1044,584,l),
(1044,960,l),
(508,960,l),
(508,584,l)
);
}
);
width = 1552;
}
);
unicode = 72;
}
{
glyphname = I;
layers = (
{
layerId = m01;
shapes = (
{
closed = 1;
nodes = (
(320,0,l),
(320,1448,l),
(140,1448,l),
(140,0,l)
);
}
);
width = 460;
},
{
annotations = (
{
pos = (420,1618);
text = "전체적으로 Dimensions를 더 굵게 해야할 듯";
type = Text;
}
);
layerId = "94F54C43-8AEE-4ED6-B3C2-2A9D33534E61";
shapes = (
{
closed = 1;
nodes = (
(516,0,l),
(516,1448,l),
(116,1448,l),
(116,0,l)
);
}
);
width = 632;
}
);
metricLeft = H;
metricRight = H;
unicode = 73;
}
{
glyphname = J;
kernLeft = J;
kernRight = H;
layers = (
{
anchors = (
{
name = serif;
pos = (816,1448);
}
);
background = {
shapes = (
{
attr = {
strokeHeight = 168;
strokeWidth = 180;
};
closed = 0;
nodes = (
(180,376,l),
(226,168,o),
(352,56,o),
(532,56,cs),
(750,56,o),
(910,220,o),
(910,438,cs),
(910,1448,l)
);
}
);
};
layerId = m01;
shapes = (
{
closed = 1;
nodes = (
(808,-28,o),
(1000,178,o),
(1000,486,cs),
(1000,1448,l),
(820,1448,l),
(820,486,ls),
(820,276,o),
(704,140,o),
(532,140,cs),
(400,140,o),
(306,220,o),
(266,394,c),
(92,358,l),
(146,116,o),
(302,-28,o),
(532,-28,cs)
);
}
);
width = 1140;
},
{
associatedMasterId = m01;
layerId = "608988CF-D534-4219-BA2F-EA84673E1798";
name = "100%";
shapes = (
{
attr = {
strokeHeight = 168;
strokeWidth = 180;
};
closed = 0;
nodes = (
(228,1448,l),
(228,724,ls),
(228,342,o),
(510,56,o),
(890,56,cs),
(1270,56,o),
(1552,342,o),
(1552,724,cs),
(1552,1448,l)
);
}
);
width = 1780;
},
{
associatedMasterId = m01;
layerId = "ABC6C06E-65B9-44E2-8C1A-275569F408D4";
name = "60%";
shapes = (
{
attr = {
strokeHeight = 168;
strokeWidth = 180;
};
closed = 0;
nodes = (
(182,438,ls),
(182,220,o),
(342,56,o),
(556,56,cs),
(770,56,o),
(934,220,o),
(934,438,cs),
(934,1448,l)
);
}
);
width = 1164;
},
{
associatedMasterId = m01;
layerId = "7C57A3F7-A702-4F54-92CD-6FE3748E6B4A";
name = "Apr 14, 23 22:10";
shapes = (
{
closed = 1;
nodes = (
(838,-28,o),
(1012,164,o),
(1012,452,cs),
(1012,1448,l),
(836,1448,l),
(836,452,ls),
(836,266,o),
(732,140,o),
(576,140,cs),
(420,140,o),
(316,266,o),
(316,452,c),
(140,452,l),
(140,164,o),
(314,-28,o),
(576,-28,cs)
);
}
);
width = 1152;
},
{
associatedMasterId = m01;
layerId = "40FAF741-9125-4A30-9AA4-66766172546A";
name = "Apr 14, 23 22:07";
shapes = (
{
attr = {
strokeHeight = 168;
strokeWidth = 180;
};
closed = 0;
nodes = (
(122,192,l),
(186,132,o),
(274,56,o),
(430,56,cs),
(628,56,o),
(778,206,o),
(778,406,cs),
(778,1448,l)
);
}
);
width = 1002;
},
{
anchors = (
{
name = serif;
pos = (712,1448);
}
);
background = {
shapes = (
{
attr = {
strokeHeight = 400;
strokeWidth = 424;
};
closed = 0;
nodes = (
(268,462,l),
(304,288,o),
(418,172,o),
(592,172,cs),
(782,172,o),
(924,312,o),
(924,500,cs),
(924,1448,l)
);
}
);
};
layerId = "94F54C43-8AEE-4ED6-B3C2-2A9D33534E61";
shapes = (
{
closed = 1;
nodes = (
(918,-28,o),
(1136,206,o),
(1136,558,cs),
(1136,1448,l),
(712,1448,l),
(712,558,ls),
(712,436,o),
(672,372,o),
(592,372,cs),
(538,372,o),
(498,400,o),
(476,502,c),
(60,424,l),
(120,120,o),
(332,-28,o),
(592,-28,cs)
);
}
);
width = 1252;
},
{
associatedMasterId = "94F54C43-8AEE-4ED6-B3C2-2A9D33534E61";
layerId = "A0E57969-B80A-47EF-B4B3-1BBF3C7151AF";
name = "100%";
shapes = (
{
attr = {
strokeHeight = 400;
strokeWidth = 424;
};
closed = 0;
nodes = (
(272,1448,l),
(272,720,ls),
(272,406,o),
(506,172,o),
(820,172,cs),
(1134,172,o),
(1368,406,o),
(1368,720,cs),
(1368,1448,l)
);
}
);
width = 1696;
},
{
associatedMasterId = m01;
background = {
shapes = (
{
attr = {
strokeHeight = 164;
strokeWidth = 172;
};
closed = 0;
nodes = (
(496,54,l),
(298,54,o),
(150,206,o),
(150,408,cs),
(150,1448,l)
);
}
);
};
layerId = "BD8D7B19-1907-4C67-A46E-A0F4B6936ACE";
name = "Apr 14, 23 22:12";
shapes = (
{
attr = {
strokeHeight = 168;
strokeWidth = 180;
};
closed = 0;
nodes = (
(176,328,l),
(228,112,o),
(370,56,o),
(496,56,cs),
(694,56,o),
(842,206,o),
(842,408,cs),
(842,1448,l)
);
}
);
width = 1068;
},
{
associatedMasterId = "94F54C43-8AEE-4ED6-B3C2-2A9D33534E61";
layerId = "0D2C42E8-EE2B-40CF-A278-0878ACB20D87";
name = "60%";
shapes = (
{
attr = {
strokeHeight = 400;
strokeWidth = 424;
};
closed = 0;
nodes = (
(272,500,l),
(272,312,o),
(412,172,o),
(602,172,cs),
(790,172,o),
(930,312,o),
(930,500,cs),
(930,1448,l)
);
}
);
width = 1258;
},
{
associatedMasterId = "94F54C43-8AEE-4ED6-B3C2-2A9D33534E61";
background = {
shapes = (
{
attr = {
strokeHeight = 400;
strokeWidth = 424;
};
closed = 0;
nodes = (
(274,436,l),
(314,268,o),
(434,172,o),
(592,172,cs),
(780,172,o),
(920,312,o),
(920,500,cs),
(920,1448,l)
);
}
);
};
layerId = "239A1283-B582-41D1-91AA-40136EAEA363";
name = "Apr 14, 23 22:51";
shapes = (
{
closed = 1;
nodes = (
(914,-28,o),
(1132,206,o),
(1132,558,cs),
(1132,1448,l),
(708,1448,l),
(708,558,ls),
(708,434,o),
(668,372,o),
(588,372,cs),
(532,372,o),
(494,402,o),
(472,486,c),
(60,394,l),
(128,110,o),
(340,-28,o),
(588,-28,cs)
);
}
);
width = 1248;
}
);
metricLeft = O;
metricRight = I;
unicode = 74;
}
{
glyphname = N;
layers = (
{
background = {
shapes = (
{
closed = 1;
nodes = (
(1370,0,l),
(140,0,l),
(140,1448,l),
(1370,1448,l)
);
},
{
closed = 0;
nodes = (
(360,1468,l),
(140,1468,l)
);
}
);
};
layerId = m01;
shapes = (
{
closed = 1;
nodes = (
(1338,0,l),
(1338,54,l),
(352,1448,l),
(172,1448,l),
(172,1394,l),
(1158,0,l)
);
},
{
alignment = -1;
ref = I;
},
{
alignment = -1;
pos = (1050,0);
ref = I;
}
);
width = 1510;
},
{
layerId = "94F54C43-8AEE-4ED6-B3C2-2A9D33534E61";
shapes = (
{
closed = 1;
nodes = (
(1452,0,l),
(1452,110,l),
(564,1448,l),
(172,1448,l),
(172,1338,l),
(1060,0,l)
);
},
{
alignment = -1;
ref = I;
},
{
alignment = -1;
pos = (992,0);
ref = I;
}
);
width = 1624;
},
{
associatedMasterId = m01;
background = {
shapes = (
{
closed = 1;
nodes = (
(1370,0,l),
(140,0,l),
(140,1448,l),
(1370,1448,l)
);
}
);
};
layerId = "7A206F55-5058-4B6F-BE9C-145BB4C521D8";
name = "Apr 11, 23 17:54";
shapes = (
{
alignment = -1;
ref = I;
},
{
alignment = -1;
pos = (1050,0);
ref = I;
},
{
closed = 1;
nodes = (
(1358,0,l),
(368,1448,l),
(152,1448,l),
(1142,0,l)
);
}
);
width = 1510;
},
{
associatedMasterId = m01;
background = {
shapes = (
{
closed = 1;
nodes = (
(1370,0,l),
(140,0,l),
(140,1448,l),
(1370,1448,l)
);
},
{
closed = 0;
nodes = (
(360,1468,l),
(140,1468,l)
);
}
);
};
layerId = "69FB8B74-F64B-4362-9773-28E226B258C5";
name = "Apr 11, 23 18:01";
shapes = (
{
alignment = -1;
ref = I;
},
{
alignment = -1;
pos = (1050,0);
ref = I;
},
{
closed = 1;
nodes = (
(1310,0,l),
(1310,116,l),
(352,1448,l),
(174,1448,l),
(174,1392,l),
(1174,0,l)
);
}
);
width = 1510;
}
);
metricLeft = I;
metricRight = I;
unicode = 78;
}
{
glyphname = O;
kernLeft = O;
kernRight = O;
layers = (
{
anchors = (
{
name = _symbol;
pos = (846,724);
},
{
name = bottom;
pos = (846,0);
},
{
name = center;
pos = (846,724);
},
{
name = ogonek;
pos = (846,0);
},
{
name = tail;
pos = (846,0);
},
{
name = top;
pos = (846,1448);
},
{
name = topleft;
pos = (94,1448);
},
{
name = topright;
pos = (1598,1448);
}
);
background = {
shapes = (
{
attr = {
strokeHeight = 168;
strokeWidth = 180;
};
closed = 1;
nodes = (
(1226,56,o),
(1508,342,o),
(1508,724,cs),
(1508,1106,o),
(1226,1392,o),
(846,1392,cs),
(466,1392,o),
(184,1106,o),
(184,724,cs),
(184,342,o),
(466,56,o),
(846,56,cs)
);
}
);
};
layerId = m01;
metricLeft = "=94";
metricRight = "=|";
shapes = (
{
closed = 1;
nodes = (
(1274,-28,o),
(1598,296,o),
(1598,724,cs),
(1598,1152,o),
(1274,1476,o),
(846,1476,cs),
(418,1476,o),
(94,1152,o),
(94,724,cs),
(94,296,o),
(418,-28,o),
(846,-28,cs)
);
},
{
closed = 1;
nodes = (
(510,140,o),
(274,382,o),
(274,724,cs),
(274,1066,o),
(510,1308,o),
(846,1308,cs),
(1182,1308,o),
(1418,1066,o),
(1418,724,cs),
(1418,382,o),
(1182,140,o),
(846,140,cs)
);
}
);
width = 1692;
},
{
anchors = (
{
name = _symbol;
pos = (824,724);
},
{
name = bottom;
pos = (824,0);
},
{
name = center;
pos = (824,724);
},
{
name = ogonek;
pos = (824,0);
},
{
name = tail;
pos = (824,0);
},
{
name = top;
pos = (824,1448);
},
{
name = topleft;
pos = (60,1448);
},
{
name = topright;
pos = (1588,1448);
}
);
background = {
shapes = (
{
attr = {
strokeHeight = 392;
strokeWidth = 416;
};
closed = 1;
nodes = (
(1142,168,o),
(1380,406,o),
(1380,724,cs),
(1380,1042,o),
(1142,1280,o),
(824,1280,cs),
(506,1280,o),
(268,1042,o),
(268,724,cs),
(268,406,o),
(506,168,o),
(824,168,cs)
);
}
);
};
layerId = "94F54C43-8AEE-4ED6-B3C2-2A9D33534E61";
metricLeft = "=60";
metricRight = "=|";
shapes = (
{
closed = 1;
nodes = (
(1260,-28,o),
(1588,294,o),
(1588,724,cs),
(1588,1154,o),
(1260,1476,o),
(824,1476,cs),
(388,1476,o),
(60,1154,o),
(60,724,cs),
(60,294,o),
(388,-28,o),
(824,-28,cs)
);
},
{
closed = 1;
nodes = (
(622,364,o),
(476,514,o),
(476,724,cs),
(476,934,o),
(622,1084,o),
(824,1084,cs),
(1026,1084,o),
(1172,934,o),
(1172,724,cs),
(1172,514,o),
(1026,364,o),
(824,364,cs)
);
}
);
width = 1648;
},
{
associatedMasterId = "94F54C43-8AEE-4ED6-B3C2-2A9D33534E61";
background = {
shapes = (
{
closed = 1;
nodes = (
(1240,-28,o),
(1576,310,o),
(1576,724,cs),
(1576,1140,o),
(1240,1476,o),
(824,1476,cs),
(410,1476,o),
(72,1140,o),
(72,724,cs),
(72,310,o),
(410,-28,o),
(824,-28,cs)
);
}
);
};
layerId = "96BE1A9B-0C59-4E1B-91EF-47DD978C7BFE";
name = Base;
shapes = (
{
closed = 1;
nodes = (
(1240,-28,o),
(1576,310,o),
(1576,724,cs),
(1576,1140,o),
(1240,1476,o),
(824,1476,cs),
(410,1476,o),
(72,1140,o),
(72,724,cs),
(72,310,o),
(410,-28,o),
(824,-28,cs)
);
}
);
width = 1648;
},
{
annotations = (
{
pos = (1056,1670);
text = "폭을 줄여보자";
type = Text;
}
);
associatedMasterId = m01;
layerId = "CD4C72FF-4D54-4C40-A0FB-FCDDE917E8E7";
metricLeft = "=92";
metricRight = "=|";
name = Base;
shapes = (
{
closed = 1;
nodes = (
(1260,-28,o),
(1596,310,o),
(1596,724,cs),
(1596,1140,o),
(1260,1476,o),
(844,1476,cs),
(430,1476,o),
(92,1140,o),
(92,724,cs),
(92,310,o),
(430,-28,o),
(844,-28,cs)
);
}
);
width = 1688;
}
);
unicode = 79;
}
{
glyphname = Q;
kernLeft = O;
kernRight = O;
layers = (
{
annotations = (
{
pos = (1120.996,544.947);
text = "올리자";
type = Text;
}
);
background = {
annotations = (
{
pos = (606.031,837.486);
type = Text;
},
{
pos = (772.739,678.257);
type = Text;
}
);
};
layerId = m01;
shapes = (
{
ref = O;
},
{
pos = (844,0);
ref = _part.Qbase;
}
);
width = 1688;
},
{
annotations = (
{
pos = (1072,1670);
text = "방법이 없나?";
type = Text;
}
);
layerId = "94F54C43-8AEE-4ED6-B3C2-2A9D33534E61";
shapes = (
{
ref = O;
},
{
pos = (824,0);
ref = _part.Qbase;
}
);
width = 1648;
},
{
annotations = (
{
pos = (1120.996,544.947);
text = "올리자";
type = Text;
}
);
associatedMasterId = m01;
background = {
annotations = (
{
pos = (606.031,837.486);
type = Text;
},
{
pos = (772.739,678.257);
type = Text;
}
);
};
layerId = "B999BAAF-601E-44D7-8C5D-84BE6E55CDFB";
name = Neuzeit;
shapes = (
{
closed = 1;
nodes = (
(1228,-26,o),
(1578,260,o),
(1578,724,cs),
(1578,1188,o),
(1268,1476,o),
(842,1476,cs),
(424,1476,o),
(106,1162,o),
(106,724,cs),
(106,260,o),
(416,-26,o),
(842,-26,cs)
);
},
{
closed = 1;
nodes = (
(436,120,o),
(280,486,o),
(280,724,cs),
(280,1018,o),
(440,1330,o),
(842,1330,cs),
(1244,1330,o),
(1404,1018,o),
(1404,724,cs),
(1404,486,o),
(1248,120,o),
(842,120,cs)
);
},
{
closed = 1;
nodes = (
(1586,32,l),
(1126,492,l),
(1030,396,l),
(1490,-64,l)
);
}
);
width = 1688;
},
{
annotations = (
{
pos = (1072,1670);
text = "방법이 없나?";
type = Text;
}
);
associatedMasterId = "94F54C43-8AEE-4ED6-B3C2-2A9D33534E61";
layerId = "6E278EEA-35FE-435A-86BF-D0978E920066";
name = Neuzeit;
shapes = (
{
closed = 1;
nodes = (
(1318,-26,o),
(1510,386,o),
(1510,724,cs),
(1510,1064,o),
(1294,1476,o),
(826,1476,cs),
(354,1476,o),
(142,1082,o),
(142,724,cs),
(142,386,o),
(360,-26,o),
(826,-26,cs)
);
},
{
closed = 1;
nodes = (
(648,306,o),
(528,450,o),
(528,724,cs),
(528,962,o),
(646,1142,o),
(826,1142,cs),
(1008,1142,o),
(1128,962,o),
(1126,724,cs),
(1124,450,o),
(1004,306,o),
(826,306,cs)
);
},
{
closed = 1;
nodes = (
(1550,144,l),
(972,594,l),
(776,368,l),
(1336,-94,l)
);
}
);
width = 1648;
}
);
unicode = 81;
}
{
glyphname = S;
layers = (
{
background = {
shapes = (
{
attr = {
strokeHeight = 172;
strokeWidth = 184;
};
closed = 0;
nodes = (
(974,1196,l),
(886,1320,o),
(752,1390,o),
(602,1390,cs),
(392,1390,o),
(238,1254,o),
(238,1072,cs),
(238,928,o),
(334,842,o),
(564,778,cs),
(638,758,ls),
(900,686,o),
(1010,584,o),
(1010,410,cs),
(1010,198,o),
(848,58,o),
(602,58,cs),
(428,58,o),
(288,126,o),
(160,272,c)
);
}
);
};
layerId = m01;
shapes = (
{
closed = 1;
nodes = (
(898,-28,o),
(1102,150,o),
(1102,410,cs),
(1102,630,o),
(958,760,o),
(662,842,cs),
(588,862,ls),
(394,916,o),
(330,972,o),
(330,1072,cs),
(330,1204,o),
(442,1304,o),
(602,1304,cs),
(716,1304,o),
(822,1254,o),
(900,1146,c),
(1050,1246,l),
(948,1388,o),
(786,1476,o),
(602,1476,cs),
(344,1476,o),
(146,1304,o),
(146,1072,cs),
(146,882,o),
(278,768,o),
(540,696,cs),
(614,676,ls),
(842,612,o),
(918,540,o),
(918,410,cs),
(918,250,o),
(802,144,o),
(602,144,cs),
(460,144,o),
(344,198,o),
(230,330,c),
(92,216,l),
(232,54,o),
(400,-28,o),
(602,-28,cs)
);
}
);
width = 1194;
},
{
background = {
shapes = (
{
attr = {
strokeHeight = 408;
strokeWidth = 432;
};
closed = 0;
nodes = (
(1130,1148,l),
(1038,1208,o),
(894,1272,o),
(724,1272,cs),
(498,1272,o),
(324,1156,o),
(324,992,cs),
(324,866,o),
(414,780,o),
(622,736,cs),
(690,722,ls),
(938,670,o),
(1030,580,o),
(1030,448,cs),
(1030,260,o),
(850,176,o),
(616,176,cs),
(430,176,o),
(294,246,o),
(178,322,c)
);
}
);
};
layerId = "94F54C43-8AEE-4ED6-B3C2-2A9D33534E61";
shapes = (
{
closed = 1;
nodes = (
(1004,-28,o),
(1246,156,o),
(1246,442,cs),
(1246,650,o),
(1118,840,o),
(734,922,cs),
(668,936,ls),
(566,958,o),
(540,970,o),
(540,996,cs),
(540,1038,o),
(612,1068,o),
(724,1068,cs),
(830,1068,o),
(914,1042,o),
(1012,978,c),
(1248,1320,l),
(1140,1390,o),
(954,1476,o),
(724,1476,cs),
(356,1476,o),
(108,1258,o),
(108,992,cs),
(108,804,o),
(232,616,o),
(576,538,cs),
(646,522,ls),
(778,492,o),
(814,476,o),
(814,446,cs),
(814,404,o),
(750,380,o),
(636,380,cs),
(510,380,o),
(426,408,o),
(298,492,c),
(60,152,l),
(182,72,o),
(366,-28,o),
(636,-28,cs)
);
}
);
width = 1308;
},
{
associatedMasterId = m01;
background = {
shapes = (
{
attr = {
strokeHeight = 172;
strokeWidth = 184;
};
closed = 0;
nodes = (
(1062,1196,l),
(964,1320,o),
(816,1390,o),
(648,1390,cs),
(416,1390,o),
(244,1254,o),
(244,1072,cs),
(244,928,o),
(350,842,o),
(606,778,cs),
(688,758,ls),
(980,686,o),
(1102,584,o),
(1102,410,cs),
(1102,198,o),
(922,58,o),
(648,58,cs),
(456,58,o),
(300,126,o),
(158,272,c)
);
},
{
closed = 0;
nodes = (
(906,1082,l),
(1198,1298,l)
);
},
{
closed = 0;
nodes = (
(64,190,l),
(336,412,l)
);
}
);
};
layerId = "7522D9CD-9B91-4311-AB4D-1DBDB20E70D0";
name = "100%";
shapes = (
{
closed = 1;
nodes = (
(248,51,o),
(430,-28,o),
(648,-28,cs),
(969,-28,o),
(1194,147,o),
(1194,410,cs),
(1194,633,o),
(1035,761,o),
(710,842,cs),
(628,861,ls),
(406,917,o),
(336,977,o),
(336,1072,cs),
(336,1203,o),
(463,1304,o),
(648,1304,cs),
(786,1304,o),
(905,1250,o),
(990,1143,c),
(1134,1249,l),
(1021,1392,o),
(844,1476,o),
(648,1476,cs),
(368,1476,o),
(152,1304,o),
(152,1072,cs),
(152,879,o),
(296,766,o),
(584,695,cs),
(666,674,ls),
(924,611,o),
(1010,535,o),
(1010,410,cs),
(1010,250,o),
(877,144,o),
(648,144,cs),
(482,144,o),
(352,201,o),
(224,332,c),
(92,212,l)
);
}
);
width = 1286;
},
{
associatedMasterId = m01;
background = {
shapes = (
{
attr = {
strokeHeight = 172;
strokeWidth = 184;
};
closed = 0;
nodes = (
(974,1196,l),
(886,1320,o),
(752,1390,o),
(602,1390,cs),
(392,1390,o),
(238,1254,o),
(238,1072,cs),
(238,928,o),
(334,842,o),
(564,778,cs),
(638,758,ls),
(900,686,o),
(1010,584,o),
(1010,410,cs),
(1010,198,o),
(848,58,o),
(602,58,cs),
(428,58,o),
(288,126,o),
(160,272,c)
);
}
);
};
layerId = "4C491BDF-515A-49F9-9AE1-9DBBFB3938B1";
name = "90%";
shapes = (
{
closed = 1;
nodes = (
(898,-28,o),
(1102,150,o),
(1102,410,cs),
(1102,630,o),
(958,760,o),
(662,842,cs),
(588,862,ls),
(394,916,o),
(330,974,o),
(330,1072,cs),
(330,1206,o),
(442,1304,o),
(602,1304,cs),
(716,1304,o),
(822,1254,o),
(900,1146,c),
(1050,1246,l),
(948,1388,o),
(786,1476,o),
(602,1476,cs),
(344,1476,o),
(146,1304,o),
(146,1072,cs),
(146,882,o),
(278,768,o),
(540,696,cs),
(614,676,ls),
(842,612,o),
(918,538,o),
(918,410,cs),
(918,248,o),
(800,144,o),
(602,144,cs),
(458,144,o),
(344,198,o),
(230,330,c),
(92,216,l),
(232,54,o),
(400,-28,o),
(602,-28,cs)
);
}
);
width = 1194;
},
{
associatedMasterId = m01;
background = {
shapes = (
{
attr = {
strokeHeight = 172;
strokeWidth = 184;
};
closed = 0;
nodes = (
(974,1196,l),
(886,1320,o),
(752,1390,o),
(602,1390,cs),
(392,1390,o),
(238,1254,o),
(238,1072,cs),
(238,928,o),
(334,842,o),
(564,778,cs),
(638,758,ls),
(900,686,o),
(1010,584,o),
(1010,410,cs),
(1010,198,o),
(848,58,o),
(602,58,cs),
(428,58,o),
(288,126,o),
(160,272,c)
);
}
);
};
layerId = "DE9104BE-98CA-42D8-9979-19C57AA92602";
name = "Apr 16, 23 2:57";
shapes = (
{
attr = {
strokeHeight = 172;
strokeWidth = 184;
};
closed = 0;
nodes = (
(974,1196,l),
(886,1320,o),
(752,1390,o),
(602,1390,cs),
(392,1390,o),
(238,1270,o),
(238,1088,cs),
(238,946,o),
(340,866,o),
(564,782,cs),
(638,754,ls),
(892,658,o),
(1010,566,o),
(1010,394,cs),
(1010,182,o),
(848,58,o),
(602,58,cs),
(428,58,o),
(288,126,o),
(160,272,c)
);
}
);
width = 1194;
},
{
associatedMasterId = "94F54C43-8AEE-4ED6-B3C2-2A9D33534E61";
layerId = "38527997-E200-4A1A-8198-081639DE7CB8";
name = "100%";
shapes = (
{
attr = {
strokeHeight = 408;
strokeWidth = 432;
};
closed = 0;
nodes = (
(1176,1148,l),
(1080,1208,o),
(928,1272,o),
(748,1272,cs),
(510,1272,o),
(328,1156,o),
(328,992,cs),
(328,866,o),
(422,780,o),
(642,736,cs),
(714,722,ls),
(974,670,o),
(1070,580,o),
(1070,448,cs),
(1070,260,o),
(882,176,o),
(636,176,cs),
(440,176,o),
(296,246,o),
(174,322,c)
);
}
);
width = 1350;
},
{
associatedMasterId = "94F54C43-8AEE-4ED6-B3C2-2A9D33534E61";
layerId = "25E6BCA0-F241-4C3A-8630-F15A38E5991A";
name = "95%";
shapes = (
{
attr = {
strokeHeight = 408;
strokeWidth = 432;
};
closed = 0;
nodes = (
(1130,1148,l),
(1008,1228,o),
(862,1272,o),
(724,1272,cs),
(492,1272,o),
(324,1156,o),
(324,992,cs),
(324,864,o),
(426,776,o),
(622,736,cs),
(690,722,ls),
(926,674,o),
(1030,588,o),
(1030,448,cs),
(1030,282,o),
(890,176,o),
(636,176,cs),
(478,176,o),
(338,216,o),
(178,322,c)
);
}
);
width = 1308;
},
{
associatedMasterId = "94F54C43-8AEE-4ED6-B3C2-2A9D33534E61";
layerId = "13EB94D9-5FDF-49A7-99E7-452094B58A8C";
name = "Apr 16, 23 3:02";
shapes = (
{
closed = 1;
nodes = (
(1006,-28,o),
(1246,162,o),
(1246,448,cs),
(1246,656,o),
(1118,840,o),
(734,922,cs),
(668,936,ls),
(566,958,o),
(540,970,o),
(540,996,cs),
(540,1038,o),
(612,1068,o),
(724,1068,cs),
(830,1068,o),
(914,1042,o),
(1012,978,c),
(1248,1320,l),
(1140,1390,o),
(954,1476,o),
(724,1476,cs),
(356,1476,o),
(108,1258,o),
(108,992,cs),
(108,804,o),
(230,608,o),
(620,526,cs),
(686,512,ls),
(788,490,o),
(814,478,o),
(814,452,cs),
(814,410,o),
(744,380,o),
(636,380,cs),
(520,380,o),
(420,414,o),
(298,494,c),
(60,152,l),
(182,72,o),
(368,-28,o),
(636,-28,cs)
);
}
);
width = 1308;
}
);
metricLeft = O;
metricRight = O;
unicode = 83;
}
{
glyphname = U;
kernLeft = U;
kernRight = U;
layers = (
{
layerId = m01;
metricLeft = "=I";
metricRight = "=|";
shapes = (
{
closed = 1;
nodes = (
(1024,-28,o),
(1244,216,o),
(1244,580,cs),
(1244,1448,l),
(1068,1448,l),
(1068,580,ls),
(1068,316,o),
(918,140,o),
(692,140,cs),
(466,140,o),
(316,316,o),
(316,580,cs),
(316,1448,l),
(140,1448,l),
(140,580,ls),
(140,216,o),
(360,-28,o),
(692,-28,cs)
);
}
);
width = 1384;
},
{
associatedMasterId = m01;
layerId = "3B4DA6B1-6B6A-41A5-B956-7B6DB9403735";
name = "100%";
shapes = (
{
attr = {
strokeHeight = 172;
strokeWidth = 180;
};
closed = 0;
nodes = (
(230,1448,l),
(230,724,ls),
(230,344,o),
(512,58,o),
(890,58,cs),
(1268,58,o),
(1550,344,o),
(1550,724,cs),
(1550,1448,l)
);
}
);
width = 1780;
},
{
associatedMasterId = m01;
layerId = "A90120ED-FA29-4003-96BC-0A71C2C9C167";
name = "70%";
shapes = (
{
attr = {
strokeHeight = 172;
strokeWidth = 180;
};
closed = 0;
nodes = (
(230,1448,l),
(230,524,ls),
(230,258,o),
(428,58,o),
(692,58,cs),
(956,58,o),
(1154,258,o),
(1154,524,cs),
(1154,1448,l)
);
}
);
width = 1384;
},
{
background = {
shapes = (
{
attr = {
strokeHeight = 400;
strokeWidth = 424;
};
closed = 0;
nodes = (
(316,1448,l),
(316,614,ls),
(316,360,o),
(504,172,o),
(758,172,cs),
(1012,172,o),
(1200,360,o),
(1200,614,cs),
(1200,1448,l)
);
}
);
};
layerId = "94F54C43-8AEE-4ED6-B3C2-2A9D33534E61";
metricLeft = "=I*.9";
metricRight = "=|";
shapes = (
{
closed = 1;
nodes = (
(1150,-28,o),
(1412,254,o),
(1412,678,cs),
(1412,1448,l),
(988,1448,l),
(988,678,ls),
(988,476,o),
(910,372,o),
(758,372,cs),
(606,372,o),
(528,476,o),
(528,678,cs),
(528,1448,l),
(104,1448,l),
(104,678,ls),
(104,254,o),
(366,-28,o),
(758,-28,cs)
);
}
);
width = 1516;
},
{
associatedMasterId = "94F54C43-8AEE-4ED6-B3C2-2A9D33534E61";
layerId = "1A200B3C-1AF4-4635-BE02-A016982A3F5B";
name = "100%";
shapes = (
{
attr = {
strokeHeight = 400;
strokeWidth = 424;
};
closed = 0;
nodes = (
(328,1448,l),
(328,720,ls),
(328,406,o),
(562,172,o),
(876,172,cs),
(1190,172,o),
(1424,406,o),
(1424,720,cs),
(1424,1448,l)
);
}
);
width = 1752;
},
{
associatedMasterId = "94F54C43-8AEE-4ED6-B3C2-2A9D33534E61";
layerId = "E5623DDD-13A2-490B-931F-AB86F48E75B7";
name = "80%";
shapes = (
{
attr = {
strokeHeight = 400;
strokeWidth = 424;
};
closed = 0;
nodes = (
(328,1448,l),
(328,610,ls),
(328,360,o),
(516,172,o),
(766,172,cs),
(1018,172,o),
(1204,360,o),
(1204,610,cs),
(1204,1448,l)
);
}
);
width = 1532;
},
{
associatedMasterId = "94F54C43-8AEE-4ED6-B3C2-2A9D33534E61";
background = {
shapes = (
{
attr = {
strokeHeight = 400;
strokeWidth = 424;
};
closed = 0;
nodes = (
(328,1448,l),
(328,614,ls),
(328,360,o),
(516,172,o),
(770,172,cs),
(1024,172,o),
(1212,360,o),
(1212,614,cs),
(1212,1448,l)
);
}
);
};
layerId = "C611504E-8767-49C4-8266-25127346EEE1";
name = "80.75%";
shapes = (
{
attr = {
strokeHeight = 400;
strokeWidth = 424;
};
closed = 0;
nodes = (
(328,1448,l),
(328,614,ls),
(328,360,o),
(516,172,o),
(770,172,cs),
(1024,172,o),
(1212,360,o),
(1212,614,cs),
(1212,1448,l)
);
}
);
width = 1540;
}
);
metricLeft = I;
metricRight = I;
unicode = 85;
}
{
glyphname = V;
kernLeft = V;
kernRight = V;
layers = (
{
background = {
shapes = (
{
pos = (16,1448);
ref = A;
scale = (1,-1);
}
);
};
layerId = m01;
metricRight = "=|";
shapes = (
{
closed = 1;
nodes = (
(846,0,l),
(1424,1448,l),
(1232,1448,l),
(662,0,l)
);
},
{
closed = 1;
nodes = (
(806,0,l),
(236,1448,l),
(44,1448,l),
(622,0,l)
);
}
);
width = 1468;
},
{
background = {
shapes = (
{
pos = (4,1448);
ref = A;
scale = (1,-1);
}
);
};
layerId = "94F54C43-8AEE-4ED6-B3C2-2A9D33534E61";
metricLeft = "=A-8";
metricRight = "=|";
shapes = (
{
closed = 1;
nodes = (
(1006,0,l),
(1580,1448,l),
(1104,1448,l),
(618,0,l)
);
},
{
closed = 1;
nodes = (
(990,0,l),
(504,1448,l),
(28,1448,l),
(602,0,l)
);
}
);
width = 1608;
}
);
metricLeft = A;
metricRight = A;
unicode = 86;
}
{
glyphname = W;
layers = (
{
background = {
shapes = (
{
closed = 0;
nodes = (
(-12,1568,l),
(512,0,l)
);
},
{
closed = 0;
nodes = (
(740,0,l),
(1228,1654,l)
);
}
);
};
layerId = m01;
shapes = (
{
closed = 1;
nodes = (
(1604,0,l),
(2068,1448,l),
(1876,1448,l),
(1428,0,l)
);
},
{
closed = 1;
nodes = (
(684,0,l),
(236,1448,l),
(44,1448,l),
(508,0,l)
);
},
{
closed = 1;
nodes = (
(740,0,l),
(1128,1358,l),
(1104,1448,l),
(958,1448,l),
(566,0,l)
);
},
{
closed = 1;
nodes = (
(1546,0,l),
(1154,1448,l),
(1008,1448,l),
(984,1358,l),
(1372,0,l)
);
}
);
width = 2112;
},
{
background = {
shapes = (
{
closed = 0;
nodes = (
(912,0,l),
(1260,1222,l)
);
}
);
};
layerId = "94F54C43-8AEE-4ED6-B3C2-2A9D33534E61";
shapes = (
{
closed = 1;
nodes = (
(1772,0,l),
(2236,1448,l),
(1776,1448,l),
(1380,0,l)
);
},
{
closed = 1;
nodes = (
(884,0,l),
(488,1448,l),
(28,1448,l),
(492,0,l)
);
},
{
closed = 1;
nodes = (
(904,0,l),
(1252,1222,l),
(1228,1448,l),
(940,1448,l),
(540,0,l)
);
},
{
closed = 1;
nodes = (
(1724,0,l),
(1324,1448,l),
(1036,1448,l),
(1012,1222,l),
(1360,0,l)
);
}
);
width = 2264;
},
{
associatedMasterId = "94F54C43-8AEE-4ED6-B3C2-2A9D33534E61";
layerId = "52305F1F-818D-4B58-ABBC-6C1D609C1045";
name = "Apr 11, 23 15:52";
shapes = (
{
closed = 1;
nodes = (
(1014,0,l),
(1588,1448,l),
(1162,1448,l),
(650,0,l)
);
},
{
closed = 1;
nodes = (
(974,0,l),
(462,1448,l),
(36,1448,l),
(610,0,l)
);
}
);
width = 1624;
},
{
associatedMasterId = m01;
layerId = "ED59C54B-10D6-49B0-ACC3-BAD3514F0515";
name = "Apr 11, 23 15:52";
shapes = (
{
closed = 1;
nodes = (
(848,0,l),
(1426,1448,l),
(1232,1448,l),
(660,0,l)
);
},
{
closed = 1;
nodes = (
(810,0,l),
(238,1448,l),
(44,1448,l),
(622,0,l)
);
}
);
width = 1470;
},
{
associatedMasterId = m01;
background = {
shapes = (
{
closed = 0;
nodes = (
(-2,1586,l),
(530,0,l)
);
}
);
};
layerId = "0238685D-63BE-4E62-A902-2A091A08D91E";
name = "Apr 11, 23 16:09";
shapes = (
{
closed = 1;
nodes = (
(728,0,l),
(1216,1448,l),
(1026,1448,l),
(544,0,l)
);
},
{
closed = 1;
nodes = (
(716,0,l),
(234,1448,l),
(44,1448,l),
(532,0,l)
);
},
{
closed = 1;
nodes = (
(1650,0,l),
(2138,1448,l),
(1948,1448,l),
(1466,0,l)
);
},
{
closed = 1;
nodes = (
(1638,0,l),
(1156,1448,l),
(966,1448,l),
(1454,0,l)
);
}
);
width = 2182;
},
{
associatedMasterId = "94F54C43-8AEE-4ED6-B3C2-2A9D33534E61";
background = {
shapes = (
{
pos = (-80,0);
ref = w;
scale = (1.4034,1.4034);
}
);
};
layerId = "FE293046-4DF1-4CBB-95F4-15F2E0180DBD";
name = "Apr 11, 23 16:09";
shapes = (
{
closed = 1;
nodes = (
(878,0,l),
(1372,1448,l),
(954,1448,l),
(526,0,l)
);
},
{
closed = 1;
nodes = (
(882,0,l),
(454,1448,l),
(36,1448,l),
(530,0,l)
);
},
{
closed = 1;
nodes = (
(1812,0,l),
(2306,1448,l),
(1888,1448,l),
(1460,0,l)
);
},
{
closed = 1;
nodes = (
(1816,0,l),
(1388,1448,l),
(970,1448,l),
(1464,0,l)
);
}
);
width = 2342;
},
{
associatedMasterId = m01;
background = {
shapes = (
{
closed = 0;
nodes = (
(4,1568,l),
(528,0,l)
);
},
{
closed = 0;
nodes = (
(756,0,l),
(1244,1654,l)
);
}
);
};
layerId = "DE816DFD-7C72-4FCA-AB2F-E9324613CFFB";
name = "Apr 11, 23 17:06";
shapes = (
{
closed = 1;
nodes = (
(706,0,l),
(238,1448,l),
(44,1448,l),
(528,0,l)
);
},
{
closed = 1;
nodes = (
(760,0,l),
(1160,1358,l),
(1136,1448,l),
(990,1448,l),
(586,0,l)
);
},
{
closed = 1;
nodes = (
(2130,1448,l),
(1936,1448,l),
(1468,0,l),
(1646,0,l)
);
},
{
closed = 1;
nodes = (
(1184,1448,l),
(1038,1448,l),
(1014,1358,l),
(1414,0,l),
(1588,0,l)
);
}
);
width = 2174;
},
{
associatedMasterId = m01;
background = {
shapes = (
{
closed = 0;
nodes = (
(-28,1568,l),
(496,0,l)
);
},
{
closed = 0;
nodes = (
(724,0,l),
(1212,1654,l)
);
}
);
};
layerId = "8B64AF8F-39FE-4C6A-B083-01CB7DC77CD9";
name = "Apr 11, 23 17:09";
shapes = (
{
closed = 1;
nodes = (
(668,0,l),
(240,1448,l),
(44,1448,l),
(492,0,l)
);
},
{
closed = 1;
nodes = (
(724,0,l),
(1096,1358,l),
(1072,1448,l),
(926,1448,l),
(550,0,l)
);
},
{
closed = 1;
nodes = (
(2004,1448,l),
(1808,1448,l),
(1380,0,l),
(1556,0,l)
);
},
{
closed = 1;
nodes = (
(1122,1448,l),
(976,1448,l),
(952,1358,l),
(1324,0,l),
(1498,0,l)
);
}
);
width = 2048;
},
{
associatedMasterId = "94F54C43-8AEE-4ED6-B3C2-2A9D33534E61";
background = {
shapes = (
{
closed = 0;
nodes = (
(920,0,l),
(1268,1222,l)
);
}
);
};
layerId = "89EAF32A-0535-45AE-8BAF-86E201D4B623";
name = "Apr 13, 23 11:51";
shapes = (
{
closed = 1;
nodes = (
(1780,0,l),
(2244,1448,l),
(1806,1448,l),
(1400,0,l)
);
},
{
closed = 1;
nodes = (
(880,0,l),
(474,1448,l),
(36,1448,l),
(500,0,l)
);
},
{
closed = 1;
nodes = (
(912,0,l),
(1260,1222,l),
(1236,1448,l),
(956,1448,l),
(564,0,l)
);
},
{
closed = 1;
nodes = (
(1716,0,l),
(1324,1448,l),
(1044,1448,l),
(1020,1222,l),
(1368,0,l)
);
}
);
width = 2280;
}
);
metricLeft = V;
metricRight = V;
unicode = 87;
}
{
glyphname = X;
kernLeft = X;
kernRight = X;
layers = (
{
layerId = m01;
shapes = (
{
closed = 1;
nodes = (
(256,0,l),
(674,594,l),
(1092,0,l),
(1304,0,l),
(788,724,l),
(1304,1448,l),
(1092,1448,l),
(674,856,l),
(256,1448,l),
(44,1448,l),
(560,724,l),
(44,0,l)
);
}
);
width = 1348;
},
{
layerId = "94F54C43-8AEE-4ED6-B3C2-2A9D33534E61";
shapes = (
{
closed = 1;
nodes = (
(538,0,l),
(798,398,l),
(1060,0,l),
(1570,0,l),
(1070,724,l),
(1570,1448,l),
(1060,1448,l),
(798,1050,l),
(538,1448,l),
(28,1448,l),
(528,724,l),
(28,0,l)
);
}
);
width = 1598;
},
{
associatedMasterId = m01;
layerId = "B6CF3748-8BDB-45D5-B657-49AE5D1C413B";
name = Base;
shapes = (
{
attr = {
lineCapEnd = "4";
lineCapStart = "4";
strokeWidth = 172;
};
closed = 0;
nodes = (
(150,1448,l),
(1198,0,l)
);
},
{
attr = {
lineCapEnd = "4";
lineCapStart = "4";
strokeWidth = 172;
};
closed = 0;
nodes = (
(1198,1448,l),
(150,0,l)
);
}
);
width = 1348;
},
{
associatedMasterId = "94F54C43-8AEE-4ED6-B3C2-2A9D33534E61";
layerId = "145A19B4-352C-4B93-9554-9405564ED893";
name = Base;
shapes = (
{
attr = {
lineCapEnd = "4";
lineCapStart = "4";
strokeWidth = 416;
};
closed = 0;
nodes = (
(282,1448,l),
(1314,0,l)
);
},
{
attr = {
lineCapEnd = "4";
lineCapStart = "4";
strokeWidth = 416;
};
closed = 0;
nodes = (
(1314,1448,l),
(282,0,l)
);
}
);
width = 1598;
},
{
associatedMasterId = "94F54C43-8AEE-4ED6-B3C2-2A9D33534E61";
layerId = "43F533A6-3C3A-4A89-B8D5-4C6BE4BC0301";
name = "Apr 14, 23 15:10";
shapes = (
{
closed = 1;
nodes = (
(1054,724,l),
(1570,1448,l),
(1060,1448,l),
(798,1050,l),
(538,1448,l),
(28,1448,l),
(544,724,l),
(28,0,l),
(538,0,l),
(798,398,l),
(1060,0,l),
(1570,0,l)
);
}
);
width = 1598;
},
{
associatedMasterId = m01;
layerId = "73F441CF-B750-4FE3-B4E2-AF1252E6AC49";
name = "Apr 14, 23 15:11";
shapes = (
{
closed = 1;
nodes = (
(256,0,l),
(674,594,l),
(1092,0,l),
(1304,0,l),
(780,724,l),
(1304,1448,l),
(1092,1448,l),
(674,856,l),
(256,1448,l),
(44,1448,l),
(568,724,l),
(44,0,l)
);
}
);
width = 1348;
}
);
metricLeft = V;
metricRight = V;
unicode = 88;
}
{
glyphname = Z;
kernLeft = Z;
kernRight = Z;
layers = (
{
background = {
shapes = (
{
attr = {
strokePos = "0";
strokeWidth = 164;
};
closed = 0;
nodes = (
(114,1448,l),
(1170,1448,l)
);
},
{
attr = {
strokePos = "1";
strokeWidth = 164;
};
closed = 0;
nodes = (
(106,0,l),
(1186,0,l)
);
},
{
attr = {
lineCapEnd = "4";
lineCapStart = "4";
strokeWidth = 168;
};
closed = 0;
nodes = (
(1064,1284,l),
(212,164,l)
);
}
);
};
layerId = m01;
metricLeft = "=I*.754";
metricRight = "=|";
shapes = (
{
closed = 1;
nodes = (
(318,164,l),
(1170,1284,l),
(958,1284,l),
(106,164,l)
);
},
{
attr = {
strokePos = "1";
};
closed = 1;
nodes = (
(1186,0,l),
(1186,164,l),
(318,164,l),
(106,164,l),
(106,0,l)
);
},
{
attr = {
strokePos = "0";
};
closed = 1;
nodes = (
(958,1284,l),
(1170,1284,l),
(1170,1448,l),
(114,1448,l),
(114,1284,l)
);
}
);
width = 1292;
},
{
background = {
shapes = (
{
attr = {
strokePos = "0";
strokeWidth = 392;
};
closed = 0;
nodes = (
(124,1448,l),
(1260,1448,l)
);
},
{
attr = {
strokePos = "1";
strokeWidth = 392;
};
closed = 0;
nodes = (
(116,0,l),
(1276,0,l)
);
},
{
attr = {
lineCapEnd = "4";
lineCapStart = "4";
strokeWidth = 424;
};
closed = 0;
nodes = (
(978,1056,l),
(398,392,l)
);
}
);
};
layerId = "94F54C43-8AEE-4ED6-B3C2-2A9D33534E61";
metricRight = "=|";
shapes = (
{
closed = 1;
nodes = (
(676,392,l),
(1260,1072,l),
(684,1056,l),
(116,392,l)
);
},
{
attr = {
strokePos = "1";
};
closed = 1;
nodes = (
(1276,0,l),
(1276,392,l),
(676,392,l),
(116,392,l),
(116,0,l)
);
},
{
attr = {
strokePos = "0";
};
closed = 1;
nodes = (
(684,1056,l),
(1260,1072,l),
(1260,1448,l),
(124,1448,l),
(124,1056,l)
);
}
);
width = 1392;
},
{
associatedMasterId = m01;
layerId = "65B8231A-9CCF-48B1-8C6D-536586C5C65E";
metricLeft = "=I*.754";
metricRight = "=|Z";
name = "Apr 14, 23 15:46";
shapes = (
{
attr = {
strokePos = "0";
strokeWidth = 164;
};
closed = 0;
nodes = (
(106,1448,l),
(1250,1448,l)
);
},
{
attr = {
strokePos = 1;
strokeWidth = 164;
};
closed = 0;
nodes = (
(106,0,l),
(1250,0,l)
);
},
{
attr = {
lineCapEnd = "4";
lineCapStart = "4";
strokeWidth = 168;
};
closed = 0;
nodes = (
(1140,1284,l),
(214,164,l)
);
}
);
width = 1356;
},
{
associatedMasterId = "94F54C43-8AEE-4ED6-B3C2-2A9D33534E61";
layerId = "8F39DBDD-F60B-4DB4-950F-5DD2AC36814E";
name = "Apr 14, 23 15:46";
shapes = (
{
attr = {
strokePos = "0";
strokeWidth = 392;
};
closed = 0;
nodes = (
(116,1448,l),
(1292,1448,l)
);
},
{
attr = {
strokePos = "1";
strokeWidth = 392;
};
closed = 0;
nodes = (
(116,0,l),
(1292,0,l)
);
},
{
attr = {
lineCapEnd = 4;
lineCapStart = 4;
strokeWidth = 440;
};
closed = 0;
nodes = (
(998,1056,l),
(408,392,l)
);
}
);
width = 1342;
}
);
metricLeft = I;
metricRight = I;
unicode = 90;
}
{
color = 11;
glyphname = bracketleft;
kernRight = parenleft;
layers = (
{
layerId = m01;
shapes = (
{
attr = {
lineCapEnd = "4";
lineCapStart = "4";
strokeHeight = 172;
strokePos = "1";
strokeWidth = 184;
};
closed = 0;
nodes = (
(158,1448,l),
(158,-432,l)
);
},
{
attr = {
lineCapEnd = "4";
lineCapStart = "4";
strokeHeight = 172;
strokePos = "1";
strokeWidth = 184;
};
closed = 0;
nodes = (
(604,1448,l),
(158,1448,l),
(158,-432,l),
(604,-432,l)
);
}
);
width = 640;
},
{
layerId = "94F54C43-8AEE-4ED6-B3C2-2A9D33534E61";
shapes = (
{
attr = {
lineCapEnd = "4";
lineCapStart = "4";
strokeHeight = 384;
strokePos = 1;
strokeWidth = 404;
};
closed = 0;
nodes = (
(166,1448,l),
(166,-432,l)
);
},
{
attr = {
lineCapEnd = "4";
lineCapStart = "4";
strokeHeight = 384;
strokePos = 1;
strokeWidth = 404;
};
closed = 0;
nodes = (
(844,1448,l),
(166,1448,l),
(166,-432,l),
(844,-432,l)
);
}
);
width = 880;
},
{
associatedMasterId = m01;
layerId = "93D22BB2-1F35-4F69-935F-EBB6D74CA07F";
name = Paren;
shapes = (
{
alignment = 1;
ref = parenleft;
}
);
width = 640;
},
{
associatedMasterId = "94F54C43-8AEE-4ED6-B3C2-2A9D33534E61";
layerId = "788F8B84-0499-46B7-896D-A6289D75DA66";
name = Paren;
shapes = (
{
alignment = 1;
ref = parenleft;
}
);
width = 880;
}
);
metricWidth = parenleft;
unicode = 91;
}
{
color = 11;
glyphname = asciicircum;
layers = (
{
background = {
shapes = (
{
attr = {
lineCapEnd = "4";
lineCapStart = "4";
strokeHeight = 168;
strokeWidth = 172;
};
closed = 0;
nodes = (
(242,760,l),
(638,1448,l)
);
},
{
attr = {
lineCapEnd = "4";
lineCapStart = "4";
strokeHeight = 168;
strokeWidth = 172;
};
closed = 0;
nodes = (
(642,1448,l),
(1038,760,l)
);
}
);
};
layerId = m01;
metricRight = "=|";
shapes = (
{
closed = 1;
nodes = (
(342,760,l),
(738,1448,l),
(540,1448,l),
(144,760,l)
);
},
{
closed = 1;
nodes = (
(1136,760,l),
(740,1448,l),
(542,1448,l),
(938,760,l)
);
}
);
width = 1280;
},
{
background = {
shapes = (
{
attr = {
lineCapEnd = "4";
lineCapStart = "4";
strokeHeight = 352;
strokeWidth = 368;
};
closed = 0;
nodes = (
(322,760,l),
(718,1448,l)
);
},
{
attr = {
lineCapEnd = "4";
lineCapStart = "4";
strokeHeight = 352;
strokeWidth = 368;
};
closed = 0;
nodes = (
(722,1448,l),
(1118,760,l)
);
}
);
};
layerId = "94F54C43-8AEE-4ED6-B3C2-2A9D33534E61";
metricRight = "=|";
shapes = (
{
closed = 1;
nodes = (
(532,760,l),
(928,1448,l),
(508,1448,l),
(112,760,l)
);
},
{
closed = 1;
nodes = (
(1328,760,l),
(932,1448,l),
(512,1448,l),
(908,760,l)
);
}
);
width = 1440;
},
{
associatedMasterId = m01;
layerId = "0841F33F-9772-42C3-BF7F-DC0C22C85810";
name = "May 12, 23 11:03";
shapes = (
{
attr = {
lineCapEnd = "4";
lineCapStart = "4";
strokeHeight = 168;
strokeWidth = 172;
};
closed = 0;
nodes = (
(250,760,l),
(638,1364,l),
(642,1364,l),
(1030,760,l)
);
}
);
width = 1280;
}
);
metricWidth = plus;
unicode = 94;
}
{
color = 11;
glyphname = underscore;
kernLeft = underscore;
kernRight = underscore;
layers = (
{
background = {
shapes = (
{
closed = 1;
nodes = (
(1024,-96,l),
(0,-96,l)
);
}
);
};
layerId = m01;
shapes = (
{
alignment = -1;
piece = {
Case = 0;
Space = 0;
Width = 1024;
};
pos = (0,-720);
ref = _smart.horizontalbar;
}
);
width = 1024;
},
{
background = {
shapes = (
{
closed = 1;
nodes = (
(1024,-96,l),
(0,-96,l)
);
}
);
};
layerId = "94F54C43-8AEE-4ED6-B3C2-2A9D33534E61";
shapes = (
{
alignment = -1;
piece = {
Case = 0;
Space = 0;
Width = 1024;
};
pos = (0,-812);
ref = _smart.horizontalbar;
}
);
width = 1024;
}
);
metricWidth = endash;
unicode = 95;
}
{
glyphname = a;
kernLeft = o;
kernRight = a;
layers = (
{
layerId = m01;
shapes = (
{
closed = 1;
nodes = (
(1092,0,l),
(1092,1032,l),
(920,1032,l),
(920,824,l),
(966,516,l),
(920,242,l),
(920,0,l)
);
},
{
pos = (920,0);
ref = _smart.bowl;
scale = (-1,1);
}
);
width = 1224;
},
{
layerId = "94F54C43-8AEE-4ED6-B3C2-2A9D33534E61";
shapes = (
{
closed = 1;
nodes = (
(1192,0,l),
(1192,1032,l),
(808,1032,l),
(808,824,l),
(854,516,l),
(808,242,l),
(808,0,l)
);
},
{
pos = (808,0);
ref = _smart.bowl;
scale = (-1,1);
}
);
width = 1300;
},
{
associatedMasterId = m01;
layerId = "63B3D984-903F-4277-A0F8-9F1F4F7423C9";
name = "Wanted Logotype";
shapes = (
{
closed = 1;
nodes = (
(410,180,o),
(264,334,o),
(264,516,cs),
(264,698,o),
(410,852,o),
(588,852,cs),
(766,852,o),
(912,698,o),
(912,516,cs),
(912,334,o),
(766,180,o),
(588,180,cs)
);
},
{
closed = 1;
nodes = (
(50,214,o),
(284,-28,o),
(588,-28,cs),
(720,-28,o),
(830,28,o),
(892,116,c),
(892,-8,l),
(1110,-8,l),
(1110,1040,l),
(892,1040,l),
(892,926,l),
(830,1008,o),
(718,1060,o),
(586,1060,cs),
(282,1060,o),
(50,816,o),
(50,516,cs)
);
}
);
width = 1200;
}
);
metricLeft = o;
metricRight = l;
unicode = 97;
}
{
glyphname = b;
layers = (
{
background = {
shapes = (
{
ref = n;
}
);
};
layerId = m01;
shapes = (
{
closed = 1;
nodes = (
(292,0,l),
(292,242,l),
(246,514,l),
(292,824,l),
(292,1446,l),
(120,1446,l),
(120,0,l)
);
},
{
closed = 1;
nodes = (
(946,-28,o),
(1114,204,o),
(1114,514,cs),
(1114,824,o),
(948,1058,o),
(652,1058,cs),
(382,1058,o),
(216,868,o),
(216,514,cs),
(216,172,o),
(380,-28,o),
(652,-28,cs)
);
},
{
closed = 1;
nodes = (
(422,134,o),
(284,290,o),
(284,514,cs),
(284,738,o),
(422,894,o),
(612,894,cs),
(802,894,o),
(938,738,o),
(938,514,cs),
(938,290,o),
(802,134,o),
(612,134,cs)
);
}
);
width = 1186;
},
{
background = {
shapes = (
{
ref = n;
}
);
};
layerId = "94F54C43-8AEE-4ED6-B3C2-2A9D33534E61";
shapes = (
{
closed = 1;
nodes = (
(496,0,l),
(496,242,l),
(450,514,l),
(496,824,l),
(496,1446,l),
(112,1446,l),
(112,0,l)
);
},
{
closed = 1;
nodes = (
(1016,-28,o),
(1198,196,o),
(1198,514,cs),
(1198,834,o),
(1016,1058,o),
(758,1058,cs),
(528,1058,o),
(428,892,o),
(428,514,cs),
(428,136,o),
(528,-28,o),
(758,-28,cs)
);
},
{
closed = 1;
nodes = (
(558,330,o),
(488,406,o),
(488,514,cs),
(488,622,o),
(558,698,o),
(656,698,cs),
(752,698,o),
(822,622,o),
(822,514,cs),
(822,406,o),
(752,330,o),
(656,330,cs)
);
}
);
width = 1238;
},
{
associatedMasterId = m01;
background = {
shapes = (
{
closed = 1;
nodes = (
(440,180,o),
(292,334,o),
(292,514,cs),
(292,696,o),
(440,850,o),
(618,850,cs),
(796,850,o),
(942,696,o),
(942,514,cs),
(942,334,o),
(796,180,o),
(618,180,cs)
);
},
{
closed = 1;
nodes = (
(1154,816,o),
(922,1058,o),
(620,1058,cs),
(486,1058,o),
(376,1008,o),
(314,926,c),
(314,1500,l),
(98,1500,l),
(98,-8,l),
(314,-8,l),
(314,118,l),
(376,28,o),
(484,-28,o),
(618,-28,cs),
(920,-28,o),
(1154,214,o),
(1154,514,cs)
);
}
);
};
layerId = "645AF917-8E24-4810-84F4-B801F8634341";
name = "Wanted Logotype";
shapes = (
{
alignment = -1;
ref = l;
},
{
closed = 1;
nodes = (
(440,180,o),
(292,334,o),
(292,514,cs),
(292,696,o),
(440,850,o),
(618,850,cs),
(796,850,o),
(942,696,o),
(942,514,cs),
(942,334,o),
(796,180,o),
(618,180,cs)
);
},
{
closed = 1;
nodes = (
(1154,816,o),
(922,1058,o),
(620,1058,cs),
(486,1058,o),
(376,1008,o),
(314,926,c),
(314,1500,l),
(98,1500,l),
(98,-8,l),
(314,-8,l),
(314,118,l),
(376,28,o),
(484,-28,o),
(618,-28,cs),
(920,-28,o),
(1154,214,o),
(1154,514,cs)
);
}
);
width = 1200;
},
{
associatedMasterId = m01;
background = {
shapes = (
{
closed = 1;
nodes = (
(294,-2,l),
(294,150,l),
(360,36,o),
(478,-28,o),
(628,-28,cs),
(936,-28,o),
(1110,214,o),
(1110,520,cs),
(1110,822,o),
(948,1060,o),
(636,1060,cs),
(464,1060,o),
(344,978,o),
(294,884,c),
(294,1552,l),
(94,1552,l),
(94,-2,l)
);
},
{
closed = 1;
nodes = (
(904,298,o),
(784,152,o),
(600,152,cs),
(420,152,o),
(292,298,o),
(292,520,cs),
(292,742,o),
(420,882,o),
(600,882,cs),
(786,882,o),
(904,742,o),
(904,520,cs)
);
}
);
};
layerId = "3D8ACF31-62B6-42F3-8F22-1892CD4D8573";
name = Circular;
shapes = (
{
closed = 1;
nodes = (
(294,-2,l),
(294,150,l),
(360,36,o),
(478,-28,o),
(628,-28,cs),
(936,-28,o),
(1110,214,o),
(1110,520,cs),
(1110,822,o),
(948,1060,o),
(636,1060,cs),
(464,1060,o),
(344,978,o),
(294,884,c),
(294,1552,l),
(94,1552,l),
(94,-2,l)
);
},
{
closed = 1;
nodes = (
(904,298,o),
(784,152,o),
(600,152,cs),
(420,152,o),
(292,298,o),
(292,520,cs),
(292,742,o),
(420,882,o),
(600,882,cs),
(786,882,o),
(904,742,o),
(904,520,cs)
);
}
);
width = 1200;
},
{
associatedMasterId = m01;
background = {
shapes = (
{
closed = 1;
nodes = (
(958,-28,o),
(1182,226,o),
(1182,522,cs),
(1182,814,o),
(954,1060,o),
(686,1060,cs),
(518,1060,o),
(386,986,o),
(296,828,c),
(292,828,l),
(292,1624,l),
(74,1624,l),
(74,0,l),
(292,0,l),
(292,218,l),
(296,218,l),
(364,78,o),
(520,-28,o),
(700,-28,cs)
);
},
{
closed = 1;
nodes = (
(416,178,o),
(262,326,o),
(262,522,cs),
(262,710,o),
(424,864,o),
(602,864,cs),
(802,864,o),
(950,708,o),
(950,522,cs),
(950,330,o),
(796,178,o),
(614,178,cs)
);
}
);
};
layerId = "D2938353-A5E0-40F8-A056-446F94886932";
name = "o 92.5%";
shapes = (
{
closed = 1;
nodes = (
(966,-28,o),
(1182,204,o),
(1182,514,cs),
(1182,824,o),
(966,1058,o),
(680,1058,cs),
(392,1058,o),
(176,824,o),
(176,514,cs),
(176,204,o),
(392,-28,o),
(680,-28,cs)
);
},
{
closed = 1;
nodes = (
(488,134,o),
(352,290,o),
(352,514,cs),
(352,738,o),
(488,894,o),
(680,894,cs),
(870,894,o),
(1006,738,o),
(1006,514,cs),
(1006,290,o),
(870,134,o),
(680,134,cs)
);
}
);
width = 1266;
},
{
associatedMasterId = m01;
background = {
shapes = (
{
closed = 1;
nodes = (
(962,-28,o),
(1194,204,o),
(1194,514,cs),
(1194,824,o),
(962,1058,o),
(652,1058,cs),
(340,1058,o),
(108,824,o),
(108,514,cs),
(108,204,o),
(340,-28,o),
(652,-28,cs)
);
},
{
closed = 1;
nodes = (
(436,134,o),
(284,290,o),
(284,514,cs),
(284,738,o),
(436,894,o),
(652,894,cs),
(866,894,o),
(1018,738,o),
(1018,514,cs),
(1018,290,o),
(866,134,o),
(652,134,cs)
);
}
);
};
layerId = "860789D8-7E4C-4432-BA2F-8EDE434BCFAB";
name = "o 100%";
shapes = (
{
closed = 1;
nodes = (
(292,0,l),
(292,242,l),
(254,514,l),
(300,824,l),
(300,1446,l),
(120,1446,l),
(120,0,l)
);
},
{
closed = 1;
nodes = (
(984,-28,o),
(1194,204,o),
(1194,514,cs),
(1194,824,o),
(988,1058,o),
(688,1058,cs),
(396,1058,o),
(200,836,o),
(200,514,cs),
(200,216,o),
(392,-28,o),
(688,-28,cs)
);
},
{
closed = 1;
nodes = (
(438,134,o),
(292,290,o),
(292,514,cs),
(292,738,o),
(438,894,o),
(652,894,cs),
(866,894,o),
(1018,738,o),
(1018,514,cs),
(1018,290,o),
(866,134,o),
(652,134,cs)
);
}
);
width = 1266;
},
{
associatedMasterId = "94F54C43-8AEE-4ED6-B3C2-2A9D33534E61";
layerId = "97D2EE62-1D91-4F19-9122-626830D71A1D";
name = "o 100%";
shapes = (
{
closed = 1;
nodes = (
(894,-28,o),
(1126,204,o),
(1126,514,cs),
(1126,824,o),
(894,1058,o),
(584,1058,cs),
(272,1058,o),
(40,824,o),
(40,514,cs),
(40,204,o),
(272,-28,o),
(584,-28,cs)
);
},
{
closed = 1;
nodes = (
(486,330,o),
(416,406,o),
(416,514,cs),
(416,622,o),
(486,698,o),
(584,698,cs),
(680,698,o),
(750,622,o),
(750,514,cs),
(750,406,o),
(680,330,o),
(584,330,cs)
);
}
);
width = 1200;
}
);
metricLeft = n;
metricRight = o;
unicode = 98;
}
{
glyphname = c;
layers = (
{
layerId = m01;
metricRight = "=o/1.5";
shapes = (
{
closed = 1;
nodes = (
(750,-28,o),
(886,42,o),
(988,140,c),
(870,258,l),
(800,186,o),
(702,136,o),
(594,136,cs),
(402,136,o),
(248,296,o),
(248,516,cs),
(248,738,o),
(402,896,o),
(594,896,cs),
(702,896,o),
(800,846,o),
(870,774,c),
(988,892,l),
(886,990,o),
(750,1060,o),
(594,1060,cs),
(300,1060,o),
(72,824,o),
(72,516,cs),
(72,210,o),
(300,-28,o),
(594,-28,cs)
);
}
);
width = 1036;
},
{
background = {
shapes = (
{
ref = o;
}
);
};
layerId = "94F54C43-8AEE-4ED6-B3C2-2A9D33534E61";
metricRight = "=o/1.51";
shapes = (
{
closed = 1;
nodes = (
(752,-28,o),
(886,32,o),
(1006,144,c),
(782,400,l),
(746,364,o),
(682,332,o),
(612,332,cs),
(502,332,o),
(414,412,o),
(414,516,cs),
(414,620,o),
(502,700,o),
(612,700,cs),
(682,700,o),
(746,668,o),
(782,632,c),
(1006,888,l),
(886,1000,o),
(752,1060,o),
(596,1060,cs),
(284,1060,o),
(40,824,o),
(40,516,cs),
(40,208,o),
(284,-28,o),
(596,-28,cs)
);
}
);
width = 1032;
},
{
associatedMasterId = m01;
background = {
shapes = (
{
closed = 0;
nodes = (
(602,516,l),
(602,-148,l)
);
},
{
closed = 0;
nodes = (
(1070,48,l),
(602,516,l),
(1070,984,l)
);
},
{
closed = 1;
nodes = (
(926,980,o),
(720,1060,o),
(606,1060,qs),
(486,1060,o),
(290,978,o),
(146,832,o),
(68,634,o),
(68,516,qs),
(68,396,o),
(146,198,o),
(286,52,o),
(486,-28,o),
(606,-28,qs),
(718,-28,o),
(922,52,o),
(998,138,q),
(868,260,l),
(774,132,o),
(606,132,qs),
(526,132,o),
(398,190,o),
(306,298,o),
(254,438,o),
(254,516,qs),
(254,594,o),
(300,734,o),
(386,842,o),
(518,900,o),
(606,900,qs),
(684,900,o),
(812,842,o),
(866,774,q),
(1004,896,l)
);
}
);
};
layerId = "CE918CFC-8F0B-4DF1-B702-E01F641B3CAA";
name = "o right 90%";
shapes = (
{
attr = {
lineCapStart = 3;
strokeHeight = 164;
strokeWidth = 176;
};
closed = 0;
nodes = (
(906,820,l),
(834,918,o),
(726,978,o),
(592,978,cs),
(350,978,o),
(160,780,o),
(160,516,c)
);
}
);
width = 1204;
},
{
associatedMasterId = "94F54C43-8AEE-4ED6-B3C2-2A9D33534E61";
background = {
shapes = (
{
attr = {
strokeHeight = 360;
strokeWidth = 376;
};
closed = 1;
nodes = (
(808,152,o),
(968,308,o),
(968,516,cs),
(968,724,o),
(808,880,o),
(598,880,cs),
(388,880,o),
(228,724,o),
(228,516,cs),
(228,308,o),
(388,152,o),
(598,152,cs)
);
},
{
closed = 0;
nodes = (
(598,516,l),
(598,-148,l)
);
},
{
closed = 0;
nodes = (
(1066,48,l),
(598,516,l),
(1066,984,l)
);
},
{
closed = 1;
nodes = (
(446,634,o),
(510,696,o),
(642,696,cs),
(668,696,o),
(710,684,o),
(732,646,c),
(998,934,l),
(896,1028,o),
(746,1056,o),
(642,1056,cs),
(326,1056,o),
(40,856,o),
(40,512,cs),
(40,168,o),
(326,-32,o),
(642,-32,cs),
(746,-32,o),
(896,-4,o),
(998,90,c),
(732,378,l),
(710,346,o),
(668,328,o),
(642,328,cs),
(510,328,o),
(446,390,o),
(446,512,cs)
);
}
);
};
layerId = "6A091AD4-59F1-4097-A409-E62F34DC331D";
name = "o 100%";
shapes = (
{
attr = {
lineCapStart = 3;
strokeHeight = 360;
strokeWidth = 376;
};
closed = 0;
nodes = (
(860,776,l),
(792,842,o),
(702,880,o),
(598,880,cs),
(388,880,o),
(228,724,o),
(228,516,c)
);
}
);
width = 1196;
},
{
associatedMasterId = "94F54C43-8AEE-4ED6-B3C2-2A9D33534E61";
layerId = "E8CB94E6-9B41-48C3-9CFD-98FBD5E5DC7D";
metricRight = "=o/2";
name = "Apr 6, 23 14:26";
shapes = (
{
closed = 1;
nodes = (
(760,-28,o),
(886,38,o),
(1004,176,c),
(744,404,l),
(702,354,o),
(646,332,o),
(594,332,cs),
(494,332,o),
(414,412,o),
(414,516,cs),
(414,620,o),
(494,700,o),
(594,700,cs),
(646,700,o),
(702,678,o),
(744,628,c),
(1004,856,l),
(886,994,o),
(760,1060,o),
(596,1060,cs),
(284,1060,o),
(40,824,o),
(40,516,cs),
(40,208,o),
(284,-28,o),
(596,-28,cs)
);
}
);
width = 1024;
},
{
associatedMasterId = "94F54C43-8AEE-4ED6-B3C2-2A9D33534E61";
background = {
shapes = (
{
closed = 1;
nodes = (
(1006,888,l),
(908,992,o),
(766,1060,o),
(574,1060,cs),
(276,1060,o),
(26,814,o),
(26,514,cs),
(26,216,o),
(272,-28,o),
(586,-28,cs),
(758,-28,o),
(916,46,o),
(994,142,c),
(802,428,l),
(742,368,o),
(684,336,o),
(594,336,cs),
(484,336,o),
(414,412,o),
(414,514,cs),
(414,616,o),
(482,694,o),
(594,694,cs),
(676,694,o),
(730,668,o),
(788,614,c)
);
}
);
};
layerId = "3B1AE179-7683-435F-A401-74E52BF29EC4";
metricRight = "=o/1.51";
name = "Apr 6, 23 14:42";
shapes = (
{
closed = 1;
nodes = (
(752,-28,o),
(886,32,o),
(1006,144,c),
(782,400,l),
(746,364,o),
(682,332,o),
(612,332,cs),
(502,332,o),
(414,412,o),
(414,516,cs),
(414,620,o),
(502,700,o),
(612,700,cs),
(682,700,o),
(746,668,o),
(782,632,c),
(1006,888,l),
(886,1000,o),
(752,1060,o),
(596,1060,cs),
(284,1060,o),
(40,824,o),
(40,516,cs),
(40,208,o),
(284,-28,o),
(596,-28,cs)
);
}
);
width = 1032;
}
);
metricLeft = o;
unicode = 99;
}
{
color = 11;
glyphname = f;
kernLeft = f;
kernRight = f;
layers = (
{
layerId = m01;
shapes = (
{
ref = _smart.crossbar;
},
{
piece = {
Group = 1;
};
pos = (144,0);
ref = _part.fbase;
}
);
width = 824;
},
{
background = {
shapes = (
{
closed = 1;
nodes = (
(952,1560,l),
(0,1560,l)
);
}
);
};
layerId = "94F54C43-8AEE-4ED6-B3C2-2A9D33534E61";
shapes = (
{
ref = _smart.crossbar;
},
{
piece = {
Group = 1;
};
pos = (120,0);
ref = _part.fbase;
}
);
width = 952;
}
);
unicode = 102;
}
{
glyphname = g;
kernLeft = g;
kernRight = j;
layers = (
{
annotations = (
{
pos = (304.754,-39.713);
text = "조금 더 들어와도 괜찮겠다";
type = Text;
}
);
layerId = m01;
shapes = (
{
piece = {
Height = 100;
};
pos = (920,0);
ref = _smart.bowl;
scale = (-1,1);
},
{
ref = _part.gbase;
}
);
width = 1224;
},
{
layerId = "94F54C43-8AEE-4ED6-B3C2-2A9D33534E61";
shapes = (
{
piece = {
Height = 100;
};
pos = (808,0);
ref = _smart.bowl;
scale = (-1,1);
},
{
ref = _part.gbase;
}
);
width = 1316;
},
{
associatedMasterId = m01;
background = {
shapes = (
{
closed = 1;
nodes = (
(798,-478,o),
(1074,-216,o),
(1074,34,qs),
(1074,1028,l),
(910,1028,l),
(910,880,l),
(904,880,l),
(852,960,o),
(668,1058,o),
(548,1058,qs),
(416,1058,o),
(194,920,o),
(66,672,o),
(66,516,qs),
(66,358,o),
(194,110,o),
(416,-28,o),
(548,-28,qs),
(668,-28,o),
(852,72,o),
(904,150,q),
(910,150,l),
(910,34,ls),
(910,-136,o),
(734,-320,o),
(574,-320,qs),
(466,-320,o),
(304,-212,o),
(270,-120,q),
(112,-188,l),
(154,-306,o),
(392,-478,o),
(574,-478,qs)
);
},
{
closed = 1;
nodes = (
(482,130,o),
(328,220,o),
(236,396,o),
(236,516,qs),
(236,634,o),
(328,810,o),
(482,904,o),
(574,904,qs),
(668,904,o),
(820,810,o),
(910,636,o),
(910,516,qs),
(910,396,o),
(820,222,o),
(668,130,o),
(574,130,qs)
);
}
);
};
layerId = "94F7BA1B-5265-4F9B-BE4F-BE47E56133F8";
name = "o 90%";
shapes = (
{
closed = 1;
nodes = (
(1080,1032,l),
(908,1032,l),
(908,824,l),
(954,516,l),
(908,242,l),
(908,0,l),
(1080,0,l)
);
},
{
piece = {
Height = 100;
};
pos = (908,0);
ref = _smart.bowl;
scale = (-1,1);
},
{
attr = {
strokeHeight = 164;
strokeWidth = 172;
};
closed = 0;
nodes = (
(198,0,l),
(198,-238,o),
(370,-416,o),
(596,-416,cs),
(824,-416,o),
(994,-238,o),
(994,0,c)
);
}
);
width = 1200;
},
{
associatedMasterId = m01;
background = {
shapes = (
{
closed = 1;
nodes = (
(798,-462,o),
(1074,-200,o),
(1074,50,qs),
(1074,1044,l),
(910,1044,l),
(910,896,l),
(904,896,l),
(852,976,o),
(668,1074,o),
(548,1074,qs),
(416,1074,o),
(194,936,o),
(66,688,o),
(66,532,qs),
(66,374,o),
(194,126,o),
(416,-12,o),
(548,-12,qs),
(668,-12,o),
(852,88,o),
(904,166,q),
(910,166,l),
(910,50,ls),
(910,-120,o),
(734,-304,o),
(574,-304,qs),
(466,-304,o),
(304,-196,o),
(270,-104,q),
(112,-172,l),
(154,-290,o),
(392,-462,o),
(574,-462,qs)
);
},
{
closed = 1;
nodes = (
(482,146,o),
(328,236,o),
(236,412,o),
(236,532,qs),
(236,650,o),
(328,826,o),
(482,920,o),
(574,920,qs),
(668,920,o),
(820,826,o),
(910,652,o),
(910,532,qs),
(910,412,o),
(820,238,o),
(668,146,o),
(574,146,qs)
);
}
);
};
layerId = "7B497B57-E7A3-4F00-96DE-7733C0B64E4D";
name = "Google Sans Base";
shapes = (
{
closed = 1;
nodes = (
(1080,1032,l),
(908,1032,l),
(908,824,l),
(954,516,l),
(908,242,l),
(908,36,l),
(1080,36,l)
);
},
{
piece = {
Height = 100;
};
pos = (908,0);
ref = _smart.bowl;
scale = (-1,1);
},
{
attr = {
strokeHeight = 164;
strokeWidth = 172;
};
closed = 0;
nodes = (
(188,-138,l),
(272,-308,o),
(378,-380,o),
(592,-380,cs),
(832,-380,o),
(994,-210,o),
(994,36,c)
);
}
);
width = 1200;
},
{
associatedMasterId = m01;
background = {
shapes = (
{
closed = 1;
nodes = (
(916,976,l),
(916,816,l),
(914,816,l),
(886,862,o),
(816,934,o),
(726,980,o),
(626,1004,o),
(578,1004,qs),
(464,1004,o),
(276,934,o),
(144,804,o),
(72,618,o),
(72,504,qs),
(72,400,o),
(144,218,o),
(278,84,o),
(466,12,o),
(578,12,qs),
(672,12,o),
(854,98,o),
(914,190,q),
(916,190,l),
(916,70,ls),
(916,-8,o),
(882,-148,o),
(804,-252,o),
(662,-316,o),
(556,-316,qs),
(446,-316,o),
(278,-232,o),
(204,-152,q),
(90,-282,l),
(194,-382,o),
(416,-462,o),
(556,-462,qs),
(808,-462,o),
(1074,-194,o),
(1074,70,qs),
(1074,976,l)
);
},
{
closed = 1;
nodes = (
(292,708,o),
(378,800,o),
(504,854,o),
(578,854,qs),
(652,854,o),
(778,804,o),
(868,714,o),
(916,584,o),
(916,508,qs),
(916,438,o),
(872,314,o),
(784,218,o),
(658,158,o),
(578,158,qs),
(510,158,o),
(386,214,o),
(296,306,o),
(242,432,o),
(242,504,qs),
(242,578,o)
);
}
);
};
layerId = "DB54FFB6-FD76-4C73-BB9D-8E4088DF9AD9";
name = "Avenir Base";
shapes = (
{
closed = 1;
nodes = (
(1080,1032,l),
(908,1032,l),
(908,824,l),
(954,516,l),
(908,242,l),
(908,102,l),
(1080,102,l)
);
},
{
piece = {
Height = 100;
};
pos = (908,0);
ref = _smart.bowl;
scale = (-1,1);
},
{
attr = {
strokeHeight = 164;
strokeWidth = 172;
};
closed = 0;
nodes = (
(144,-210,l),
(226,-288,o),
(346,-380,o),
(548,-380,cs),
(824,-380,o),
(994,-204,o),
(994,102,c)
);
}
);
width = 1200;
},
{
associatedMasterId = "94F54C43-8AEE-4ED6-B3C2-2A9D33534E61";
layerId = "D71E5938-C6E8-40E7-A9D7-8C0314D23C03";
name = "Avenir Base";
shapes = (
{
closed = 1;
nodes = (
(1180,1032,l),
(796,1032,l),
(796,824,l),
(842,516,l),
(796,242,l),
(796,102,l),
(1180,102,l)
);
},
{
piece = {
Height = 100;
};
pos = (796,0);
ref = _smart.bowl;
scale = (-1,1);
},
{
attr = {
strokeHeight = 336;
strokeWidth = 384;
};
closed = 0;
nodes = (
(164,-162,l),
(242,-222,o),
(356,-294,o),
(548,-294,cs),
(824,-294,o),
(988,-148,o),
(988,102,c)
);
}
);
width = 1276;
}
);
metricLeft = o;
metricRight = l;
unicode = 103;
}
{
glyphname = k;
kernLeft = l;
kernRight = x;
layers = (
{
background = {
shapes = (
{
closed = 0;
nodes = (
(82,540,l),
(1152,540,l)
);
}
);
};
layerId = m01;
shapes = (
{
closed = 1;
nodes = (
(946,0,l),
(466,540,l),
(260,540,l),
(260,532,l),
(724,0,l)
);
},
{
alignment = -1;
ref = l;
},
{
closed = 1;
nodes = (
(466,540,l),
(930,1032,l),
(706,1032,l),
(260,544,l),
(260,540,l)
);
}
);
width = 978;
},
{
layerId = "94F54C43-8AEE-4ED6-B3C2-2A9D33534E61";
shapes = (
{
closed = 1;
nodes = (
(1198,0,l),
(848,540,l),
(416,540,l),
(416,528,l),
(760,0,l)
);
},
{
alignment = -1;
ref = l;
},
{
closed = 1;
nodes = (
(848,540,l),
(1192,1032,l),
(742,1032,l),
(416,548,l),
(416,540,l)
);
}
);
width = 1222;
},
{
associatedMasterId = m01;
background = {
shapes = (
{
closed = 0;
nodes = (
(82,540,l),
(1152,540,l)
);
},
{
pos = (-92,0);
ref = x;
}
);
};
layerId = "6FEC1728-80A2-4202-94C9-45ABB014C6B8";
name = "Apr 7, 23 16:29";
shapes = (
{
closed = 1;
nodes = (
(946,0,l),
(466,540,l),
(260,540,l),
(260,532,l),
(724,0,l)
);
},
{
alignment = -1;
ref = l;
},
{
closed = 1;
nodes = (
(466,540,l),
(930,1032,l),
(706,1032,l),
(260,544,l),
(260,540,l)
);
}
);
width = 978;
}
);
metricLeft = l;
metricRight = x;
unicode = 107;
}
{
glyphname = l;
layers = (
{
anchors = (
{
name = "#exit";
pos = (292,0);
}
);
layerId = m01;
metricRight = "=|l";
shapes = (
{
closed = 1;
nodes = (
(292,0,l),
(292,1446,l),
(120,1446,l),
(120,0,l)
);
}
);
width = 412;
},
{
anchors = (
{
name = "#exit";
pos = (480,0);
}
);
layerId = "94F54C43-8AEE-4ED6-B3C2-2A9D33534E61";
metricRight = "=|l";
shapes = (
{
closed = 1;
nodes = (
(480,0,l),
(480,1448,l),
(96,1448,l),
(96,0,l)
);
}
);
width = 576;
}
);
metricLeft = n;
metricRight = idotless;
unicode = 108;
}
{
glyphname = o;
layers = (
{
layerId = m01;
shapes = (
{
closed = 1;
nodes = (
(926,-28,o),
(1158,204,o),
(1158,514,cs),
(1158,824,o),
(926,1058,o),
(616,1058,cs),
(304,1058,o),
(72,824,o),
(72,514,cs),
(72,204,o),
(304,-28,o),
(616,-28,cs)
);
},
{
closed = 1;
nodes = (
(400,134,o),
(248,290,o),
(248,514,cs),
(248,738,o),
(400,894,o),
(616,894,cs),
(830,894,o),
(982,738,o),
(982,514,cs),
(982,290,o),
(830,134,o),
(616,134,cs)
);
}
);
width = 1230;
},
{
layerId = "94F54C43-8AEE-4ED6-B3C2-2A9D33534E61";
shapes = (
{
closed = 1;
nodes = (
(886,-28,o),
(1118,204,o),
(1118,514,cs),
(1118,824,o),
(886,1058,o),
(576,1058,cs),
(264,1058,o),
(32,824,o),
(32,514,cs),
(32,204,o),
(264,-28,o),
(576,-28,cs)
);
},
{
closed = 1;
nodes = (
(478,330,o),
(408,406,o),
(408,514,cs),
(408,622,o),
(478,698,o),
(576,698,cs),
(672,698,o),
(742,622,o),
(742,514,cs),
(742,406,o),
(672,330,o),
(576,330,cs)
);
}
);
width = 1150;
}
);
unicode = 111;
}
{
glyphname = r;
kernLeft = n;
kernRight = r;
layers = (
{
annotations = (
{
pos = (570,1152);
text = "조금 더 넓힐까?";
type = Text;
}
);
background = {
shapes = (
{
ref = n;
}
);
};
layerId = m01;
shapes = (
{
ref = _smart.lowerstem;
},
{
pos = (304,0);
ref = _part.rbase;
}
);
width = 790;
},
{
background = {
shapes = (
{
pos = (8,0);
ref = n;
},
{
closed = 1;
nodes = (
(766,1048,l),
(858,1048,l),
(858,1060,l),
(766,1060,l)
);
}
);
};
layerId = "94F54C43-8AEE-4ED6-B3C2-2A9D33534E61";
shapes = (
{
ref = _smart.lowerstem;
},
{
pos = (508,0);
ref = _part.rbase;
}
);
width = 968;
},
{
associatedMasterId = m01;
background = {
shapes = (
{
closed = 1;
nodes = (
(292,0,l),
(292,502,ls),
(292,680,o),
(436,886,o),
(594,886,qs),
(644,886,o),
(688,872,q),
(698,1046,l),
(680,1054,o),
(646,1058,o),
(628,1058,qs),
(564,1058,o),
(454,1024,o),
(366,970,o),
(302,898,o),
(284,862,q),
(280,862,l),
(280,906,o),
(274,990,o),
(274,1032,q),
(112,1032,l),
(112,980,o),
(120,858,o),
(120,786,qs),
(120,0,l)
);
}
);
};
layerId = "95963C14-ADC1-497C-A4A2-47FBA2606E02";
name = "Avenir Base";
shapes = (
{
closed = 1;
nodes = (
(292,0,l),
(292,1032,l),
(120,1032,l),
(120,0,l)
);
},
{
attr = {
lineCapEnd = "4";
lineCapStart = "4";
strokeHeight = 164;
strokeWidth = 172;
};
closed = 0;
nodes = (
(678,952,ls),
(410,1054,o),
(206,820,o),
(206,516,cs)
);
}
);
width = 766;
},
{
associatedMasterId = "94F54C43-8AEE-4ED6-B3C2-2A9D33534E61";
background = {
shapes = (
{
closed = 1;
nodes = (
(480,0,l),
(480,416,ls),
(480,490,o),
(496,612,o),
(552,700,o),
(654,748,o),
(742,748,qs),
(776,748,o),
(840,738,o),
(872,728,q),
(872,1008,l),
(850,1014,o),
(796,1018,o),
(770,1018,qs),
(668,1018,o),
(532,926,o),
(484,834,q),
(480,834,l),
(480,994,l),
(172,994,l),
(172,0,l)
);
}
);
};
layerId = "CAC936D0-A462-4B54-AC26-F32D7301C818";
name = "Avenir Base";
shapes = (
{
closed = 1;
nodes = (
(480,0,l),
(480,1032,l),
(96,1032,l),
(96,0,l)
);
},
{
attr = {
lineCapEnd = "4";
lineCapStart = "4";
strokeHeight = 336;
strokeWidth = 384;
};
closed = 0;
nodes = (
(848,866,ls),
(530,968,o),
(288,734,o),
(288,430,cs)
);
}
);
width = 920;
},
{
associatedMasterId = "94F54C43-8AEE-4ED6-B3C2-2A9D33534E61";
background = {
shapes = (
{
ref = n;
},
{
closed = 1;
nodes = (
(758,1048,l),
(850,1048,l),
(850,1060,l),
(758,1060,l)
);
}
);
};
layerId = "A7C84C39-40D5-4F99-A483-17F9C8DB6CF5";
name = "Apr 5, 23 23:34";
shapes = (
{
closed = 1;
nodes = (
(480,0,l),
(480,1032,l),
(96,1032,l),
(96,0,l)
);
},
{
closed = 1;
nodes = (
(480,712,o),
(680,770,o),
(848,674,c),
(848,1048,l),
(484,1142,o),
(352,666,o),
(480,416,c)
);
}
);
width = 920;
},
{
associatedMasterId = m01;
background = {
shapes = (
{
ref = n;
}
);
};
layerId = "74889A4D-8076-4179-8837-154507509A0C";
metricRight = "=f/1.25";
name = "Apr 6, 23 15:56";
shapes = (
{
closed = 1;
nodes = (
(292,0,l),
(292,1032,l),
(120,1032,l),
(120,0,l)
);
},
{
closed = 1;
nodes = (
(292,792,o),
(428,902,o),
(624,886,c),
(624,1050,l),
(390,1114,o),
(184,858,o),
(292,516,c)
);
}
);
width = 694;
}
);
metricLeft = n;
metricRight = f;
unicode = 114;
}
{
glyphname = s;
layers = (
{
background = {
shapes = (
{
closed = 0;
nodes = (
(34,116,l),
(258,298,l)
);
},
{
closed = 0;
nodes = (
(478,896,l),
(574,896,o),
(652,852,o),
(688,782,c),
(846,856,l),
(786,974,o),
(646,1060,o),
(478,1060,c)
);
},
{
closed = 0;
nodes = (
(644,746,l),
(868,928,l)
);
},
{
closed = 0;
nodes = (
(478,1060,l),
(278,1060,o),
(108,934,o),
(108,758,cs),
(108,614,o),
(218,516,o),
(422,470,cs),
(494,454,ls),
(654,418,o),
(704,368,o),
(704,294,cs),
(704,186,o),
(596,136,o),
(470,136,cs),
(360,136,o),
(278,180,o),
(198,258,c),
(74,142,l),
(174,42,o),
(304,-28,o),
(470,-28,cs),
(666,-28,o),
(880,74,o),
(880,294,cs),
(880,454,o),
(768,562,o),
(532,614,cs),
(460,630,ls),
(328,660,o),
(284,702,o),
(284,758,cs),
(284,838,o),
(366,896,o),
(478,896,c)
);
}
);
};
layerId = m01;
shapes = (
{
closed = 1;
nodes = (
(666,-28,o),
(880,74,o),
(880,294,cs),
(880,454,o),
(768,562,o),
(532,614,cs),
(460,630,ls),
(328,660,o),
(284,702,o),
(284,758,cs),
(284,838,o),
(366,896,o),
(478,896,cs),
(568,896,o),
(650,858,o),
(696,788,c),
(830,882,l),
(770,972,o),
(646,1060,o),
(478,1060,cs),
(278,1060,o),
(108,934,o),
(108,758,cs),
(108,614,o),
(218,516,o),
(422,470,cs),
(494,454,ls),
(654,418,o),
(704,368,o),
(704,294,cs),
(704,186,o),
(596,136,o),
(470,136,cs),
(352,136,o),
(278,180,o),
(204,254,c),
(72,146,l),
(174,42,o),
(304,-28,o),
(470,-28,cs)
);
}
);
width = 952;
},
{
associatedMasterId = m01;
background = {
shapes = (
{
closed = 1;
nodes = (
(162,17.333,o),
(284,-28,o),
(460,-28,cs),
(680.291,-28,o),
(874,66.776,o),
(874,296,cs),
(874,503.088,o),
(728,570,o),
(536,606,cs),
(400,632,o),
(274,670.615,o),
(274,756,cs),
(274,855.534,o),
(391.655,900,o),
(478,900,cs),
(582,900,o),
(652.667,850.667,o),
(698,776,c),
(840,872,l),
(770.667,1002.667,o),
(636.667,1060,o),
(490,1060,cs),
(290.589,1060,o),
(102,949.925,o),
(102,754,cs),
(102,539.809,o),
(272,496,o),
(468,452,cs),
(578,428,o),
(688,397.992,o),
(688,290,cs),
(688,178.194,o),
(569.752,130,o),
(460,130,cs),
(337.333,130,o),
(262.667,184.667,o),
(196,270,c),
(58,164,l)
);
}
);
};
layerId = "465A4190-B165-4494-8ABF-A36D951D96B4";
name = "Apr 6, 23 23:05";
shapes = (
{
attr = {
strokeHeight = 164;
strokeWidth = 176;
};
closed = 0;
nodes = (
(784,722,l),
(784,862,o),
(644,978,o),
(474,978,cs),
(316,978,o),
(192,878,o),
(192,750,cs),
(192,646,o),
(278,574,o),
(446,536,cs),
(520,520,ls),
(710,480,o),
(784,416,o),
(784,292,cs),
(784,152,o),
(662,54,o),
(486,54,cs),
(300,54,o),
(160,170,o),
(160,324,c)
);
}
);
width = 944;
},
{
associatedMasterId = m01;
background = {
shapes = (
{
closed = 1;
nodes = (
(164,18,o),
(286,-28,o),
(462,-28,cs),
(682,-28,o),
(876,66,o),
(876,296,cs),
(876,504,o),
(730,570,o),
(538,606,cs),
(402,632,o),
(276,670,o),
(276,756,cs),
(276,856,o),
(394,900,o),
(480,900,cs),
(584,900,o),
(654,850,o),
(700,776,c),
(842,872,l),
(772,1002,o),
(638,1060,o),
(492,1060,cs),
(292,1060,o),
(104,950,o),
(104,754,cs),
(104,540,o),
(274,496,o),
(470,452,cs),
(580,428,o),
(690,398,o),
(690,290,cs),
(690,178,o),
(572,130,o),
(462,130,cs),
(340,130,o),
(264,184,o),
(198,270,c),
(60,164,l)
);
}
);
};
layerId = "B528B5C0-5D2E-4C27-BEA1-38ED05C883B2";
name = "Apr 6, 23 23:15";
shapes = (
{
attr = {
strokeHeight = 164;
strokeWidth = 176;
};
closed = 0;
nodes = (
(764,818,l),
(718,912,o),
(606,978,o),
(476,978,cs),
(318,978,o),
(194,878,o),
(194,750,cs),
(194,648,o),
(284,574,o),
(448,538,cs),
(522,522,ls),
(736,476,o),
(786,390,o),
(786,282,cs),
(786,142,o),
(636,54,o),
(460,54,cs),
(306,54,o),
(206,114,o),
(144,202,c)
);
}
);
width = 946;
},
{
associatedMasterId = m01;
background = {
shapes = (
{
attr = {
strokeHeight = 164;
strokeWidth = 176;
};
closed = 0;
nodes = (
(186,818,l),
(234,914,o),
(344,978,o),
(474,978,cs),
(630,978,o),
(756,886,o),
(756,758,cs),
(756,658,o),
(680,588,o),
(512,550,cs),
(440,534,ls),
(240,490,o),
(160,410,o),
(160,294,cs),
(160,130,o),
(320,54,o),
(482,54,cs),
(620,54,o),
(726,110,o),
(816,200,c)
);
}
);
};
layerId = "96276BA4-5A32-4BE8-8497-4FCF36A79D2F";
name = "Apr 6, 23 23:41";
shapes = (
{
attr = {
strokeHeight = 164;
strokeWidth = 176;
};
closed = 0;
nodes = (
(764,818,l),
(716,914,o),
(606,978,o),
(476,978,cs),
(320,978,o),
(194,886,o),
(194,758,cs),
(194,658,o),
(270,588,o),
(438,550,cs),
(510,534,ls),
(710,490,o),
(790,410,o),
(790,294,cs),
(790,130,o),
(630,54,o),
(468,54,cs),
(330,54,o),
(224,110,o),
(134,200,c)
);
}
);
width = 950;
},
{
associatedMasterId = m01;
background = {
shapes = (
{
closed = 0;
nodes = (
(34,116,l),
(258,298,l)
);
},
{
closed = 0;
nodes = (
(478,896,l),
(574,896,o),
(652,852,o),
(688,782,c),
(846,856,l),
(786,974,o),
(646,1060,o),
(478,1060,c)
);
},
{
closed = 0;
nodes = (
(644,746,l),
(868,928,l)
);
},
{
closed = 0;
nodes = (
(478,1060,l),
(278,1060,o),
(108,934,o),
(108,758,cs),
(108,614,o),
(218,516,o),
(422,470,cs),
(494,454,ls),
(654,418,o),
(704,368,o),
(704,294,cs),
(704,186,o),
(596,136,o),
(470,136,cs),
(360,136,o),
(278,180,o),
(198,258,c),
(74,142,l),
(174,42,o),
(304,-28,o),
(470,-28,cs),
(666,-28,o),
(880,74,o),
(880,294,cs),
(880,454,o),
(768,562,o),
(532,614,cs),
(460,630,ls),
(328,660,o),
(284,702,o),
(284,758,cs),
(284,838,o),
(366,896,o),
(478,896,c)
);
}
);
};
layerId = "39F2F63F-5498-4D4A-A638-5C41EFB9262D";
name = "Apr 7, 23 0:01";
shapes = (
{
closed = 1;
nodes = (
(568,896,o),
(650,858,o),
(696,788,c),
(830,882,l),
(770,972,o),
(646,1060,o),
(478,1060,cs),
(278,1060,o),
(108,934,o),
(108,758,cs),
(108,614,o),
(218,516,o),
(422,470,cs),
(494,454,ls),
(654,418,o),
(704,368,o),
(704,294,cs),
(704,186,o),
(596,136,o),
(470,136,cs),
(352,136,o),
(278,180,o),
(204,254,c),
(72,146,l),
(174,42,o),
(304,-28,o),
(470,-28,cs),
(666,-28,o),
(880,74,o),
(880,294,cs),
(880,454,o),
(768,562,o),
(532,614,cs),
(460,630,ls),
(328,660,o),
(284,702,o),
(284,758,cs),
(284,838,o),
(366,896,o),
(478,896,cs)
);
}
);
width = 952;
},
{
associatedMasterId = m01;
background = {
shapes = (
{
closed = 0;
nodes = (
(34,116,l),
(258,298,l)
);
},
{
closed = 0;
nodes = (
(478,896,l),
(574,896,o),
(652,852,o),
(688,782,c),
(846,856,l),
(786,974,o),
(646,1060,o),
(478,1060,c)
);
},
{
closed = 0;
nodes = (
(644,746,l),
(868,928,l)
);
},
{
closed = 0;
nodes = (
(478,1060,l),
(278,1060,o),
(108,934,o),
(108,758,cs),
(108,614,o),
(218,516,o),
(422,470,cs),
(494,454,ls),
(654,418,o),
(704,368,o),
(704,294,cs),
(704,186,o),
(596,136,o),
(470,136,cs),
(360,136,o),
(278,180,o),
(198,258,c),
(74,142,l),
(174,42,o),
(304,-28,o),
(470,-28,cs),
(666,-28,o),
(880,74,o),
(880,294,cs),
(880,454,o),
(768,562,o),
(532,614,cs),
(460,630,ls),
(328,660,o),
(284,702,o),
(284,758,cs),
(284,838,o),
(366,896,o),
(478,896,c)
);
}
);
};
layerId = "79D06399-1145-4B5F-8A96-D6C66B55205D";
name = "Apr 7, 23 0:00";
shapes = (
{
closed = 1;
nodes = (
(568,896,o),
(650,858,o),
(696,788,c),
(830,882,l),
(770,972,o),
(646,1060,o),
(478,1060,cs),
(278,1060,o),
(108,934,o),
(108,758,cs),
(108,614,o),
(218,508,o),
(422,470,cs),
(496,456,ls),
(656,426,o),
(704,380,o),
(704,302,cs),
(704,186,o),
(596,136,o),
(470,136,cs),
(352,136,o),
(278,180,o),
(204,254,c),
(72,146,l),
(174,42,o),
(304,-28,o),
(470,-28,cs),
(666,-28,o),
(880,74,o),
(880,302,cs),
(880,466,o),
(772,570,o),
(534,616,cs),
(460,630,ls),
(328,656,o),
(284,702,o),
(284,758,cs),
(284,838,o),
(366,896,o),
(478,896,cs)
);
}
);
width = 952;
},
{
associatedMasterId = "94F54C43-8AEE-4ED6-B3C2-2A9D33534E61";
layerId = "0CB2512E-A4D0-4AC6-B8D3-37100BE85BB2";
name = "Apr 7, 23 0:07";
shapes = (
{
attr = {
strokeHeight = 360;
strokeWidth = 376;
};
closed = 0;
nodes = (
(752,754,l),
(708,830,o),
(610,880,o),
(492,880,cs),
(352,880,o),
(238,808,o),
(238,706,cs),
(238,628,o),
(308,572,o),
(458,542,cs),
(524,530,ls),
(704,496,o),
(776,432,o),
(776,342,cs),
(776,212,o),
(632,152,o),
(486,152,cs),
(362,152,o),
(266,196,o),
(184,268,c)
);
}
);
width = 982;
},
{
associatedMasterId = "94F54C43-8AEE-4ED6-B3C2-2A9D33534E61";
layerId = "B7753453-11BD-4851-867F-546E094A8B0C";
name = "Apr 7, 23 0:06";
shapes = (
{
attr = {
strokeHeight = 288;
strokeWidth = 376;
};
closed = 0;
nodes = (
(754,778,l),
(710,860,o),
(612,916,o),
(494,916,cs),
(362,916,o),
(254,836,o),
(254,726,cs),
(252,638,o),
(318,578,o),
(462,546,cs),
(526,532,ls),
(706,494,o),
(754,424,o),
(754,324,cs),
(754,182,o),
(610,116,o),
(464,116,cs),
(340,116,o),
(244,164,o),
(162,242,c)
);
}
);
width = 982;
},
{
associatedMasterId = "94F54C43-8AEE-4ED6-B3C2-2A9D33534E61";
background = {
shapes = (
{
closed = 1;
nodes = (
(762,-28,o),
(992,110,o),
(992,324,cs),
(992,476,o),
(876,612,o),
(560,674,cs),
(488,688,ls),
(396,706,o),
(396,706,o),
(396,726,cs),
(396,770,o),
(400,772,o),
(490,772,cs),
(566,772,o),
(582,764,o),
(616,706,c),
(940,852,l),
(878,956,o),
(702,1060,o),
(490,1060,cs),
(246,1060,o),
(20,924,o),
(20,726,cs),
(20,580,o),
(138,458,o),
(416,406,cs),
(490,392,ls),
(616,368,o),
(616,366,o),
(616,324,cs),
(616,268,o),
(600,260,o),
(482,260,cs),
(400,260,o),
(356,278,o),
(272,352,c),
(26,134,l),
(112,58,o),
(270,-28,o),
(482,-28,cs)
);
},
{
closed = 0;
nodes = (
(28,188,l),
(362,354,l)
);
}
);
};
layerId = "35F88D2A-9EC8-4E6D-B2FB-95487F34E22F";
name = "Apr 7, 23 0:51";
shapes = (
{
closed = 1;
nodes = (
(756,-28,o),
(942,118,o),
(942,318,cs),
(942,492,o),
(808,604,o),
(556,652,cs),
(492,664,ls),
(434,674,o),
(412,688,o),
(412,710,cs),
(412,734,o),
(440,748,o),
(484,748,cs),
(536,748,o),
(590,726,o),
(622,688,c),
(898,862,l),
(828,984,o),
(676,1060,o),
(496,1060,cs),
(246,1060,o),
(74,920,o),
(74,714,cs),
(74,546,o),
(188,458,o),
(420,414,cs),
(484,402,ls),
(574,386,o),
(604,370,o),
(604,344,cs),
(604,316,o),
(564,300,o),
(498,300,cs),
(434,300,o),
(382,320,o),
(348,352,c),
(40,196,l),
(124,54,o),
(286,-28,o),
(486,-28,cs)
);
}
);
width = 982;
},
{
associatedMasterId = "94F54C43-8AEE-4ED6-B3C2-2A9D33534E61";
background = {
shapes = (
{
closed = 1;
nodes = (
(762,-28,o),
(992,110,o),
(992,324,cs),
(992,476,o),
(876,612,o),
(560,674,cs),
(488,688,ls),
(396,706,o),
(396,706,o),
(396,726,cs),
(396,770,o),
(400,772,o),
(490,772,cs),
(566,772,o),
(582,764,o),
(616,706,c),
(940,852,l),
(878,956,o),
(702,1060,o),
(490,1060,cs),
(246,1060,o),
(20,924,o),
(20,726,cs),
(20,580,o),
(138,458,o),
(416,406,cs),
(490,392,ls),
(616,368,o),
(616,366,o),
(616,324,cs),
(616,268,o),
(600,260,o),
(482,260,cs),
(400,260,o),
(356,278,o),
(272,352,c),
(26,134,l),
(112,58,o),
(270,-28,o),
(482,-28,cs)
);
},
{
closed = 0;
nodes = (
(28,188,l),
(362,354,l)
);
}
);
};
layerId = "94F19614-F476-40DA-9096-B60A148280CD";
name = "Apr 7, 23 1:05";
shapes = (
{
closed = 1;
nodes = (
(748,-28,o),
(942,94,o),
(942,302,cs),
(942,476,o),
(808,596,o),
(556,644,cs),
(492,656,ls),
(434,666,o),
(412,680,o),
(412,702,cs),
(412,726,o),
(448,740,o),
(492,740,cs),
(532,740,o),
(590,728,o),
(622,694,c),
(898,876,l),
(828,994,o),
(676,1060,o),
(496,1060,cs),
(246,1060,o),
(74,920,o),
(74,726,cs),
(74,566,o),
(188,458,o),
(420,414,cs),
(484,402,ls),
(548,390,o),
(604,376,o),
(604,342,cs),
(604,308,o),
(548,300,o),
(516,300,cs),
(454,300,o),
(366,326,o),
(320,358,c),
(26,170,l),
(114,50,o),
(328,-28,o),
(504,-28,cs)
);
}
);
width = 982;
},
{
associatedMasterId = "94F54C43-8AEE-4ED6-B3C2-2A9D33534E61";
background = {
shapes = (
{
closed = 1;
nodes = (
(800,-28,o),
(1030,110,o),
(1030,324,cs),
(1030,476,o),
(914,612,o),
(598,674,cs),
(526,688,ls),
(434,706,o),
(434,706,o),
(434,726,cs),
(434,770,o),
(438,772,o),
(528,772,cs),
(604,772,o),
(620,764,o),
(654,706,c),
(978,852,l),
(916,956,o),
(740,1060,o),
(528,1060,cs),
(284,1060,o),
(58,924,o),
(58,726,cs),
(58,580,o),
(176,458,o),
(454,406,cs),
(528,392,ls),
(654,368,o),
(654,366,o),
(654,324,cs),
(654,268,o),
(638,260,o),
(520,260,cs),
(438,260,o),
(394,278,o),
(310,352,c),
(64,134,l),
(150,58,o),
(308,-28,o),
(520,-28,cs)
);
},
{
closed = 0;
nodes = (
(66,188,l),
(400,354,l)
);
}
);
};
layerId = "A66E0075-03B5-4BFE-8567-6C33F4B92A15";
name = "Apr 7, 23 1:08";
shapes = (
{
closed = 1;
nodes = (
(814,-28,o),
(1018,96,o),
(1018,304,cs),
(1018,480,o),
(874,606,o),
(606,648,cs),
(540,658,ls),
(488,666,o),
(470,678,o),
(470,694,cs),
(470,712,o),
(502,720,o),
(538,720,cs),
(570,720,o),
(630,712,o),
(662,682,c),
(972,876,l),
(902,990,o),
(744,1060,o),
(542,1060,cs),
(274,1060,o),
(94,918,o),
(94,722,cs),
(94,554,o),
(222,442,o),
(460,406,cs),
(526,396,ls),
(594,386,o),
(642,374,o),
(642,348,cs),
(642,324,o),
(588,320,o),
(568,320,cs),
(516,320,o),
(420,342,o),
(370,372,c),
(40,174,l),
(128,54,o),
(362,-28,o),
(554,-28,cs)
);
}
);
width = 1058;
},
{
associatedMasterId = "94F54C43-8AEE-4ED6-B3C2-2A9D33534E61";
background = {
shapes = (
{
closed = 0;
nodes = (
(484,440,l),
(26,148,l)
);
}
);
};
layerId = "83405124-FA70-4E4A-994D-30AA05C3D515";
name = "Apr 7, 23 1:43";
shapes = (
{
closed = 1;
nodes = (
(774,-28,o),
(986,58,o),
(986,290,cs),
(986,456,o),
(860,562,o),
(594,618,cs),
(528,632,ls),
(474,644,o),
(458,656,o),
(458,676,cs),
(458,704,o),
(486,716,o),
(526,716,cs),
(576,716,o),
(626,698,o),
(650,670,c),
(960,852,l),
(872,962,o),
(698,1060,o),
(530,1060,cs),
(258,1060,o),
(82,930,o),
(82,734,cs),
(82,566,o),
(210,490,o),
(428,444,cs),
(494,430,ls),
(566,414,o),
(596,402,o),
(596,370,cs),
(596,346,o),
(572,332,o),
(524,332,cs),
(470,332,o),
(394,358,o),
(352,388,c),
(40,200,l),
(120,82,o),
(336,-28,o),
(524,-28,cs)
);
}
);
width = 1026;
},
{
annotations = (
{
pos = (526.932,1211.699);
text = "e랑 자연스러워 보일 수 있을까?";
type = Text;
}
);
background = {
shapes = (
{
closed = 0;
nodes = (
(484,440,l),
(26,148,l)
);
}
);
};
layerId = "94F54C43-8AEE-4ED6-B3C2-2A9D33534E61";
name = Black;
shapes = (
{
closed = 1;
nodes = (
(774,-28,o),
(986,98,o),
(986,310,cs),
(986,496,o),
(848,590,o),
(594,644,cs),
(528,658,ls),
(474,670,o),
(458,678,o),
(458,696,cs),
(458,718,o),
(486,732,o),
(526,732,cs),
(568,732,o),
(630,718,o),
(672,686,c),
(960,876,l),
(872,986,o),
(698,1060,o),
(530,1060,cs),
(258,1060,o),
(82,926,o),
(82,730,cs),
(82,562,o),
(214,462,o),
(428,416,cs),
(494,402,ls),
(566,386,o),
(596,374,o),
(596,352,cs),
(596,324,o),
(558,318,o),
(524,318,cs),
(470,318,o),
(394,342,o),
(352,372,c),
(40,184,l),
(120,66,o),
(336,-28,o),
(524,-28,cs)
);
}
);
width = 1026;
}
);
metricLeft = o;
metricRight = o;
unicode = 115;
}
{
glyphname = t;
layers = (
{
background = {
shapes = (
{
closed = 1;
nodes = (
(204,308,ls),
(204,96,o),
(314,-28,o),
(498,-28,cs),
(564,-28,o),
(626,-16,o),
(670,4,c),
(670,192,l),
(618,166,o),
(576,156,o),
(546,156,cs),
(462,156,o),
(422,206,o),
(422,308,cs),
(422,862,l),
(634,862,l),
(634,1032,l),
(422,1032,l),
(422,1242,l),
(204,1242,l),
(204,1032,l),
(38,1032,l),
(38,862,l),
(204,862,l)
);
}
);
};
layerId = m01;
shapes = (
{
closed = 1;
nodes = (
(570,-28,o),
(608,-22,o),
(650,-6,c),
(650,166,l),
(598,146,o),
(570,144,o),
(532,144,cs),
(446,144,o),
(398,198,o),
(398,314,cs),
(398,1240,l),
(226,1240,l),
(226,294,ls),
(226,96,o),
(344,-28,o),
(532,-28,cs)
);
},
{
closed = 1;
nodes = (
(622,888,l),
(622,1032,l),
(48,1032,l),
(48,888,l)
);
}
);
width = 714;
},
{
layerId = "94F54C43-8AEE-4ED6-B3C2-2A9D33534E61";
shapes = (
{
closed = 1;
nodes = (
(636,0,l),
(636,1280,l),
(252,1280,l),
(252,0,l)
);
},
{
closed = 1;
nodes = (
(840,704,l),
(840,1032,l),
(48,1032,l),
(48,704,l)
);
}
);
width = 888;
},
{
associatedMasterId = m01;
background = {
shapes = (
{
closed = 1;
nodes = (
(214,308,ls),
(214,96,o),
(324,-28,o),
(508,-28,cs),
(574,-28,o),
(636,-16,o),
(680,4,c),
(680,192,l),
(628,166,o),
(586,156,o),
(556,156,cs),
(472,156,o),
(432,206,o),
(432,308,cs),
(432,862,l),
(644,862,l),
(644,1032,l),
(432,1032,l),
(432,1242,l),
(214,1242,l),
(214,1032,l),
(48,1032,l),
(48,862,l),
(214,862,l)
);
}
);
};
layerId = "AE85AFD3-8B52-4078-8D37-D4729ABA0193";
name = "Apr 3, 23 17:09";
shapes = (
{
closed = 1;
nodes = (
(644,888,l),
(644,1032,l),
(48,1032,l),
(48,888,l)
);
},
{
attr = {
lineCapEnd = 4;
strokeWidth = 172;
};
closed = 0;
nodes = (
(342,1240,l),
(342,294,ls),
(342,150,o),
(426,58,o),
(562,58,cs),
(600,58,o),
(636,64,o),
(680,82,c)
);
}
);
width = 684;
}
);
unicode = 116;
}
{
glyphname = u;
kernLeft = u;
kernRight = u;
layers = (
{
background = {
shapes = (
{
angle = 180;
pos = (1068,1032);
ref = n;
}
);
};
layerId = m01;
metricLeft = "=o+32";
metricRight = "=|u";
shapes = (
{
closed = 1;
nodes = (
(778,-28,o),
(960,146,o),
(960,426,cs),
(960,1032,l),
(788,1032,l),
(788,426,ls),
(788,242,o),
(684,136,o),
(538,136,cs),
(392,136,o),
(288,242,o),
(288,426,cs),
(288,1032,l),
(116,1032,l),
(116,426,ls),
(116,146,o),
(298,-28,o),
(538,-28,cs)
);
}
);
width = 1076;
},
{
background = {
shapes = (
{
angle = 180;
pos = (1254,1032);
ref = n;
}
);
};
layerId = "94F54C43-8AEE-4ED6-B3C2-2A9D33534E61";
metricLeft = "=o+32";
metricRight = "=|u";
shapes = (
{
closed = 1;
nodes = (
(936,-28,o),
(1170,198,o),
(1170,556,cs),
(1170,1032,l),
(786,1032,l),
(786,556,ls),
(786,398,o),
(720,332,o),
(626,332,cs),
(532,332,o),
(468,398,o),
(468,556,cs),
(468,1032,l),
(84,1032,l),
(84,556,ls),
(84,198,o),
(316,-28,o),
(626,-28,cs)
);
}
);
width = 1254;
},
{
associatedMasterId = m01;
background = {
shapes = (
{
angle = 180;
pos = (1070,1032);
ref = n;
}
);
};
layerId = "E94DD400-4003-460D-8400-D6CD81201B39";
name = "Apr 5, 23 16:24";
shapes = (
{
closed = 1;
nodes = (
(768,-28,o),
(950,158,o),
(950,406,cs),
(950,1032,l),
(778,1032,l),
(778,406,ls),
(778,248,o),
(674,136,o),
(528,136,cs),
(382,136,o),
(278,248,o),
(278,406,cs),
(278,1032,l),
(106,1032,l),
(106,406,ls),
(106,158,o),
(288,-28,o),
(528,-28,cs)
);
}
);
width = 1070;
},
{
associatedMasterId = "94F54C43-8AEE-4ED6-B3C2-2A9D33534E61";
background = {
shapes = (
{
angle = 180;
pos = (1264,1032);
ref = n;
}
);
};
layerId = "50B7E2D9-E2F7-435F-84A6-291864473EBE";
name = "Apr 5, 23 16:24";
shapes = (
{
closed = 1;
nodes = (
(934,-28,o),
(1168,206,o),
(1168,516,cs),
(1168,1032,l),
(784,1032,l),
(784,516,ls),
(784,408,o),
(718,332,o),
(624,332,cs),
(530,332,o),
(466,408,o),
(466,516,cs),
(466,1032,l),
(82,1032,l),
(82,516,ls),
(82,206,o),
(314,-28,o),
(624,-28,cs)
);
}
);
width = 1264;
}
);
unicode = 117;
}
{
glyphname = u;
kernLeft = u;
kernRight = u;
layers = (
{
background = {
shapes = (
{
angle = 180;
pos = (1068,1032);
ref = n;
}
);
};
layerId = m01;
metricLeft = "=o+32";
metricRight = "=|u";
shapes = (
{
closed = 1;
nodes = (
(766,-28,o),
(948,146,o),
(948,426,cs),
(948,1032,l),
(776,1032,l),
(776,426,ls),
(776,242,o),
(672,136,o),
(526,136,cs),
(380,136,o),
(276,242,o),
(276,426,cs),
(276,1032,l),
(104,1032,l),
(104,426,ls),
(104,146,o),
(286,-28,o),
(526,-28,cs)
);
}
);
width = 1052;
},
{
background = {
shapes = (
{
angle = 180;
pos = (1254,1032);
ref = n;
}
);
};
layerId = "94F54C43-8AEE-4ED6-B3C2-2A9D33534E61";
metricLeft = "=o+32";
metricRight = "=|u";
shapes = (
{
closed = 1;
nodes = (
(924,-28,o),
(1158,198,o),
(1158,556,cs),
(1158,1032,l),
(774,1032,l),
(774,556,ls),
(774,398,o),
(708,332,o),
(614,332,cs),
(520,332,o),
(456,398,o),
(456,556,cs),
(456,1032,l),
(72,1032,l),
(72,556,ls),
(72,198,o),
(304,-28,o),
(614,-28,cs)
);
}
);
width = 1230;
},
{
associatedMasterId = m01;
background = {
shapes = (
{
angle = 180;
pos = (1070,1032);
ref = n;
}
);
};
layerId = "E94DD400-4003-460D-8400-D6CD81201B39";
name = "Apr 5, 23 16:24";
shapes = (
{
closed = 1;
nodes = (
(768,-28,o),
(950,158,o),
(950,406,cs),
(950,1032,l),
(778,1032,l),
(778,406,ls),
(778,248,o),
(674,136,o),
(528,136,cs),
(382,136,o),
(278,248,o),
(278,406,cs),
(278,1032,l),
(106,1032,l),
(106,406,ls),
(106,158,o),
(288,-28,o),
(528,-28,cs)
);
}
);
width = 1070;
},
{
associatedMasterId = "94F54C43-8AEE-4ED6-B3C2-2A9D33534E61";
background = {
shapes = (
{
angle = 180;
pos = (1264,1032);
ref = n;
}
);
};
layerId = "50B7E2D9-E2F7-435F-84A6-291864473EBE";
name = "Apr 5, 23 16:24";
shapes = (
{
closed = 1;
nodes = (
(934,-28,o),
(1168,206,o),
(1168,516,cs),
(1168,1032,l),
(784,1032,l),
(784,516,ls),
(784,408,o),
(718,332,o),
(624,332,cs),
(530,332,o),
(466,408,o),
(466,516,cs),
(466,1032,l),
(82,1032,l),
(82,516,ls),
(82,206,o),
(314,-28,o),
(624,-28,cs)
);
}
);
width = 1264;
}
);
unicode = 117;
}
{
glyphname = v;
layers = (
{
annotations = (
{
pos = (672,1196);
text = "w single*1.1625";
type = Text;
}
);
layerId = m01;
shapes = (
{
closed = 1;
nodes = (
(600,0,l),
(202,1032,l),
(24,1032,l),
(436,0,l)
);
},
{
closed = 1;
nodes = (
(1072,1032,l),
(894,1032,l),
(496,0,l),
(660,0,l)
);
}
);
width = 1096;
},
{
annotations = (
{
pos = (672,1196);
text = "w single*1.1625";
type = Text;
}
);
layerId = "94F54C43-8AEE-4ED6-B3C2-2A9D33534E61";
shapes = (
{
closed = 1;
nodes = (
(808,0,l),
(434,1032,l),
(32,1032,l),
(460,0,l)
);
},
{
closed = 1;
nodes = (
(1292,1032,l),
(890,1032,l),
(516,0,l),
(864,0,l)
);
}
);
width = 1324;
},
{
associatedMasterId = "94F54C43-8AEE-4ED6-B3C2-2A9D33534E61";
layerId = "69472AD0-5E32-4CEA-8196-BE3E9FCB16F4";
name = "Apr 5, 23 16:59";
shapes = (
{
closed = 1;
nodes = (
(722,0,l),
(434,1032,l),
(32,1032,l),
(378,0,l)
);
},
{
closed = 1;
nodes = (
(1116,1032,l),
(714,1032,l),
(426,0,l),
(770,0,l)
);
}
);
width = 1148;
},
{
associatedMasterId = m01;
layerId = "F846EDF4-11E4-4731-AB82-C9761C8A4B1F";
name = "Apr 5, 23 16:59";
shapes = (
{
closed = 1;
nodes = (
(530,0,l),
(202,1032,l),
(24,1032,l),
(370,0,l)
);
},
{
closed = 1;
nodes = (
(926,1032,l),
(748,1032,l),
(420,0,l),
(580,0,l)
);
}
);
width = 950;
}
);
unicode = 118;
}
{
glyphname = w;
kernLeft = v;
kernRight = v;
layers = (
{
background = {
shapes = (
{
closed = 1;
nodes = (
(396,0,l),
(610,0,l),
(796,588,l),
(982,0,l),
(1198,0,l),
(1556,1032,l),
(1332,1032,l),
(1092,316,l),
(874,1032,l),
(718,1032,l),
(502,316,l),
(260,1032,l),
(36,1032,l)
);
}
);
};
layerId = m01;
shapes = (
{
closed = 1;
nodes = (
(1232,0,l),
(1578,1032,l),
(1400,1032,l),
(1072,0,l)
);
},
{
closed = 1;
nodes = (
(542,0,l),
(214,1032,l),
(36,1032,l),
(382,0,l)
);
},
{
closed = 1;
nodes = (
(592,0,l),
(870,944,l),
(870,1032,l),
(720,1032,l),
(434,0,l)
);
},
{
closed = 1;
nodes = (
(1180,0,l),
(894,1032,l),
(744,1032,l),
(744,944,l),
(1022,0,l)
);
}
);
width = 1614;
},
{
associatedMasterId = m01;
layerId = "EA8A6715-DDE0-4E24-997A-BB0D8E52BFB3";
name = "Wanted Logotype";
shapes = (
{
closed = 1;
nodes = (
(396,0,l),
(610,0,l),
(796,588,l),
(982,0,l),
(1198,0,l),
(1556,1032,l),
(1332,1032,l),
(1092,316,l),
(874,1032,l),
(718,1032,l),
(502,316,l),
(260,1032,l),
(36,1032,l)
);
}
);
width = 1590;
},
{
associatedMasterId = m01;
background = {
shapes = (
{
closed = 1;
nodes = (
(396,0,l),
(610,0,l),
(796,588,l),
(982,0,l),
(1198,0,l),
(1556,1032,l),
(1332,1032,l),
(1092,316,l),
(874,1032,l),
(718,1032,l),
(502,316,l),
(260,1032,l),
(36,1032,l)
);
}
);
};
layerId = "451FCD1B-B41A-4B2D-87F5-81ACBC583A73";
name = "Apr 4, 23 16:53";
shapes = (
{
closed = 1;
nodes = (
(1220,0,l),
(1566,1032,l),
(1392,1032,l),
(1048,0,l)
);
},
{
closed = 1;
nodes = (
(542,0,l),
(198,1032,l),
(24,1032,l),
(370,0,l)
);
},
{
closed = 1;
nodes = (
(580,0,l),
(926,1032,l),
(752,1032,l),
(408,0,l)
);
},
{
closed = 1;
nodes = (
(1182,0,l),
(838,1032,l),
(664,1032,l),
(1010,0,l)
);
}
);
width = 1590;
},
{
layerId = "94F54C43-8AEE-4ED6-B3C2-2A9D33534E61";
shapes = (
{
closed = 1;
nodes = (
(1420,0,l),
(1766,1032,l),
(1364,1032,l),
(1076,0,l)
);
},
{
closed = 1;
nodes = (
(734,0,l),
(446,1032,l),
(44,1032,l),
(390,0,l)
);
},
{
closed = 1;
nodes = (
(782,0,l),
(918,584,l),
(976,1032,l),
(732,1032,l),
(486,0,l)
);
},
{
closed = 1;
nodes = (
(1324,0,l),
(1078,1032,l),
(834,1032,l),
(892,584,l),
(1028,0,l)
);
}
);
width = 1810;
},
{
associatedMasterId = "94F54C43-8AEE-4ED6-B3C2-2A9D33534E61";
layerId = "356333F9-96DF-4ABB-9D8A-362A0826EB37";
name = "Apr 4, 23 17:18";
shapes = (
{
closed = 1;
nodes = (
(1400,0,l),
(1746,1032,l),
(1352,1032,l),
(1008,0,l)
);
},
{
closed = 1;
nodes = (
(762,0,l),
(418,1032,l),
(24,1032,l),
(370,0,l)
);
},
{
closed = 1;
nodes = (
(800,0,l),
(1146,1032,l),
(752,1032,l),
(408,0,l)
);
},
{
closed = 1;
nodes = (
(1362,0,l),
(1018,1032,l),
(624,1032,l),
(970,0,l)
);
}
);
width = 1770;
}
);
metricLeft = v;
metricRight = v;
unicode = 119;
}
{
glyphname = x;
layers = (
{
background = {
shapes = (
{
pos = (-64,0);
ref = e;
},
{
closed = 0;
nodes = (
(-18,540,l),
(1052,540,l)
);
}
);
};
layerId = m01;
shapes = (
{
alignment = -1;
pos = (68,0);
ref = _part.x_base;
},
{
alignment = -1;
pos = (966,0);
ref = _part.x_base;
scale = (-1,1);
}
);
width = 1034;
},
{
background = {
shapes = (
{
pos = (20,0);
ref = e;
},
{
closed = 0;
nodes = (
(-156,512,l),
(1244,512,l)
);
}
);
};
layerId = "94F54C43-8AEE-4ED6-B3C2-2A9D33534E61";
shapes = (
{
alignment = -1;
pos = (24,0);
ref = _part.x_base;
},
{
alignment = -1;
pos = (1212,0);
ref = _part.x_base;
scale = (-1,1);
}
);
width = 1236;
},
{
associatedMasterId = m01;
background = {
shapes = (
{
closed = 0;
nodes = (
(-38,540,l),
(1034,540,l)
);
},
{
pos = (-102,0);
ref = e;
}
);
};
layerId = "7728B278-01B0-4D75-BA1D-F460426F7DD4";
name = "Apr 7, 23 14:05";
shapes = (
{
closed = 1;
nodes = (
(998,0,l),
(266,1032,l),
(66,1032,l),
(798,0,l)
);
},
{
closed = 1;
nodes = (
(964,1032,l),
(764,1032,l),
(32,0,l),
(232,0,l)
);
}
);
width = 1030;
}
);
unicode = 120;
}
{
glyphname = y;
kernLeft = v;
kernRight = v;
layers = (
{
background = {
shapes = (
{
closed = 1;
nodes = (
(670,0,l),
(1082,1032,l),
(896,1032,l),
(490,0,l)
);
},
{
closed = 1;
nodes = (
(222,1032,l),
(36,1032,l),
(448,0,l),
(628,0,l)
);
}
);
};
layerId = m01;
shapes = (
{
closed = 1;
nodes = (
(664,0,l),
(218,1032,l),
(36,1032,l),
(488,0,l)
);
},
{
closed = 1;
nodes = (
(316,-432,l),
(498,-432,l),
(1080,1032,l),
(898,1032,l),
(576,214,l),
(488,0,l)
);
}
);
width = 1116;
},
{
background = {
shapes = (
{
closed = 1;
nodes = (
(864,0,l),
(1292,1032,l),
(874,1032,l),
(508,0,l)
);
},
{
closed = 1;
nodes = (
(450,1032,l),
(32,1032,l),
(460,0,l),
(816,0,l)
);
}
);
};
layerId = "94F54C43-8AEE-4ED6-B3C2-2A9D33534E61";
shapes = (
{
closed = 1;
nodes = (
(802,0,l),
(450,1032,l),
(32,1032,l),
(446,0,l)
);
},
{
closed = 1;
nodes = (
(268,-432,l),
(686,-432,l),
(1292,1032,l),
(874,1032,l),
(658,422,l),
(446,0,l)
);
}
);
width = 1324;
},
{
associatedMasterId = "94F54C43-8AEE-4ED6-B3C2-2A9D33534E61";
background = {
shapes = (
{
attr = {
lineCapEnd = "4";
strokeWidth = 384;
};
closed = 0;
nodes = (
(348,1032,l),
(348,22,ls),
(348,-166,o),
(232,-270,o),
(32,-270,cs),
(-8,-270,o),
(-50,-266,o),
(-104,-256,c)
);
}
);
};
layerId = "7FE56D03-3ACC-414B-8FC6-6A139CA2FCE6";
name = "Apr 7, 23 15:37";
shapes = (
{
closed = 1;
nodes = (
(404,-462,o),
(540,-320,o),
(540,0,cs),
(540,1032,l),
(156,1032,l),
(156,0,ls),
(156,-54,o),
(132,-78,o),
(48,-78,cs),
(24,-78,o),
(-10,-76,o),
(-56,-70,c),
(-56,-444,l),
(-12,-456,o),
(32,-462,o),
(96,-462,cs)
);
}
);
width = 636;
},
{
associatedMasterId = m01;
background = {
shapes = (
{
closed = 1;
nodes = (
(880,1032,l),
(586,258,l),
(582,258,l),
(276,1032,l),
(82,1032,l),
(494,38,l),
(426,-148,ls),
(398,-222,o),
(322,-312,o),
(242,-312,qs),
(206,-312,o),
(152,-304,o),
(126,-292,q),
(106,-438,l),
(138,-454,o),
(218,-462,o),
(252,-462,qs),
(326,-462,o),
(430,-422,o),
(504,-348,o),
(556,-246,o),
(582,-182,qs),
(1060,1032,l)
);
}
);
};
layerId = "C2761916-1B0C-46EA-8DBD-809B21BA795C";
name = "Apr 7, 23 15:49";
shapes = (
{
ref = v;
},
{
attr = {
lineCapStart = 4;
strokeWidth = 168;
};
closed = 0;
nodes = (
(994,1032,l),
(528,-140,ls),
(470,-284,o),
(422,-376,o),
(306,-376,cs),
(258,-376,o),
(224,-376,o),
(132,-364,c)
);
}
);
width = 1120;
},
{
associatedMasterId = "94F54C43-8AEE-4ED6-B3C2-2A9D33534E61";
layerId = "0014DF88-5DA7-46F9-BE6F-76859675B8C3";
name = "Apr 7, 23 15:52";
shapes = (
{
ref = v;
},
{
attr = {
lineCapStart = 4;
strokeWidth = 384;
};
closed = 0;
nodes = (
(1084,1032,l),
(664,22,ls),
(590,-154,o),
(548,-270,o),
(348,-270,cs),
(308,-270,o),
(266,-266,o),
(212,-256,c)
);
}
);
width = 1324;
}
);
metricLeft = v;
metricRight = v;
unicode = 121;
}
{
glyphname = z;
kernLeft = z;
kernRight = z;
layers = (
{
layerId = m01;
metricLeft = "=n*.754";
metricRight = "=|";
shapes = (
{
closed = 1;
nodes = (
(698,876,l),
(908,876,l),
(908,1032,l),
(108,1032,l),
(108,876,l)
);
},
{
closed = 1;
nodes = (
(310,156,l),
(908,876,l),
(698,876,l),
(100,156,l)
);
},
{
closed = 1;
nodes = (
(924,0,l),
(924,156,l),
(310,156,l),
(100,156,l),
(100,0,l)
);
}
);
width = 1024;
},
{
associatedMasterId = m01;
layerId = "9C62BA86-21AC-4BCF-8BEE-D292797B60A1";
metricLeft = "=n*.754";
metricRight = "=|z";
name = "Apr 7, 23 16:12";
shapes = (
{
closed = 1;
nodes = (
(312,156,l),
(924,876,l),
(712,876,l),
(100,156,l)
);
},
{
closed = 1;
nodes = (
(924,0,l),
(924,156,l),
(100,156,l),
(100,0,l)
);
},
{
closed = 1;
nodes = (
(924,876,l),
(924,1032,l),
(100,1032,l),
(100,876,l)
);
}
);
width = 1024;
},
{
associatedMasterId = "94F54C43-8AEE-4ED6-B3C2-2A9D33534E61";
layerId = "11B2848C-3898-4525-8C8E-84890764F995";
metricRight = "=|z";
name = "Apr 7, 23 16:17";
shapes = (
{
closed = 1;
nodes = (
(588,328,l),
(1004,704,l),
(524,704,l),
(108,328,l)
);
},
{
closed = 1;
nodes = (
(1004,0,l),
(1004,328,l),
(108,328,l),
(108,0,l)
);
},
{
closed = 1;
nodes = (
(1004,704,l),
(1004,1032,l),
(108,1032,l),
(108,704,l)
);
}
);
width = 1112;
},
{
associatedMasterId = "94F54C43-8AEE-4ED6-B3C2-2A9D33534E61";
layerId = "A3A39C15-DFA7-4C55-9B6C-F9C1E693BCAE";
metricRight = "=|z";
name = "Apr 7, 23 17:01";
shapes = (
{
closed = 1;
nodes = (
(508,696,l),
(1036,672,l),
(1036,1032,l),
(120,1032,l),
(120,696,l)
);
},
{
closed = 1;
nodes = (
(636,336,l),
(1036,672,l),
(508,696,l),
(108,360,l)
);
},
{
closed = 1;
nodes = (
(1052,0,l),
(1052,336,l),
(636,336,l),
(108,360,l),
(108,0,l)
);
}
);
width = 1160;
},
{
layerId = "94F54C43-8AEE-4ED6-B3C2-2A9D33534E61";
metricRight = "=|";
name = Black;
shapes = (
{
closed = 1;
nodes = (
(490,680,l),
(1036,696,l),
(1036,1032,l),
(116,1032,l),
(116,680,l)
);
},
{
closed = 1;
nodes = (
(636,352,l),
(1036,696,l),
(490,680,l),
(108,352,l)
);
},
{
closed = 1;
nodes = (
(1052,0,l),
(1052,352,l),
(636,352,l),
(108,352,l),
(108,0,l)
);
}
);
width = 1160;
}
);
metricLeft = n;
metricRight = "||z";
unicode = 122;
}
{
color = 11;
glyphname = bar;
kernLeft = I;
kernRight = I;
layers = (
{
layerId = m01;
shapes = (
{
attr = {
lineCapEnd = "4";
lineCapStart = "4";
strokeWidth = 172;
};
closed = 0;
nodes = (
(226,1448,l),
(226,-432,l)
);
}
);
width = 452;
},
{
layerId = "94F54C43-8AEE-4ED6-B3C2-2A9D33534E61";
shapes = (
{
attr = {
lineCapEnd = "4";
lineCapStart = "4";
strokeWidth = 384;
};
closed = 0;
nodes = (
(308,1448,l),
(308,-432,l)
);
}
);
width = 616;
}
);
metricLeft = I;
metricRight = I;
unicode = 124;
}
{
color = 3;
glyphname = sterling;
kernLeft = S;
kernRight = S;
layers = (
{
layerId = m01;
shapes = (
{
closed = 1;
nodes = (
(1142,42,l),
(1142,206,l),
(100,206,l),
(100,124,l),
(390,124,l),
(390,234,l),
(142,152,l),
(172,152,ls),
(384,152,o),
(486,256,o),
(486,478,cs),
(486,970,ls),
(486,1160,o),
(582,1268,o),
(756,1268,cs),
(894,1268,o),
(970,1200,o),
(1018,1046,c),
(1188,1092,l),
(1120,1312,o),
(978,1432,o),
(756,1432,cs),
(482,1432,o),
(310,1254,o),
(310,970,cs),
(310,428,ls),
(310,278,o),
(264,206,o),
(168,206,cs),
(100,206,l),
(100,42,l)
);
},
{
closed = 1;
nodes = (
(748,676,l),
(748,836,l),
(100,836,l),
(100,676,l)
);
}
);
userData = {
RMXScaler = {
height = 94.2;
verticalShift = 42;
width = 94.2;
};
};
width = 1288;
},
{
layerId = "94F54C43-8AEE-4ED6-B3C2-2A9D33534E61";
shapes = (
{
closed = 1;
nodes = (
(1292,42,l),
(1292,426,l),
(94,426,l),
(94,234,l),
(630,234,l),
(630,478,l),
(234,332,l),
(264,332,ls),
(526,332,o),
(692,422,o),
(692,560,cs),
(692,906,ls),
(692,996,o),
(738,1048,o),
(818,1048,cs),
(890,1048,o),
(938,1004,o),
(958,918,c),
(1354,1002,l),
(1286,1284,o),
(1098,1432,o),
(818,1432,cs),
(492,1432,o),
(288,1230,o),
(288,906,cs),
(288,566,ls),
(288,472,o),
(252,426,o),
(178,426,cs),
(94,426,l),
(94,42,l)
);
},
{
attr = {
strokeHeight = 336;
};
closed = 1;
nodes = (
(914,590,l),
(914,858,l),
(94,858,l),
(94,590,l)
);
}
);
userData = {
RMXScaler = {
height = 94.2;
verticalShift = 42;
width = 94.2;
};
};
width = 1436;
},
{
associatedMasterId = m01;
background = {
shapes = (
{
attr = {
strokeHeight = 164;
strokeWidth = 176;
};
closed = 0;
nodes = (
(106,760,l),
(786,760,l)
);
},
{
attr = {
strokeHeight = 164;
strokeWidth = 176;
};
closed = 0;
nodes = (
(1204,82,l),
(106,82,l),
(178,82,ls),
(334,82,o),
(418,200,o),
(418,402,cs),
(418,1032,ls),
(418,1258,o),
(580,1394,o),
(798,1394,cs),
(970,1394,o),
(1102,1310,o),
(1168,1096,c)
);
}
);
};
layerId = "9AF29326-03CA-44F8-A064-27315E1F5F25";
metricLeft = "=|E";
name = "Sep 5, 23 16:19";
shapes = (
{
closed = 1;
nodes = (
(1204,0,l),
(1204,164,l),
(106,164,l),
(106,82,l),
(402,82,l),
(402,192,l),
(146,108,l),
(178,108,ls),
(400,108,o),
(506,220,o),
(506,458,cs),
(506,988,ls),
(506,1196,o),
(610,1312,o),
(798,1312,cs),
(946,1312,o),
(1030,1242,o),
(1084,1072,c),
(1252,1120,l),
(1178,1356,o),
(1026,1476,o),
(798,1476,cs),
(510,1476,o),
(330,1288,o),
(330,988,cs),
(330,402,ls),
(330,242,o),
(280,164,o),
(178,164,cs),
(106,164,l),
(106,0,l)
);
},
{
closed = 1;
nodes = (
(786,678,l),
(786,842,l),
(106,842,l),
(106,678,l)
);
}
);
width = 1358;
},
{
associatedMasterId = "94F54C43-8AEE-4ED6-B3C2-2A9D33534E61";
background = {
shapes = (
{
attr = {
strokeWidth = 272;
};
closed = 0;
nodes = (
(100,728,l),
(952,728,l)
);
},
{
attr = {
strokeHeight = 384;
strokeWidth = 404;
};
closed = 0;
nodes = (
(1354,192,l),
(100,192,l),
(270,192,ls),
(426,192,o),
(510,310,o),
(510,512,cs),
(510,974,ls),
(510,1158,o),
(646,1284,o),
(860,1284,cs),
(1044,1284,o),
(1172,1194,o),
(1220,986,c)
);
}
);
};
layerId = "C37E11FB-49C9-4FA6-99EE-3AF37ADD8F3B";
metricLeft = "=|E";
name = "Sep 5, 23 16:19";
shapes = (
{
closed = 1;
nodes = (
(1354,0,l),
(1354,384,l),
(100,384,l),
(100,192,l),
(642,192,l),
(642,436,l),
(238,288,l),
(270,288,ls),
(542,288,o),
(712,386,o),
(712,540,cs),
(712,924,ls),
(712,1032,o),
(766,1092,o),
(860,1092,cs),
(946,1092,o),
(1000,1042,o),
(1024,944,c),
(1418,1030,l),
(1346,1322,o),
(1152,1476,o),
(860,1476,cs),
(520,1476,o),
(308,1264,o),
(308,924,cs),
(308,540,ls),
(308,436,o),
(268,384,o),
(188,384,cs),
(100,384,l),
(100,0,l)
);
},
{
attr = {
strokeHeight = 336;
};
closed = 1;
nodes = (
(952,592,l),
(952,864,l),
(100,864,l),
(100,592,l)
);
}
);
width = 1506;
}
);
note = "# Required RMX Scaler";
unicode = 163;
userData = {
RMXScaler = {
source = _part.sterlingbase;
};
};
}
{
glyphname = brokenbar;
kernLeft = I;
kernRight = I;
layers = (
{
background = {
shapes = (
{
alignment = 1;
ref = bar;
}
);
};
layerId = m01;
shapes = (
{
attr = {
identifier = ID0x127ce93b0;
lineCapEnd = "4";
lineCapStart = "4";
strokeWidth = 168;
};
closed = 0;
nodes = (
(224,1664,l),
(224,864,l)
);
},
{
attr = {
identifier = ID0x127ce93b0;
lineCapEnd = "4";
lineCapStart = "4";
strokeWidth = 168;
};
closed = 0;
nodes = (
(224,584,l),
(224,-216,l)
);
}
);
width = 448;
},
{
background = {
shapes = (
{
ref = bar;
}
);
};
layerId = "94F54C43-8AEE-4ED6-B3C2-2A9D33534E61";
shapes = (
{
attr = {
identifier = ID0x4161dedd0;
lineCapEnd = "4";
lineCapStart = "4";
strokeWidth = 384;
};
closed = 0;
nodes = (
(308,1664,l),
(308,824,l)
);
},
{
attr = {
identifier = ID0x4161dedd0;
lineCapEnd = "4";
lineCapStart = "4";
strokeWidth = 384;
};
closed = 0;
nodes = (
(308,624,l),
(308,-216,l)
);
}
);
width = 616;
}
);
unicode = 166;
}
{
color = 3;
glyphname = copyright;
kernLeft = O;
kernRight = O;
layers = (
{
anchors = (
{
name = bottom;
pos = (936,344);
},
{
name = symbol;
pos = (936,724);
},
{
name = top;
pos = (936,1104);
}
);
layerId = m01;
shapes = (
{
closed = 1;
nodes = (
(1402,-118,o),
(1782,260,o),
(1782,726,cs),
(1782,1190,o),
(1402,1570,o),
(936,1570,cs),
(472,1570,o),
(92,1190,o),
(92,726,cs),
(92,260,o),
(472,-118,o),
(936,-118,cs)
);
},
{
closed = 1;
nodes = (
(556,34,o),
(246,346,o),
(246,726,cs),
(246,1106,o),
(556,1418,o),
(936,1418,cs),
(1316,1418,o),
(1628,1106,o),
(1628,726,cs),
(1628,346,o),
(1316,34,o),
(936,34,cs)
);
},
{
closed = 1;
nodes = (
(1122,330,o),
(1272,456,o),
(1306,634,c),
(1310,468,l),
(1092,592,l),
(1170,654,l),
(1144,538,o),
(1050,460,o),
(936,460,cs),
(798,460,o),
(692,576,o),
(692,724,cs),
(692,872,o),
(798,988,o),
(936,988,cs),
(1050,988,o),
(1144,910,o),
(1170,794,c),
(1092,856,l),
(1310,980,l),
(1306,814,l),
(1272,992,o),
(1122,1118,o),
(936,1118,cs),
(720,1118,o),
(552,946,o),
(552,724,cs),
(552,502,o),
(720,330,o),
(936,330,cs)
);
}
);
width = 1874;
},
{
anchors = (
{
name = bottom;
pos = (982,360);
},
{
name = symbol;
pos = (982,724);
},
{
name = top;
pos = (982,1088);
}
);
layerId = "94F54C43-8AEE-4ED6-B3C2-2A9D33534E61";
shapes = (
{
closed = 1;
nodes = (
(1486,-192,o),
(1898,220,o),
(1898,726,cs),
(1898,1232,o),
(1486,1644,o),
(982,1644,cs),
(476,1644,o),
(64,1232,o),
(64,726,cs),
(64,220,o),
(476,-192,o),
(982,-192,cs)
);
},
{
closed = 1;
nodes = (
(640,108,o),
(362,382,o),
(362,726,cs),
(362,1068,o),
(640,1344,o),
(982,1344,cs),
(1324,1344,o),
(1600,1068,o),
(1600,726,cs),
(1600,384,o),
(1324,108,o),
(982,108,cs)
);
},
{
closed = 1;
nodes = (
(1202,346,o),
(1364,512,o),
(1364,722,c),
(1392,514,l),
(1070,656,l),
(1158,724,l),
(1158,618,o),
(1082,542,o),
(982,542,cs),
(880,542,o),
(804,618,o),
(804,724,cs),
(804,830,o),
(880,906,o),
(982,906,cs),
(1082,906,o),
(1158,830,o),
(1158,724,c),
(1070,792,l),
(1392,934,l),
(1364,726,l),
(1364,944,o),
(1194,1102,o),
(982,1102,cs),
(762,1102,o),
(598,938,o),
(598,724,cs),
(598,510,o),
(762,346,o),
(982,346,cs)
);
}
);
userData = {
RMXScaler = {
weight = -80;
};
};
width = 1962;
}
);
note = "# Required RMX Scaler";
unicode = (169,9426);
userData = {
RMXScaler = {
source = C.circled;
};
};
}
{
color = 3;
glyphname = registered;
kernLeft = question;
kernRight = question;
layers = (
{
anchors = (
{
name = bottom;
pos = (648,642);
},
{
name = symbol;
pos = (648,924);
},
{
name = top;
pos = (648,1206);
}
);
layerId = m01;
metricLeft = "=O";
metricRight = "=O";
shapes = (
{
closed = 1;
nodes = (
(954,370,o),
(1202,620,o),
(1202,924,cs),
(1202,1228,o),
(954,1478,o),
(648,1478,cs),
(344,1478,o),
(94,1228,o),
(94,924,cs),
(94,620,o),
(342,370,o),
(648,370,cs)
);
},
{
closed = 1;
nodes = (
(414,498,o),
(224,690,o),
(224,924,cs),
(224,1158,o),
(416,1350,o),
(648,1350,cs),
(882,1350,o),
(1074,1158,o),
(1074,924,cs),
(1074,690,o),
(882,498,o),
(648,498,cs)
);
},
{
closed = 1;
nodes = (
(568,642,l),
(568,1206,l),
(450,1206,l),
(450,642,l)
);
},
{
closed = 1;
nodes = (
(646,850,ls),
(774,850,o),
(862,924,o),
(862,1028,cs),
(862,1132,o),
(774,1206,o),
(646,1206,cs),
(566,1206,l),
(566,1098,l),
(652,1098,ls),
(708,1098,o),
(744,1070,o),
(744,1024,cs),
(744,978,o),
(708,950,o),
(652,950,cs),
(566,950,l),
(566,850,l)
);
},
{
closed = 1;
nodes = (
(880,642,l),
(712,894,l),
(582,894,l),
(746,642,l)
);
}
);
userData = {
RMXScaler = {
height = 75;
verticalShift = 380;
width = 75;
};
};
width = 1296;
},
{
anchors = (
{
name = bottom;
pos = (648,616);
},
{
name = symbol;
pos = (648,888);
},
{
name = top;
pos = (648,1158);
}
);
layerId = "94F54C43-8AEE-4ED6-B3C2-2A9D33534E61";
metricLeft = "=O";
metricRight = "=O";
shapes = (
{
closed = 1;
nodes = (
(970,300,o),
(1234,564,o),
(1234,888,cs),
(1234,1212,o),
(970,1476,o),
(648,1476,cs),
(324,1476,o),
(60,1212,o),
(60,888,cs),
(60,564,o),
(324,300,o),
(648,300,cs)
);
},
{
closed = 1;
nodes = (
(430,496,o),
(256,672,o),
(256,888,cs),
(256,1104,o),
(432,1280,o),
(648,1280,cs),
(864,1280,o),
(1040,1104,o),
(1040,888,cs),
(1040,670,o),
(864,496,o),
(648,496,cs)
);
},
{
closed = 1;
nodes = (
(600,616,l),
(600,1158,l),
(438,1158,l),
(438,616,l)
);
},
{
closed = 1;
nodes = (
(648,796,ls),
(778,796,o),
(872,872,o),
(872,978,cs),
(872,1082,o),
(778,1158,o),
(648,1158,cs),
(598,1158,l),
(598,1010,l),
(660,1010,ls),
(688,1010,o),
(708,994,o),
(708,968,cs),
(708,942,o),
(688,926,o),
(660,926,cs),
(598,926,l),
(598,796,l)
);
},
{
closed = 1;
nodes = (
(888,616,l),
(740,850,l),
(564,850,l),
(706,616,l)
);
}
);
userData = {
RMXScaler = {
height = 75;
verticalShift = 344;
weight = -240;
width = 75;
};
};
width = 1294;
}
);
note = "# Required RMX Scaler";
unicode = 174;
userData = {
RMXScaler = {
source = _part.registeredbase;
};
};
}
{
glyphname = paragraph;
kernLeft = V;
kernRight = H;
layers = (
{
layerId = m01;
shapes = (
{
ref = _part.paragraphbase;
},
{
pos = (432,0);
ref = _part.paragraphstem;
},
{
pos = (744,0);
ref = _part.paragraphstem;
}
);
width = 1196;
},
{
layerId = "94F54C43-8AEE-4ED6-B3C2-2A9D33534E61";
shapes = (
{
ref = _part.paragraphbase;
},
{
pos = (466,0);
ref = _part.paragraphstem;
},
{
pos = (958,0);
ref = _part.paragraphstem;
}
);
width = 1494;
},
{
associatedMasterId = m01;
layerId = "688C6176-ABB9-434D-8D4D-0E83A2E119DB";
metricRight = "=|";
name = "San Francisco";
shapes = (
{
closed = 1;
nodes = (
(724,-216,l),
(724,1448,l),
(558,1448,ls),
(332,1448,o),
(140,1294,o),
(140,1060,cs),
(144,764,o),
(414,684,o),
(574,684,c),
(574,-216,l)
);
},
{
closed = 1;
nodes = (
(1020,-216,l),
(1020,1448,l),
(870,1448,l),
(870,-216,l)
);
}
);
width = 1160;
},
{
associatedMasterId = "94F54C43-8AEE-4ED6-B3C2-2A9D33534E61";
layerId = "3EF68F78-EE47-4717-9188-6FC857F28B03";
metricRight = "=|";
name = "San Francisco";
shapes = (
{
closed = 1;
nodes = (
(898,-286,l),
(898,1448,l),
(580,1448,ls),
(394,1448,o),
(100,1350,o),
(100,1026,cs),
(102,816,o),
(274,610,o),
(598,610,c),
(598,-286,l)
);
},
{
closed = 1;
nodes = (
(1386,-286,l),
(1386,1448,l),
(1086,1448,l),
(1086,-286,l)
);
}
);
width = 1486;
},
{
associatedMasterId = m01;
layerId = "7648E4E8-651F-4F17-8F16-15E65BAFEC68";
name = "Jun 26, 23 16:05";
shapes = (
{
closed = 1;
nodes = (
(620,668,l),
(620,1448,l),
(572,1448,l),
(326,1448,o),
(140,1280,o),
(140,1058,cs),
(140,836,o),
(326,668,o),
(572,668,cs)
);
},
{
piece = {
Cap = 100;
};
pos = (440,0);
ref = _smart.lowerstem;
},
{
piece = {
Cap = 100;
};
pos = (752,0);
ref = _smart.lowerstem;
}
);
width = 1192;
}
);
metricLeft = bar;
metricRight = bar;
unicode = 182;
}
{
glyphname = Eth;
kernLeft = Islash;
kernRight = O;
layers = (
{
background = {
shapes = (
{
closed = 0;
nodes = (
(796,964,l),
(796,488,l)
);
}
);
};
layerId = m01;
shapes = (
{
ref = _part.Ethbase;
},
{
pos = (44,0);
ref = D;
}
);
width = 1442;
},
{
background = {
shapes = (
{
closed = 0;
nodes = (
(844,964,l),
(844,488,l)
);
}
);
};
layerId = "94F54C43-8AEE-4ED6-B3C2-2A9D33534E61";
shapes = (
{
ref = _part.Ethbase;
},
{
pos = (40,0);
ref = D;
}
);
width = 1524;
}
);
unicode = 208;
}
{
color = 0;
glyphname = multiply;
kernLeft = hyphen;
kernRight = hyphen;
layers = (
{
background = {
annotations = (
{
pos = (898.065,814.468);
text = "vertical*1.16";
type = Text;
}
);
shapes = (
{
ref = plus;
}
);
};
layerId = m01;
metricRight = "=|";
shapes = (
{
attr = {
strokeWidth = 164;
};
closed = 0;
nodes = (
(214,966,l),
(1066,114,l)
);
},
{
attr = {
strokeWidth = 164;
};
closed = 0;
nodes = (
(1066,966,l),
(214,114,l)
);
}
);
width = 1280;
},
{
background = {
shapes = (
{
ref = plus;
}
);
};
layerId = "94F54C43-8AEE-4ED6-B3C2-2A9D33534E61";
metricRight = "=|";
shapes = (
{
attr = {
strokeWidth = 352;
};
closed = 0;
nodes = (
(278,982,l),
(1162,98,l)
);
},
{
attr = {
strokeWidth = 352;
};
closed = 0;
nodes = (
(1162,982,l),
(278,98,l)
);
}
);
width = 1440;
}
);
metricWidth = plus;
note = $CASE;
unicode = 215;
}
{
glyphname = germandbls;
kernLeft = l;
kernRight = s;
layers = (
{
background = {
shapes = (
{
closed = 0;
nodes = (
(556,260,l),
(420,164,l)
);
},
{
attr = {
strokeHeight = 160;
strokeWidth = 172;
};
closed = 0;
nodes = (
(216,0,l),
(216,1072,ls),
(216,1276,o),
(334,1396,o),
(506,1396,cs),
(678,1396,o),
(796,1292,o),
(796,1120,cs),
(796,934,o),
(658,900,o),
(658,760,cs),
(658,532,o),
(1026,576,o),
(1026,302,cs),
(1026,148,o),
(912,52,o),
(762,52,cs),
(654,52,o),
(568,102,o),
(486,210,c)
);
}
);
};
layerId = m01;
shapes = (
{
closed = 1;
nodes = (
(968,-28,o),
(1112,108,o),
(1112,302,cs),
(1112,612,o),
(744,598,o),
(744,760,cs),
(744,860,o),
(882,914,o),
(882,1120,cs),
(882,1338,o),
(728,1476,o),
(508,1476,cs),
(288,1476,o),
(134,1322,o),
(134,1064,cs),
(134,0,l),
(302,0,l),
(302,1072,ls),
(302,1234,o),
(382,1316,o),
(506,1316,cs),
(630,1316,o),
(710,1250,o),
(710,1120,cs),
(710,950,o),
(572,938,o),
(572,760,cs),
(572,470,o),
(940,544,o),
(940,302,cs),
(940,198,o),
(872,132,o),
(762,132,cs),
(680,132,o),
(622,168,o),
(554,258,c),
(418,162,l),
(516,32,o),
(626,-28,o),
(762,-28,cs)
);
}
);
width = 1198;
},
{
background = {
shapes = (
{
closed = 0;
nodes = (
(696,376,l),
(576,44,l)
);
},
{
attr = {
strokeHeight = 312;
strokeWidth = 360;
};
closed = 0;
nodes = (
(328,0,l),
(328,1032,ls),
(328,1210,o),
(446,1320,o),
(618,1320,cs),
(790,1320,o),
(912,1212,o),
(912,1060,cs),
(912,926,o),
(818,880,o),
(818,760,cs),
(818,538,o),
(1138,616,o),
(1138,348,cs),
(1138,208,o),
(1052,128,o),
(906,128,cs),
(816,128,o),
(716,158,o),
(626,186,c)
);
}
);
};
layerId = "94F54C43-8AEE-4ED6-B3C2-2A9D33534E61";
shapes = (
{
closed = 1;
nodes = (
(1152,-28,o),
(1318,124,o),
(1318,348,cs),
(1318,652,o),
(1018,638,o),
(1018,760,cs),
(1018,828,o),
(1112,898,o),
(1112,1060,cs),
(1112,1304,o),
(900,1476,o),
(606,1476,cs),
(312,1476,o),
(108,1304,o),
(108,1016,cs),
(108,0,l),
(508,0,l),
(508,1032,ls),
(508,1122,o),
(552,1164,o),
(618,1164,cs),
(684,1164,o),
(732,1122,o),
(732,1060,cs),
(732,972,o),
(638,922,o),
(638,760,cs),
(638,472,o),
(938,496,o),
(938,348,cs),
(938,306,o),
(914,284,o),
(864,284,cs),
(824,284,o),
(766,298,o),
(680,336,c),
(574,38,l),
(660,10,o),
(784,-28,o),
(906,-28,cs)
);
}
);
width = 1366;
}
);
metricLeft = l;
metricRight = s;
unicode = 223;
}
{
color = 11;
glyphname = eth;
kernLeft = o;
kernRight = o;
layers = (
{
background = {
shapes = (
{
ref = o;
},
{
attr = {
lineCapEnd = "4";
lineCapStart = "4";
strokeHeight = 164;
strokeWidth = 176;
};
closed = 0;
nodes = (
(260,1416,l),
(804,1192,o),
(1056,904,o),
(1056,494,c)
);
},
{
attr = {
lineCapEnd = "4";
lineCapStart = "4";
strokeWidth = 120;
};
closed = 0;
nodes = (
(260,1064,l),
(926,1436,l)
);
}
);
};
layerId = m01;
shapes = (
{
closed = 1;
nodes = (
(904,-28,o),
(1144,182,o),
(1144,538,cs),
(1144,928,o),
(854,1268,o),
(260,1506,c),
(260,1326,l),
(764,1116,o),
(976,844,o),
(976,492,c),
(1032,492,l),
(1032,788,o),
(828,1012,o),
(558,1012,cs),
(290,1012,o),
(84,788,o),
(84,502,cs),
(84,200,o),
(312,-28,o),
(614,-28,cs)
);
},
{
closed = 1;
nodes = (
(406,136,o),
(260,282,o),
(260,492,cs),
(260,702,o),
(406,848,o),
(614,848,cs),
(822,848,o),
(968,702,o),
(968,492,cs),
(968,282,o),
(822,136,o),
(614,136,cs)
);
},
{
closed = 1;
nodes = (
(926,1367,l),
(926,1505,l),
(260,1133,l),
(260,995,l)
);
}
);
width = 1228;
},
{
background = {
shapes = (
{
ref = o;
},
{
attr = {
lineCapEnd = "4";
lineCapStart = "4";
strokeHeight = 320;
strokeWidth = 336;
};
closed = 0;
nodes = (
(240,1338,l),
(772,1154,o),
(1000,860,o),
(1000,494,c)
);
},
{
attr = {
lineCapEnd = "4";
lineCapStart = "4";
strokeWidth = 160;
};
closed = 0;
nodes = (
(240,1038,l),
(980,1416,l)
);
}
);
};
layerId = "94F54C43-8AEE-4ED6-B3C2-2A9D33534E61";
shapes = (
{
closed = 1;
nodes = (
(944,-28,o),
(1168,196,o),
(1168,530,cs),
(1168,892,o),
(904,1310,o),
(240,1506,c),
(240,1234,l),
(648,1076,o),
(830,878,o),
(830,500,c),
(896,478,l),
(896,766,o),
(714,984,o),
(474,984,cs),
(234,984,o),
(52,766,o),
(52,498,cs),
(52,190,o),
(292,-28,o),
(610,-28,cs)
);
},
{
closed = 1;
nodes = (
(504,332,o),
(428,402,o),
(428,502,cs),
(428,602,o),
(504,672,o),
(610,672,cs),
(716,672,o),
(792,602,o),
(792,502,cs),
(792,402,o),
(716,332,o),
(610,332,cs)
);
},
{
closed = 1;
nodes = (
(980,1326,l),
(980,1506,l),
(240,1128,l),
(240,948,l)
);
}
);
width = 1220;
}
);
metricLeft = o;
metricRight = o;
unicode = 240;
}
{
color = 0;
glyphname = divide;
kernLeft = hyphen;
kernRight = hyphen;
layers = (
{
background = {
shapes = (
{
ref = plus;
}
);
};
layerId = m01;
metricRight = "=|";
shapes = (
{
attr = {
identifier = ID0x2e5a1d2e0;
strokeWidth = 164;
};
closed = 0;
nodes = (
(120,540,l),
(1160,540,l)
);
},
{
alignment = -1;
pos = (638,828);
ref = _smart.dot;
},
{
alignment = -1;
piece = {
Pressed = 0;
};
pos = (638,36);
ref = _smart.dot;
}
);
width = 1280;
},
{
background = {
shapes = (
{
ref = plus;
}
);
};
layerId = "94F54C43-8AEE-4ED6-B3C2-2A9D33534E61";
metricRight = "=|";
shapes = (
{
attr = {
identifier = ID0x2eb2a0b50;
strokeWidth = 304;
};
closed = 0;
nodes = (
(160,540,l),
(1280,540,l)
);
},
{
alignment = -1;
piece = {
Mark = 420;
};
pos = (720,760);
ref = _smart.dot;
},
{
alignment = -1;
piece = {
Mark = 420;
};
pos = (720,0);
ref = _smart.dot;
}
);
width = 1440;
}
);
metricWidth = plus;
note = $CASE;
unicode = 247;
}
{
glyphname = idotless;
kernLeft = n;
kernRight = a;
layers = (
{
anchors = (
{
name = "#exit";
pos = (304,0);
},
{
name = top;
pos = (218,1032);
}
);
layerId = m01;
shapes = (
{
closed = 1;
nodes = (
(304,0,l),
(304,1032,l),
(132,1032,l),
(132,0,l)
);
}
);
width = 436;
},
{
anchors = (
{
name = "#exit";
pos = (492,0);
},
{
name = top;
pos = (300,1032);
}
);
layerId = "94F54C43-8AEE-4ED6-B3C2-2A9D33534E61";
shapes = (
{
closed = 1;
nodes = (
(492,0,l),
(492,1032,l),
(108,1032,l),
(108,0,l)
);
}
);
width = 600;
}
);
unicode = 305;
}
{
glyphname = Lcaron;
kernLeft = H;
kernRight = L;
layers = (
{
background = {
annotations = (
{
pos = (736,964);
text = "40%";
type = Text;
}
);
shapes = (
{
closed = 0;
nodes = (
(1004,1448,l),
(1004,0,l)
);
},
{
closed = 0;
nodes = (
(316,1448,l),
(316,0,l)
);
},
{
closed = 0;
nodes = (
(592,1448,l),
(592,0,l)
);
}
);
};
layerId = m01;
shapes = (
{
ref = L;
},
{
pos = (394,0);
ref = caroncomb.alt;
}
);
width = 1100;
},
{
background = {
shapes = (
{
closed = 0;
nodes = (
(748,1448,l),
(748,0,l)
);
},
{
closed = 0;
nodes = (
(532,1448,l),
(532,0,l)
);
},
{
closed = 0;
nodes = (
(1072,1448,l),
(1072,0,l)
);
}
);
};
layerId = "94F54C43-8AEE-4ED6-B3C2-2A9D33534E61";
shapes = (
{
ref = L;
},
{
pos = (460,0);
ref = caroncomb.alt;
}
);
width = 1160;
}
);
unicode = 317;
}
{
color = 11;
glyphname = Lslash;
kernLeft = H;
kernRight = L;
layers = (
{
background = {
shapes = (
{
pos = (20,0);
ref = lslash;
},
{
closed = 1;
nodes = (
(402,166,l),
(746,166,l),
(746,896,l),
(402,896,l)
);
}
);
};
layerId = m01;
metricLeft = "=lslash+8";
shapes = (
{
alignment = -1;
pos = (82,0);
ref = L;
},
{
piece = {
L = 1;
};
pos = (312,220);
ref = _smart.diacriticslashsmall;
}
);
width = 1192;
},
{
background = {
shapes = (
{
pos = (20,0);
ref = lslash;
},
{
closed = 1;
nodes = (
(636,166,l),
(906,166,l),
(906,896,l),
(636,896,l)
);
}
);
};
layerId = "94F54C43-8AEE-4ED6-B3C2-2A9D33534E61";
metricLeft = "=lslash+8";
shapes = (
{
alignment = -1;
pos = (88,0);
ref = L;
},
{
piece = {
L = 1;
};
pos = (420,220);
ref = _smart.diacriticslashsmall;
}
);
width = 1264;
}
);
metricRight = L;
unicode = 321;
}
